<mxfile host="65bd71144e">
    <diagram id="pw3tW8baN9TW7b8HOjhJ" name="Page-1">
        <mxGraphModel dx="2221" dy="995" grid="1" gridSize="10" guides="1" tooltips="1" connect="1" arrows="1" fold="1" page="1" pageScale="1" pageWidth="827" pageHeight="1169" math="0" shadow="0">
            <root>
                <mxCell id="0"/>
                <mxCell id="1" parent="0"/>
                <mxCell id="65" value="" style="rounded=0;whiteSpace=wrap;html=1;dashed=1;strokeColor=#009999;strokeWidth=1;fontSize=16;fontColor=#FFFFFF;fillColor=#3C454F;" vertex="1" parent="1">
                    <mxGeometry x="-180" y="10" width="1270" height="720" as="geometry"/>
                </mxCell>
                <mxCell id="11" value="" style="rounded=0;whiteSpace=wrap;html=1;verticalAlign=top;align=left;movable=0;resizable=0;rotatable=0;deletable=0;editable=0;connectable=0;strokeColor=#314354;flowAnimation=1;fillColor=#292F36;fontColor=#ffffff;" parent="1" vertex="1">
                    <mxGeometry x="-40" y="190" width="1010" height="480" as="geometry"/>
                </mxCell>
                <mxCell id="42" style="edgeStyle=orthogonalEdgeStyle;html=1;exitX=1;exitY=0.5;exitDx=0;exitDy=0;entryX=0.5;entryY=0;entryDx=0;entryDy=0;fontSize=12;flowAnimation=1;strokeWidth=2;" edge="1" parent="1" source="40" target="41">
                    <mxGeometry relative="1" as="geometry">
                        <Array as="points">
                            <mxPoint x="480" y="445"/>
                        </Array>
                    </mxGeometry>
                </mxCell>
                <mxCell id="40" value="" style="rounded=0;whiteSpace=wrap;html=1;fontSize=12;fillColor=#314354;strokeColor=#314354;fontColor=#ffffff;movable=0;resizable=0;rotatable=0;deletable=0;editable=0;connectable=0;" vertex="1" parent="1">
                    <mxGeometry x="-10" y="240" width="410" height="410" as="geometry"/>
                </mxCell>
                <mxCell id="12" style="edgeStyle=orthogonalEdgeStyle;html=1;entryX=0.5;entryY=0;entryDx=0;entryDy=0;startArrow=classic;startFill=1;flowAnimation=1;exitX=1.005;exitY=0.563;exitDx=0;exitDy=0;exitPerimeter=0;strokeWidth=2;" parent="1" source="3" target="9" edge="1">
                    <mxGeometry relative="1" as="geometry">
                        <mxPoint x="395" y="230" as="targetPoint"/>
                        <Array as="points">
                            <mxPoint x="270" y="105"/>
                            <mxPoint x="270" y="230"/>
                            <mxPoint x="95" y="230"/>
                        </Array>
                    </mxGeometry>
                </mxCell>
                <mxCell id="3" value="&lt;font color=&quot;#ffffff&quot;&gt;Web Browser&lt;/font&gt;" style="strokeWidth=1;shadow=0;dashed=0;align=center;html=1;shape=mxgraph.mockup.containers.window;align=left;verticalAlign=top;spacingLeft=8;strokeColor2=#008cff;strokeColor3=#c4c4c4;fontColor=#666666;mainText=;fontSize=17;labelBackgroundColor=none;fillColor=#006666;" parent="1" vertex="1">
                    <mxGeometry x="-10" y="60" width="200" height="80" as="geometry"/>
                </mxCell>
                <mxCell id="16" style="edgeStyle=orthogonalEdgeStyle;html=1;exitX=0.5;exitY=1;exitDx=0;exitDy=0;startArrow=classic;startFill=1;flowAnimation=1;strokeWidth=2;" parent="1" source="5" target="6" edge="1">
                    <mxGeometry relative="1" as="geometry"/>
                </mxCell>
                <mxCell id="5" value="API-GATEWAY" style="rounded=1;whiteSpace=wrap;html=1;fillColor=#006666;fontColor=#ffffff;strokeColor=#009999;dashed=1;" parent="1" vertex="1">
                    <mxGeometry x="30" y="372.25" width="130" height="50" as="geometry"/>
                </mxCell>
                <mxCell id="17" style="edgeStyle=orthogonalEdgeStyle;html=1;exitX=1;exitY=0.5;exitDx=0;exitDy=0;entryX=0;entryY=0.5;entryDx=0;entryDy=0;endArrow=none;endFill=0;startArrow=classic;startFill=1;flowAnimation=1;strokeWidth=2;" parent="1" source="6" target="8" edge="1">
                    <mxGeometry relative="1" as="geometry">
                        <Array as="points">
                            <mxPoint x="190" y="512"/>
                            <mxPoint x="190" y="561"/>
                            <mxPoint x="20" y="561"/>
                            <mxPoint x="20" y="610"/>
                        </Array>
                    </mxGeometry>
                </mxCell>
                <mxCell id="6" value="FLEETMAN-POSITION-TRACKER" style="rounded=1;whiteSpace=wrap;html=1;fillColor=#006666;fontColor=#ffffff;strokeColor=#009999;dashed=1;" parent="1" vertex="1">
                    <mxGeometry x="35" y="482.25" width="120" height="60" as="geometry"/>
                </mxCell>
                <mxCell id="18" style="edgeStyle=orthogonalEdgeStyle;html=1;entryX=1;entryY=0.5;entryDx=0;entryDy=0;flowAnimation=1;strokeWidth=2;" parent="1" source="7" target="8" edge="1">
                    <mxGeometry relative="1" as="geometry"/>
                </mxCell>
                <mxCell id="7" value="FLEETMAN-POSITION-SIMULATOR" style="rounded=1;whiteSpace=wrap;html=1;fillColor=#006666;fontColor=#ffffff;strokeColor=#009999;dashed=1;" parent="1" vertex="1">
                    <mxGeometry x="190" y="580" width="120" height="60" as="geometry"/>
                </mxCell>
                <mxCell id="8" value="ACTIVE-MQ-QUEUE" style="rounded=1;whiteSpace=wrap;html=1;fillColor=#006666;fontColor=#ffffff;strokeColor=#009999;dashed=1;" parent="1" vertex="1">
                    <mxGeometry x="30" y="580" width="120" height="60" as="geometry"/>
                </mxCell>
                <mxCell id="14" style="edgeStyle=orthogonalEdgeStyle;html=1;entryX=0.5;entryY=0;entryDx=0;entryDy=0;startArrow=classic;startFill=1;flowAnimation=1;strokeWidth=2;" parent="1" source="9" target="5" edge="1">
                    <mxGeometry relative="1" as="geometry"/>
                </mxCell>
                <mxCell id="9" value="ANGULAR WEBAPP" style="rounded=1;whiteSpace=wrap;html=1;fillColor=#006666;fontColor=#ffffff;strokeColor=#009999;dashed=1;" parent="1" vertex="1">
                    <mxGeometry x="42.5" y="271" width="105" height="48.75" as="geometry"/>
                </mxCell>
                <mxCell id="20" value="Simulates data as if it was coming from a real world vehicle" style="shape=callout;whiteSpace=wrap;html=1;perimeter=calloutPerimeter;rounded=0;fillColor=#006666;fontColor=#ffffff;strokeColor=#009999;dashed=1;" parent="1" vertex="1">
                    <mxGeometry x="245" y="500" width="120" height="80" as="geometry"/>
                </mxCell>
                <mxCell id="21" value="" style="rounded=0;whiteSpace=wrap;html=1;fillColor=#647687;strokeColor=#314354;movable=1;resizable=1;rotatable=1;deletable=1;editable=1;connectable=1;fontColor=#ffffff;" vertex="1" parent="1">
                    <mxGeometry x="567" y="400" width="340" height="250" as="geometry"/>
                </mxCell>
                <mxCell id="26" value="&lt;b&gt;&lt;font style=&quot;font-size: 16px;&quot;&gt;Prometheus Server&lt;/font&gt;&lt;/b&gt;" style="text;html=1;align=center;verticalAlign=middle;resizable=0;points=[];autosize=1;strokeColor=none;fillColor=none;" vertex="1" parent="1">
                    <mxGeometry x="643" y="399.25" width="170" height="30" as="geometry"/>
                </mxCell>
                <mxCell id="30" value="" style="shape=image;verticalLabelPosition=bottom;labelBackgroundColor=default;verticalAlign=top;aspect=fixed;imageAspect=0;image=data:image/png,iVBORw0KGgoAAAANSUhEUgAAArMAAAFpCAYAAACPqqDPAAAAAXNSR0IArs4c6QAAIABJREFUeF7snQd8FFXXxs+03VSS0EEQVKSDBREp+tIEkaYoNkRQQIoKiEh5UUFBQIoNlVdUQECpSlMRsKB0MCJVkC5NOgSS7O607zt3ZpLQk9Cy+Iy/CGR3Z+793zs7zz33FIlwgAAIgAAIgAAIgAAIgECYEpDCtN1oNgiAAAiAAAiAAAiAAAgQxCwmAQiAAAiAAAiAAAiAQNgSgJgN26FDw0EABEAABEAABEAABCBmMQdAAARAAARAAARAAATClgDEbNgOHRoOAiAAAiAAAiAAAiAAMYs5AAIgAAIgAAIgAAIgELYEIGbDdujQcBAAARAAARAAARAAAYhZzAEQAAEQAAEQAAEQAIGwJQAxG7ZDh4aDAAiAAAiAAAiAAAhAzGIOgAAIgAAIgAAIgAAIhC0BiNmwHTo0HARAAARAAARAAARAAGIWcwAEQAAEQAAEQAAEQCBsCUDMhu3QoeEgAAIgAAIgAAIgAAIQs5gDIAACIAACIAACIAACYUsAYjZshw4NBwEQAAEQAAEQAAEQgJjFHAABEAABEAABEAABEAhbAhCzYTt0aDgIgAAIgAAIgAAIgADELOYACIAACIAACIAACIBA2BKAmA3boUPDQQAEQAAEQAAEQAAEIGYxB0AABEAABEAABEAABMKWAMRs2A4dGg4CIAACIAACIAACIAAxizkAAiAAAiAAAiAAAiAQtgQgZsN26NBwEAABEAABEAABEAABiFnMARAAARAAARAAARAAgbAlADEbtkOHhoMACIAACIAACIAACEDMYg6AAAiAAAiAAAiAAAiELQGI2bAdOjQcBEAABEAABEAABEAAYhZzAARAAARAAARAAARAIGwJQMyG7dCh4SAAAiAAAiAAAiAAAhCzmAMgAAIgAAIgAAIgAAJhSwBiNmyHDg0HARAAARAAARAAARCAmMUcAAEQAAEQAAEQAAEQCFsCELNhO3RoOAiAAAiAAAiAAAiAAMQs5gAIgAAIgAAIgAAIgEDYEoCYDduhQ8NBAARAAARAAARAAAQgZjEHQAAEQAAEQAAEQAAEwpYAxGzYDh0aDgIgAAIgAAIgAAIgADGLOQACIAACIAACIAACIBC2BCBmw3bo0HAQAAEQAAEQAAEQAAGIWcwBEAABEAABEAABEACBsCUAMRu2Q4eGgwAIgAAIgAAIgAAIQMxiDoAACIAACIAACIAACIQtAYjZsB06NBwEQAAEQAAEQAAEQABiFnMABEAABEAABEAABEAgbAlAzIbt0KHhIAACIAACIAACIAACELOYAyAAAiAAAiAAAiAAAmFLAGI2bIcODQcBEAABEAABEAABEICYxRwAARAAARAAARAAARAIWwIQs2E7dGg4CIAACIAACIAACIAAxCzmAAiAAAiAAAiAAAiAQNgSgJgN26FDw0EABEAABEAABEAABCBmMQdAAARAAARAAARAAATClgDEbNgOHRoOAiAAAiAAAiAAAiAAMYs5AAIgAAIgAAIgAAIgELYEIGbDdujQcBAAARAAARAAARAAAYhZzAEQAAEQAAEQAAEQAIGwJQAxG7ZDh4aDAAiAAAiAAAiAAAhAzGIOgAAIgAAIgAAIgAAIhC0BiNmwHTo0HARAAARAAARAAARAAGIWcwAEQAAEQAAEQAAEQCBsCUDMhu3QoeEgAAIgAAIgAAIgAAIQs5gDIAACIAACIAACIAACYUsAYjZshw4NBwEQAAEQAAEQAAEQgJjFHAABEAABEAABEAABEAhbAhCzYTt0aDgIgAAIgAAIgAAIgADELOYACIAACIAACIAACIBA2BKAmA3boUPDQQAEQAAEQAAEQAAEIGYxB0AABEAABEAABEAABMKWAMRs2A4dGg4CIAACIAACIAACIAAxizkAAiAAAiAAAiAAAiAQtgQgZsN26NBwEAABEAABEAABEAABiFnMARAAARAAARAAARAAgbAlADEbtkOHhoMACIAACIAACIAACEDMYg6AAAiAAAiAAAiAAAiELQGI2bAdOjQcBEAABEAABEAABEAAYhZzAARAAARAAARAAARAIGwJQMyG7dCh4SAAAiAAAiAAAiAAAhCzmAMgAAIgAAIgAAIgAAJhSwBiNmyHDg0HARAAARAAARAAARCAmMUcAAEQAAEQAAEQAAEQCFsCELNhO3RoOAiAAAiAAAiAAAiAAMQs5gAIgAAIgAAIgAAIgEDYEoCYDduhQ8NBAARAAARAAARAAAQgZjEHQAAEQAAEQAAEQAAEwpYAxGzYDh0aDgIgAAIgAAIgAAIgADGLOQACIAACIAACIAACIBC2BCBmw3bo0HAQAAEQAAEQAAEQAAGIWcwBEAABEAABEAABEACBsCUAMRu2Q4eGgwAIgAAIgAAIgAAIQMxiDoAACIAACIAACIAACIQtAYjZsB06NBwEQAAEQAAEQAAEQABiFnMABEAABEAABEAABEAgbAlAzIbt0KHhIAACIAACIAACIAACELOYAyAAAiAAAiAAAiAAAmFLAGI2bIcODQcBEAABEAABEAABEICYxRwAARAAARAAARAAARAIWwIQs2E7dGg4CIAACIAACIAACIAAxCzmAAiAAAiAAAiAAAiAQNgSgJgN26FDw0EABEAABEAABEAABCBmMQdAAARAAARAAARAAATClgDEbNgOHRoOAiAAAiAAAiAAAiAAMYs5AAIgAAIgAAIgAAIgELYEIGbDdujQcBAAARAAARAAARAAAYhZzAEQAAEQAAEQAAEQAIGwJQAxG7ZDh4aDAAiAAAiAAAiAAAhAzGIOgAAIgAAIgAAIgAAIhC0BiNmwHTo0HARAAARAAARAAARAAGIWcwAEQAAEQAAEQAAEQCBsCUDMhu3QoeEgAAIgAAIgAAIgAAIQs5gDIAACIAACIAACIAACYUsAYjZshw4NBwEQAAEQAAEQAAEQgJjFHAABEAABEAABEAABEAhbAhCzYTt0aDgIgAAIgAAIgAAIgADELOYACIAACIAACIAACIBA2BKAmA3boUPDQQAEQAAEQAAEQAAEIGYxB0AABEAABEAABEAABMKWAMRs2A4dGg4CIAACIAACIAACIAAxizkAAiAAAiAAAiAAAiAQtgQgZsN26NBwEAABEAABEAABEAABiFnMARAAARAAARAAARAAgbAlADEbtkOHhoMACIAACIAACIAACEDMYg6AAAiAAAiAAAiAAAiELQGI2bAdOjQcBEAABEAABEAABEAAYhZzAARAAARAAARAAARAIGwJQMyG7dCh4SAAAiAAAiAAAiAAAhCzmAMgAAIgAAIgAAIgAAJhSwBiNmyHDg0HARAAARAAARAAARCAmMUcAAEQAAEQAAEQAAEQCFsCELNhO3RoOAiAAAiAAAiAAAiAAMQs5gAIgAAIgAAIgAAIgEDYEoCYDduhQ8NBAARAAARAAARAAAQgZjEHQAAEQAAEQAAEQAAEwpYAxGzYDh0aDgIgAAIgAAIgAAIgADGLOQACIAACIAACIAACIBC2BCBmw3bo0HAQAAEQAAEQAAEQAAGIWcwBELgAgTKVni0UUShPcV3z59GjfBE+RdPVE/oxc8+Rv9esGLb9YgBWrVo1MiU+vrSZKzpfQJMitJBkaIZ0RD94bOefC+fuu5hz47MgAAIgAAIg8G8gADH7bxhl9DFbBG69p/PNBSrf/mTuEjc1y1vs+tK6X1MPmSEyTZNidYWig+axY+s3fb//9zUjf5rV69esXOTWmg/EFy5T6KXYEvmf0ePUwqEoPwUki1RbIZ8pkZJkmPKhwHf//L5x6OKZkxZm5dx47+Uh0K1+t1sSCiYUCBpBcQGDDJIt2ea/W5Il/vQOWbYkMlWSTcvWtEh72fJlK+dsmZN0eVqGs15tAi/UeuGWhAIJRYJy0JAkySaFLFny2WQYRBbJsiVLsiJLhjtzeL7Itiyptmr9uebPxKnrpx652n3A9UEgnAlAzIbz6KHtl41A+cf61yx4z13vxJS66daQ5iPblCho2xTQJFJ8flJIIjkYoljTolyHkwL7v/+157xP27+fmQZVqt/s9oQ6N39BxeJLp2oGmZpEtm2TSTZJkkyypJJkyKQGLIo4ZISS/tj2+opPRw/MzLnxnstHYOOsjd+WqlHqfhYqpBGRTTbJGa6X8duUpS3/WKRQkPQXnu5W7YNZ7/x2+VqHM19NAssmLptS5b4qzSmSSMwJnUyyLCJNduaBTTw7nNnCf5PIYpFLKRQc+NLAhn0+7/Pj1Ww/rg0C4U4AYjbcRxDtv+QEytftVbNU2+bjjBuLFD1CNgUsiaSgTbYtkelTSFKcZ5Jp6uTTFModNKjw4SQ6vGBh75nvtBl8vgaVq9XolhubVP5RLxOXZ7d9jEzFJsuySNH5yUZsziFLIpJkH2mWTLmlWIo5oFNo5Y43533wwSuXvLM4YaYJbJ6/dW6JajfWEx9Q3B9HmDiCJeO3qeX+zhG09jMPta865rtRyzN9MbwxrAgsn7F86p3173yYb2JbsUji+cGHnSZmnTnCB9/oPFdMIkohu3eb3vcNnjZ4Xlh1GI0FgRxGAGI2hw0ImnN1Cdxco+ONt7R4bIZ8W5kK24MBMm2VZMVPmuIjTVaITItsUyfFIrIUiU4oFplGgAr7FSp46DhtHz2lyS9fvTL7bL2oVKluXNzDdy2Vyucpc8A+QiHFIFX1EekmaaZJsiyRqUhk2GzOk0iRNLJ0mfJIsRR3xKad3/326O9TJk65uoT+vVdfO2/jt+XvLnU/WUS2SiRpRLbEWtXRJ96fTEjyLLMsWCwyn37g2apjv/9k5b+X3rXd85XfLP/yjnvvfJwt9iaFyJYkYbhXSXXWOCxqvUOy2GxLCk+iIBmvtn+9wYBx/X64tgmhdyBweQlAzF5evjh7mBG4u+snr17/cIM3tpomBdUIipFjyNRN4WLArgB+NshZNim2RUHZppOqTBGxEZSadJBukjQq8OffP/86fFTTTZtGnzi96zU7dnwlun6Z/jukw2TKQVJUmSRLIdnih54txGxINYRPrmqx8UYhgxVTUKICcm7ybzu5bffYX6uuWTPvQJhhvSaau+6HDd+Vu7tMA1IdbcLiVegUslyjbLqcVVje8j/ZSTJIZsenOlb734z/rbgmQKATZxBY+NXCiTXq1XiMoolCFCRZkskQ3ig8E2R2Skr7DM8Xk0xSWfkmkdWzQ8/7hkwcMh9YQQAEsk8AYjb77PDJa4xApfLP3lSiz7PfHCiat/QhS6b4uAJk7U8R1tNApEoGbx+aBpFtEMk2SbJKui2RsMHoKVRAUkIJh44kbZ/ybYvlX3Q7ZduwVPXqsSWearj2ZF4qdkRJocgolUKGTqbJ+5EyKewxq1iUouok2SZFGGzdk4mioik5WadoKYaKpkTT4S+WtVo688tx1xj6sOjOiu9//+6Oe25rYLH1jVcbZAipwofzf8fXIM0SZ8nOVrJOVtcWz1d7b+aHcDMIi5HOeiNXTv990h333fYo61Nb4XWM81+aZdZb+bhuKaaYO6pwM+jTvm/9gRPegJjNOnZ8AgTSCEDMYjKAgEvg7vqvNSz60jPfbI5SSYqIpdSkEOVRYsWrJ1WDQvwA4jtGPKxMMk2bfJJGkmmTKlukhQKURyLSl616f3/Pmd0TaZTuwS3WqNHtpZ+okXjMl0oUI9HRk0cpOjo2TcySxLHxJoVUZ186ymRbjkSpLI4UH1mmQoVTYyj+90OTd30/r2ViYmLauTGAV4bAxkWb55SqUuI+i8dfYnXiWGQ9m9spX6bCzUB1LLMWWS890rn627NHLLsyLcVVrjSBxJmrJt9e/9ZHLMsmOdKZCWlu1J6vrPcLybXm82JVJ7t76+71h08cDjF7pQcN17umCEDMXlPDic5cDIH6LT/qmrf1w+9s9clkSREkKZrY8peFf5sT0aMrlvCT5IP9IlXTJkVyPCYlK0R+Mil60475SW9+0mTBjrEBfl+JEg388XXyP5qvTunPj2gBSvXpZPIutESkmBobeYnFrCXZ4vd8KPwin5XdGzgojCTKF4ig/JtCK9aP+bHupk2Lz3BjuJi+47MXJrBm7ro5FWqXu481qpN7wklm4Gwhe5LWM8G5LgdsnQ2R9eKDz9d49/sPl174KnhHOBJY8vWSyVUbV31EBIDJrs+0+JI4LTbQE7Ze0GCQ7J7tetYfMgFuBuE47mhzziEAMZtzxgItucoEHug0vp/dtGbffdGRZBkakayQxYE+ZJHPciymOj+sWIRashCz7O8qCx0js9QlTbIp+q+ty/Z/MKZOYuKoFH6lbNnmvsi7o5/PW/fm4Ue1AKX4TDLEZyRSTfao8yx96SHx7EUrnC45fansSKe8oUjKszmwbu2k5TW2Jf5w/Crj+tddfu28dd+Xr1muPg+NJZnCvSTNF9IL8BHfqI7V1lmMqCSzmH0AYvZanjBLZi6cXLVRjUds/lKQJBKGe+drQfhUO1Z8V+m6IleYbiFmr+Vpgb5dQQIQs1cQNi6Vswk80Gl0D3r03rf2REeQFVRItmWSJL5FLLGtbIsf5wnF3gDs02qxfU5mP0lFiNlIyWIxu+Jo/xH3Lt/yhUiSX7NmTfVE2WJd8tQuOYzFbKpmkeneeSyKzydm+dnI12Uxm0+PooTNqev/nrC4xh9/LDiWs2lee627GDH7UpMud7897/0l1x4V9IgJLJ6xcEq1xjWaZ0PMWj3b9bwPllnMIxC4OAIQsxfHD5++hgjUeuiNRwq+1GbyRtki0jWK8kWSpTtWFbbIWrKT51xsKrMItYlMVrey+2ObFCVbFLNp629/v/Vx/fXrPxNVfZpTc2VLx8gu+eqUGn7YF6CACB5yRDELYpbEjg/mmZbZ08Vs7s2B9TsnLIKYvQrzDmL2KkAPk0tehJg1e7br2QBiNkwGGs3MsQQgZnPs0KBhV5pA5crPlSvap/2cvfly5UsNSRExUbmIQpYjWiUS/qyGzO4EMnG1Uv49p+tiyyxrWon9ZSWLcm3eturAkI8bLF/36X5PzG7rGNkloW6p4Ud8AQpyklohZNmDgB3ssiJmgxt2TlhYHZbZKz07iNbMWze3Qs1y9bLlZtD4hXvenf/B4ivfalzxShC4CDFr9GzX836I2SsxSrjGtUwAYvZaHl30LUsEKlV6Vot55L4P42pWa3fEsClkS6TamhOxbstC0LKYFd5v7ILgBnOYbLEVmtSgOMmmmM3bV+9696P7V60avZcbUJNqqic6FOuSu16pYYe1VCFmHYusm0w9C2I2z5bgn1un/1597aJvj2apc3jzRROAmL1ohNfsCSBmr9mhRcfChADEbJgMFJp5ZQiUaP5G1dLNm3xtFSlc4KBpSrbiE8LVLyK2JAqxZVZin1n+0yIWsuJHBIWFKE4iitm8dfWudz9OF7M1a6rJZYt1ja9bauhBLVVkRFBZ/YrDOU+m3Qy2BDdumbai+vqlc4ULA44rRwBi9sqxDrcrQcyG24ihvdcaAYjZa21E0Z+LI1CzpnpXhRbtit9379tHYyIijqkSmZLqilmZDHYp4CIHjimWTNkUQpQDwVS2zNo2RW7dumrziI8a/pk4YR83hn1md3SKetERs0HSFYM0N4uBKWVNzObdGtr019Tl1SBmL26Ys/NpiNnsUPt3fAZi9t8xzuhlziUAMZtzxwYtu0oEihdvHVHw3rs6lWvW8M29MVpEEqdi4pgw2yZLVkiWRW4msg2dfBpn0DdIVVUyUwMUZ1sUs2v3yt+HDWm0dc30tLKztz/X+uU8dUoOccSsRZrpZCbNqpjNvTn417YZv98FN4MrPznWzFs/r0LNsvfCZ/bKs8/pV4SYzekjhPZd6wQgZq/1EUb/skWgUqVno+zixRpd36BWL7Ngwm3+hHjhL6uHDCFsZVURxRKM1CCRbZKm+SnC5uJeEsk7tq/97f2366xaNfWgd/E7Oz3dI6FOqbf2+xw3g+yK2TybA5t3TFh0JwLAsjWsF/UhiNmLwndNfxhi9poeXnQuDAhAzIbBIKGJV49Ahcodb4y+oejdBUqXqBObJ+8NqizH2CRbumSZIduyIyOjTDNkmFzbwM/etUFdsQ7s3bZn/tfP/5A4Na2wAYvZ3LVLvXXAl0qpmkGa5eSpFTWksuAzCzF79eYCxOzVY5/Trwwxm9NHCO271glAzF7rI4z+XTQB9nldVcIXbdtmXESE6rc0VSK/X5xXNwKWYUqmYkimPzJSV4OWpWmWlZg46lDGC1fr2KZnfO2bB//jd8Qsp/XysiTw+zIdALY5dcvOCYsrwzJ70cOa5RNAzGYZ2b/mAxCz/5qhRkdzKAGI2Rw6MGjWtUWgRvs2PePq3Dz4n4hUSvYZokCCZEsikCwrFcByQ8xetYkBMXvV0Of4Cy+esXBqtcY1Hs5GBTDj5fYvNxg2btgPOb6TaCAI5GACELM5eHDQtGuHQI327XrG17lp8D6I2bAd1DVz186vUKt83ewEgKGcbdgOe6YaDjGbKUx4EwhcNgIQs5cNLU4cXgT6yWXLrlfjkkhJ1o97SWDJsOIkVT5uB+MjZNPUpTgrRlLlk3bcCdOM2x8XmEpTzcz0s1r7dj1z17lp8H5/Kp1ky6xbcUExlSxZZtlnds3EZZW3Jf6Q5o+bmevjPRdPAGL24hleq2eAmL1WRxb9ChcCELPhMlJo53kJlK/StkC+3PlKx+bNW1KNjsplK5JtioIEtk2kkG1b7lxXxHlkW7isEitRi2xJUWVZkSSZgiHFkEnWfbIclEzZJyniP9u0JNswSSKLIiwrNbTv0I6T+w78ue/Qtl1xcQeOJSYm6udr4J0dWczePPiIeoJSfKYotMDJuRS3WexD6x2WaLfzL74euySwY0JePYpybwn+tWHKb5W3LJ+TdKEpUalS46hceXKX8cVGVI6Mjsxn2UYw5ciJ9ccPHFuzcuVte4j68cnD4mhetrkvV3yuQvkL5C+cP3/+4nny5CkYGR0Z4/P7fCHbCIVSA6nHkpKOHzt4ZO/Bwwf3HThy4PDJwyePzNo068Sl6qAQs7XL1yWFR8QmySsBxxfgssTOgIkZ5fwQWbZKcoisy22ZbV6uee74/PkLXV+kYLGChQveEBeXkMcXGeEzQ7qRdPzY4T179+/YvXfv9j07Dv4z+6+Jp/hzXyo+V+M8zSu3Llgwd2yBAoUKXF/wuoJF42Ljcsuy7Dd0w9AN/eT+fw7tP3b08M69/+zdl3Qg6Z+pG6aevBztXDxj0bRqjas/lB03g97tezcYPG4w3Awux8DgnP8aAhCz/5qhvjY7WrhGz+vz33lby1K3lWsWnSfh9lSZSOfUr4pEli2xXHQ0his2WCSybrQ4hZYIwhL/SoMj9InILiBSyZJt26Q4oVriffy6bVmk6hZF6EbKvg0bph1aturj+Jk/rFhAC1hznvWo8PyzvfLWKTEoRTpOQU2ngOpkMpBty/GbtSXRRpHhQJTNdaqCKbZj+DVIptxGNOXaqm/aMmn5necTsxUr1ouOqF6kS3zZYk/6EmLL2H6ZApJOpqVTJCmkpujGsb/2fXd8/e6Ba2bOXJ5TZ0aD25rnq1799prlbi19X6XKd1QsXLRwSSVSjhVDITmyUQyf82/nYJVpEqUeCxxNOpb0985tu3ZsWrtxxW8rf/9l8x9/rpuz5cKLgHPxWD137fyKLGZVnhdEUtq3p3VVxGyTKo8XqF7j1nq33nZLwzvurHxL7kK5byYtAx1unze9+e8WWUf2nti6aeOmPxb8uvDbZfMXzJ+1apYouXz6Mbj10MZlbilbNUQBI6QZki27ft4Wz1NJkj1fb8sgm1W9ItumYcoJWoI8bfy0CWOWj9lwOeZV48KNo66vcv0t1e6ucf+tlSpWKV7yptJRMf4i5MRjnvk841vbJJtSKXn/voObNq79c/3KJUvnL125dsHXy7/YfanamG0xm0pG744XJ2abVWxW5LHWjz1j2EaEFMnfGJZkmTbJkkKyrZImKbZlWKTrITsqVwSdDCRxuUJbUTUiU7WtEFGUpPmUEKXMnDh75JhVY9JSCl4qPjgPCFxuAhCzl5swzn/ZCNRoPLhG/mYNh4cK5b1TjommVDLppK2TrkhEskKmRaTITrUuDrbytI8jVJ2UWLLFkvLcBkoWs5IkiR/v4N9ZlkU+w6SCskbR/xzadfznRX1njmw91pUPZ/S5wgvteuapc/PgVDpGQc2goKIKscyWV9XkZ4tCis0t4d9bIhetLZnksxx9HCLVEbPbjI3bpybeuWnx2S2O1es3LpevRqmxqTck3HEyl0KptkG6ZlFA5RplOkXbCsVYGkWkSpTrMOkpi3f0y5V8/K2pUzPnLnHZBjPDidvUbFOiQfOG7evef+8jcdfFXC/kmewsIrj0ryw7Cwtd5/y+mtBrrGF5TPg1sYCxicygRYrGqxshaIwT/5zcsWjB4m/nz/7xq7iZ0Yv7ZdEyLcRsHccyK6YMTwnPEnsFLbMt72l5Q+OHHnr23kZ1WsQXjSl6ipj3JJ27EON5a5qsNZ1VnGkQKW77kw8F9n07ceb4H6d/9+GoReP+9oagElXSPpk2+pPb7qvYSvTV/eFbSHI2Cpz+ewsJ/pPfw38mEw3uNqxZ79EvT7+Uc+XBig/mb/BAg0cbPnj/44Vvvu4OUknja5qGQUqEmnZvC4t5Bk1r8BxRnflgpxJJmtPO43uOH/pj+e/T50/7ccKbX7/568W2NVtilhkGyHi13asNBnw5IFuW2eZFmkf2+bTPlFtq3tJIzAMeB4lID9qk+fiLzh0XXhPz63wvRDp/13WdNJkFLREFyZ7xydeDV7+09pWs3hcXyw6fB4FLQQBi9lJQxDmuOIEKjXv/p1zTZuOVG24oelxTKcXUhXALKjJJPpUkWRVWVTahKW5OV6eRji3W9HaF7QuLWfGpDGLW66zKFtqQTgU0zfYfPhLY+9OCl34asefjs23f39Hp2R7xdUu8dUTQ/BoXAAAgAElEQVRzxCzZKtt5yZZNIbYjdMf6q8uqELKWbJBEJvlMxxqsu2I2z1/6nxtn/F7lbGK2Yr2G5a+rVe5bX8l81x9VdSHsWdzpskEpIrGtSZEBixTdJkmLoHiKZUFLR5ZtHfDrx4f6USb9fy/XYPNWecsOLV9u9FCjtlKClDfNIC60KFeqsEnhhYp3iNWAa2r3rJCnfaPZOpHkCS3Pbh6kwKqlict+mP/TRyu/Xzlz6oapocz0KaObgZhEV1jM1r2xbtwz7Vo/3/SRB5+PKhRVkC3EfHBJZZst+LJEiuzsRKTvNvAOgCPweJ+CFwBc7ENmjszDJArtTd7z+SefD5w/a8GnLgt56eQVn951b+WnKcYVSGle5Bm8KFzXGNu0yVYlEmuMINGbL7zV5JXPes3ODNMLvad+ufq5H3/8yWeaPdK0U2zR2OJpWpX77lnkhcImMm1L3KeOBxEv3rx+S2Sb7LyjEHsSpeFhEZdMqX/+tmnupx+NGvr2zLeXXKg953p9yfSFX1VtUqNZltwMPDHbsXeDAdl0M5j58cwPmrRu8pyYj7xjYLqCnQmEbDHOeqpFWgQv3p05yzmxg0aIIv0+sgNEXFF70exln97dvOqz2e0/PgcCV5sAxOzVHgFcP8sEKlfueOMNHZ6aRCVvqnw4lS2xClmqTLoqkakoZLgmI+Ee4IpZFoziES8edo4LAZtozmeVFe9gQXzacYqwtU2yU5PpurhcFH/w8NF1H49+9LdZA+ef/pk7O7Z9OaFOySH7I45RUGXXAkVcnYWIYpMQs7ItUyr3g90kJIMUMslvOA9qFrP59GjKu0n/c92sM8VsqVLVY29+ptYvdun42/ZbJykoGULIqiRRiAwK+ixRcjdSJ7J0kwJcltdWKZ5yUcIRm47M+aP5kknjpmV5MC7RB3q06FGnd5/e78cXjy8rTumJFf57mhuBK1pMx/VCUTTH0uTptwzfZmLBYjplhi3DMUvJrnVSTAChfog2r/xr0egPx7w6eNLgBRfqyqli1vUzcIXUhXxmX2z8wj3vzv9g8YWuca7Xn2v0XNU+b/R5r1CZQpU9HsLVwecK/Qy7C6ZwTbFJkRQh6cQugswzwYUp5jRPMuG/4vxIRL/9sPLrIf2Gdpi6aurB+ePnj67bvO7TaZZZic/kHCyK0yx+zi+c7nNco37pxOzAjm890KFzp/4JhWPKU0TaxdMXEZZJxFZXdwwsYp92x8ucD4P4HuL7zDGjqyQLBqZhOS5Gqs/pBy9ldEr59stvP58y7vM3xy2d+v/+5Fk7smWZZaABMnp3yJ6bwbj+Y19s2aPVMOIYUtdKbhgmKYrCAtU5xI3gLrx4d4P7zX9KvHNBpEpEm5Zu/q5D62cfWrBjQSBrvca7QSDnEICYzTljgZZkkkD9Zz9+NX+rh974ywqRpvjFk9RkH1lFopBlk26yh6lEmhBswqAnBCMfXnCV98DLipj1hK0nZtm6q0ZFUFLSMUrw+yghOdWO37ZrbuLHE57cuOLDwxm7U6V9m+4J99489ID/BAVVtsZqjpZQ0sUsCy72pfX8ZWUWs65l1mAxG4qmfJtCG7dNXXxX4mnZDMq0fqJn0SaVBh/3B+iofoxiImOENYrbrJNBAYUf7BJFSyopkko6yRQimYKGTQWNKCq0Nbhl6+fzr0oxhuGvDG/fpUvn4UouNVqoDdfKJP4i26IPJgtYFqOulVxif0BhZkp/aAtjqeve7Ay3RSE9RD7NJ/7FW9KGYVCEP8r5ED/kWQynUHD+pB8/+GTkxwOnrp965FzTcO3ctfPLZzMA7GLE7Ns93m3zYq8uwyiG4llHhgI6+SI1IfK5CyYZgg/PS0UY4Jz/+HDssrZw0ZBlxUmiIUC5KwB3kSc46kTb1m9f3KlDx9Yv93i5Z50mddoKX1RZSOI01OzIIQSt58oRIQs9zI1hl5m3ug17oNeHL8/M5O18xtsalGiQq3Of7gPue7z2c6ILvLBJs4KLVYqTDYRNwUKnuhZ6V9Q64tVxlTUtI81a7blae2wMyySLrdksc4PsTqRQ8vakTcP6D+3c74sB87LQfmnxjEVTr2QA2OD2g5v2HNLzSzuCogJWiCIjnDnuiFeTbNMgyeeOMd8mvLEhq2QYFimqTIEUiyL9Mv29el/iC606NJy1btb+LPQXbwWBHEcAYjbHDQkadD4ClSo9e33ljs/O2Xlj0bJ7fER+RRMPcrGpyE9ymTMXsM1TIpW3Uw1nmz5tl5SFr/sMdB725w/o94Tr2Sy0fJ6ThkGa30cUClGCaabeZFPS+jFftFj5+Us/ZuxH5Q7PvJSnbslhB33pYpavbihOEgTNdMxbhsy/s8hk31AySWMRIoLOVMobiqY8m/XN26csqpxRzHLAV/72NdYeu169IUVOIdMKUZTqIyNkkKypZGqOddY0dfLpEmmSynY7YjOMGaGS76RF5QO56Z8ZK1ssmvTFl1dyBr7b7/3OL/R4frjsk1Te/+ToLYn9XG1b+MdmjPNy2uWMJG8gi+A81wTlGNC9qCxPeDljm9GP0vm0I/E48EUVjpeOkHv7pfdavvRp1wnn6n+amGX/Y9eXOu29F/CZza6YHT984qtPdnisL/lJCYRM8vkdq5vgJBxRXIGfJl7T57Nlc2CaKSz0aX6kaRsNzraz0w8lzTrLVspf5v/8tS8yQqp6T9UHiTWSZAhh6HhWOKsFR9Cm66cgO82YMvn/34Om7/NvPvDGp69kS8y2vaftDS+/0XtsybtuvEf4ufL13ftVLExU2R1zi2zdcqyrnogTCyG3g256EE/YeuPE1nr+vmCLPYvhIOnCeuvjpZ6lOoub45Q89r2xvZ8e+PSIzNwL/aiffO+MulOyK2Z7tut5/5AJQ87YzTnXtTs0eeG2d0YM/S6ikL+g7bq8Cks8B5F6H+LAPPaxcdyFSeIFrGGRT/U7CwCT6NDfSX/3e/G/9384+8P1mekn3gMCOZkAxGxOHh207QwCt97bu/rdnZ9b9JfPT8mxUaQrpvCVs1j8yBkCtdgqydurtlNhS2QhcGc760YvUVfGlFhZxS1cNlVNPBhDgRDFSjKpxw+SvOKPd//58OtX1uwfn+yeU6rUqVW3fLVLDTvgPyncDDTDCTt3rLCuA6bbVg4AM8Q+KGczsEiyZEfM6tEUtzW4dd3ERZUy5pm95e5Gd173Qp3l2yKOUQRvx4aCJFxkJYVOWgZZfoVsEQxik0+3SbMV4ebA7hgW/z5gU/5AFPnXHvsmsv/WBzKbOzervE5//6BOgx7t9V6v8bptaipndxDCi5tpksyOfE4AvhBOXqC64w+ZLs5MoUTTXUG8LzR3eSPEKm+7S5Yktl/ZWi1SonEUlJdBiwXMETry5EPtbvli+afnjHA/U8x6EVAXTs2VHTE7ZtCYvq27te5r8XrMFXXM0LSDJNkWqewXbmmewdrRdK6WTdtm9gJ/xP666aJyGLDF03DdBzieij8rxD77VCalmv64SKH0bWGZ9WSha/p2R4VHgikwQv6s+v8+yq93GfRgv5H/nZHV+dGxTseKb498Z1JEEX8ZYg8Sbo/PaTK7DDhuAjwfnEayTZU8y7Lnw5zuCyHepesGaZrqTJ9TU1CQbgRFQFiqlUp+OZI4Q4PqqcMQ2bNHz36rSZcmvTPRD2nJ9IXTsuwzy20NkpEVMdu8xlPXv/3h0G+KlM5fgfsU0nihYZJsKuRXVHengr87+IeXIEbaNJf5vueJ5Czekjq37tFkxNShv2Sif3gLCOR4AhCzOX6I0MCMBG55dFC98i0em5uSUJD2hoJk+jj4xNtfTvdx9dwLPKusJ2ZFcC/7i6UFgDluCOc6zrDAnfZGfrympgYpMiKGZNugWNkg/9qN8w+/89lDizeN9nKcyre90OrFPLVKDTvkOykCvPwGb/mylZiFKxELbPaZVYUYschQbJHVgA/+vW3JlEfn1Fyh7X9+ufC2jGK23mNtnpGbl/9su/8YRWgW2aFU8hkyaZqfUiWbAiyOFbbF2uTnzAkGp1fisG6LQnaIovyRpAX9FPFn0l/KxN9vn7dmnifCL9vka1enXcmPx49cJOVX8tksmSxTRNxz+jB+ELO/Z8hgS5xPWAOFmGJPA/b9dIO+DMsmSfFshk5TvfemWXQ5W4VrmUzzGXUFGxmuArKIfpr88yd1WtU+bwDMKWLWtYym2fwvsWX2nW7Dn+s6sNt7rLt5fhsi8wVRUE/lLFgUoWhkcVCT7OSkEoeXYeH0f3vf8vy6518s5KBJpmRT0NbJL/kd10uDefENYjsOlWIOOv6yrgR25aSzxHAEok0hYUaVyReQ6I2ugx7sNyprYrZzw87lBw0fOCuqWPQNoo1sfRbrDfaETbc2O1e1yWbrKrtNeL6/zuCfykLcPKdN4TQ3C+e1kJVCskjv4KQCYPcJTgEtBZ3zzRkz590VnVa8dKEI/2wFgHFbQmT0bJs5yyy7X7z1ybvTKlQrea+zcnD8pdnNRCMf6SHXpYZdi4wgqT5esPI7eCGguRNJWOH1N18c2uqVj3tMvGw3OE4MAleYAMTsFQaOy2WfQHNqrqx8pEzdu9q1/z5JzkUpqkZBOUR6RjXqCkDOYOA9y061yjo5ZNOKErA19Dxi9nyt5fMqpk2q6hNWJBYZqp1KUZu2Lj886IN6y7d8IQob1KxZUz1QvljXPHVLDk3ypZCl2CQFbfJz5gJ+XLOFheNYbCIfuwPyw1piVwN2bZQpqHM0cizlSvZR3OaUHX9NXHhrRjF731NtX6aGJYfsiU0hQ2ZPWIMiuLKYyXYsSYjloOrYNDkAjNOUmRw5xK9aQWFZltVY0jYe35M6bsmtiYkLLntS/Q3z104vc1f5B0Rgj5tOKF2RnbpVzlZaR92wqHcCWFg7sR+gxCwzFi84Tb14ixHeWhbWWO61m8LLNfmxlSr48tMvNxo2Zdh50yOdLmYd6eyqpUsoZl9/6rVar733+myKpGi2UPKpvTJzjmXScy7gzvB2uZvRwTPwi+wdrj7LYDz23ApEii03UMoRQyap4j93CeDdDyxUM9wc6cbPdIUo7i0ySWd/XVbeQaI3XnizWd9PXsl0aq4naj9RbMQH78/JfWOeMmkZLMSccKSsW99EBEwyb+GMYtrkY7ciV8Wnj4NjnRYPttOfbhlZuJ/k3Rv2snCLp4hIf55vmkj27Cj4Ce+Ne61lz1b9z/ddkG0xq5PR49keDYd+PvS8Prr83dfms7Yj6z9Zr61w/JCIOE2sZXGgJ98PbmoLt5GpoQD5/Kqg58l04UYRInvSu5N6P9778bey/02MT4JAziMAMZvzxgQtOgcB/kJf98ydtcq3eHz+SV9uOpASIF8U52XNqEZda6Z7joxCVriK8ZZphlnP1tGLErO2k/LHsCXSQ0HKFx9Byrr1i/8Z8XbDxMSpouRsiRIN/NH3FXo6333lR+4J7Sc5UiLFlEjlvLKuy4PuPpd9bG0U3XHaaUosTVnQEhXTClDUmiMb/pj6W+W9ibNTPEx1W7d9Wbuv5JC9sSkUVEJCCLOYZV3PVl0R2+PkJxO+ufw7g11U2SfVCJCqaqQbPkrYY+00xi+9fenSuecMgroUk/PVlr3/02fAK/P8BaLYVTFDiiUvOOk0P2abyEg1SGXfZG9PO6MA9qxtaasXT6mkR3EL8cvp5Nm3kNNSSRIZQYM0xUc7Vu/4o8cLPapNXTo19Xz9uxJi9vEqjxcYMmLQgiJli5V2gq8cMesR4fwEp6cSEDk5TCcfssjBe9rijEW/0KXuLrT3cnoQpLsLbznWTuG7zAFl7FfqZWtIWxqeRkiczCRDYsmpZlnM1qtYL3rA+4NmVbrt1tpyFPu8c/c4koxvUrGPIsQsW+6Fe4jsBE56wtqxGru/cYOchDev45twiiU6TdyyTjXZ0m+Sj/to8vcCr0x5GelQ4atz3mfhP2FQ8PXnX32y35gB58z2ka1sBnwhnYxuLbs1fGfyO+cVs2MHjO3R6qVWg0XTOOZVfIfxUtVd2OnsoqMR71aoPq8UjEWGbZIqKaSn6BSh+OnnKT+PrP1U7U6X4j7GOUAgJxGAmM1Jo4G2XJBAuccH1Cjz1BMLD8YmWMlcg9Zy/EpPPzx96wlXz70go1VWPLRONT5d8PqnvoEjgyUyOBBF0sivyKQGj1u0et3UpHc/a5+4zRGzlSpV0pJvKl77xkfv/n6vcpSMKJtU9t0UIoOtsCxqvT446cJ4q5Of6yxmJdVPqSGJCuoxlGvV0QUnFi68d8GC9GpjdVq16aE1KPPWPiFmg6LYAgtsmTWB61PIAtfzExbZH2Q3m49CpMoamUkW5dlprDg2ZlntNZfZzWDZ9GVfVmlQ5fE0V1jPwCb8Gk+zqHlC1Q1aST6UsufPDRt/37ll+/ojR48fjPL5VX9EdGyePAnXXXfddcULFipYOFfumKIUTVHi/CxGWBQKdZJu7WNZqwnHTJlGDx3dvU2fNsMvNPhr566ZX752hbrsC+IFYF1qN4P5n/84qu6jtduJ9npR/F7DPD6eoJVs0rmoBmftcC3EbFvVg4bwl2Zf0TQ30Qz589ne6YRziQkmFnPss8yn14MhUYjCyd97Spmzs+NxxSyLQZEITlhmBzfr+0nvTFlmx/9vwpAnn23xcvrJeWtCIsvUxfY/C04h0EX2BUeoi3uZ7x3hhsB5tUQtPTHITIKFPbupcIc4DRcfiggOdddClims+3yPeDs4XhYNvncs2xA++LzQ8VYSR3Yc3f182273TlwwduPZQGRbzKaS8WrXVxsOGHXu7AmvPdProdc/GDSeJIrkgLyUoE7+SPZx5oR9jt1VuIVwRhf+WuG/si9wSKdIn0YcB8bvWvXzH991a/8iUnBd6EbH62FJAGI2LIft39voG2p1KVWjS4cFuxMS8p2MjFIkTgLvxjucTuVsQlYYMtxZf3FCloPInC3KkMEPFR8lyApFnjyatGvWt13+GPEcVwNLO0pWbXRd6ZY1tiUVlX0HpSQiyyC/30eG8NvkwwkEY19eLnHLvrNsNRYyRfJRUJepcGo06fP/Gvjj6AKvZizMULt1u57K/aUG74tJIZuCZCosCJyiEaqpumLfEbMiaYIQRc62pCUr5DckymfE0tH5fw5a9cHHr5xS3/cST7XmlZsXHPvV52ujCkbmFadOj+069UqecHNFLKXYqZO+mDxs6lffjPp6wbnLkD5Q/IH4wjcXLl6paqVK5W6p2Oj2yrdU1fJpBYSQ0U2SIjgDgCms16rkJ/1A4EjrR9rc9eWvX26+UFfXzF0zv4InZi9DNoNej/WqOWjkoLkULYLr09NRZbQ8pwlbniCOi4DzspPdQZVY3rgh7KdZaDndrui36ljr2X7HZZSFpvUqg7n3RrqIvMAjIk3MCm/TLInZXi171R44atC3ps+MEMUe2HLOi1NFcip7sdXUvWFtLqMr9tPTFzzcdBbm7BPqSFMW5m7fvbjADByFdZddMoTh1s2bG1KJ48PcW5BL8TnT3+22rtsiuIorCa76ac13vbv3aDl3/Zk7F4tnLJxarXGNh7NUNIHZBcjo0fHcbgadGneq/OH4D7+nCMotMtFx90QREIu1qyO2M4yzcCHx6ohwIN9Jk/wRCm37Y+dvvdq/fD/nEL7QPMfrIBCOBCBmw3HU/sVtLl68dUS15x77yKhy29PbOC2WLyIt3v10LGm2Tu8Bfdpsz657gXcdUXbW5kgRIp/to7jUEN2QlLx90Yf/q/XnT8N3nt6eJp27j7drXPfk38oRCkkBioiKEAHmfHB0Olu3WMyy4OBnKhd6UC2FVF0hNaBSkZRY2vbpjzV+WzbrlOT7tZ5p+1/7/tJv7o9JIY0zoUsm6VwulyWO5YhZ/uHzs2+uaK8XgGYpFB1Q6KaUWD3xszlVtvw6Z9XlnF4DOg5q3uedXlPSkvFnFFxn83F0RIn5Yf8RLzw/oPPIrLbtseqPFa5cpXLDhg82bFmqcqlqjjnOFYohomXfLPmq6sPVH87MeS+nmGUXmtd/HjCnzF0l73W2kR3rqRCm3r66Z7VmTkLDsIwzyLAM8sk+R0xaMplc5c21RLqR6zon/JDYKdbnlqPwdvG54+6CgjM9hMwQ+SOdCgVpvsWegDwbpLOJ2a6Dm/X93/kts/UK1IseNWvUj8UqFasiDIsiT64TrOddl3MCsz+3qTtlitOqd7ninndEWJi7MWGOFZ6RsFOxk2aBe+xsQXB/OeZRuGywXZ636HkquGLQDbxMy2fLQVSiXHJa9D+f3x7wwqCHXx3/X7Y6n7JUyLaYNcns+lTXBu9NfO+M1FycueCjz4bOy3t9/lJskeWCCLKmiMWopQcdC7pXBY9jyTh1mc/NqaxbaX07vuPkti4dujX5/OdPkIIrMzc63hOWBCBmw3LY/t2Nvqtur5plOj0z7WjBvHGHDVMNKqrrZ3oqlzTL7CUWsRnFrM1lZw2LcklRdF3AosOz5vT+7r0n2LftjKN27UdvT2h6S+LJ4hod9qXQCStAmrtRmG6ZdXxlRayKLVNUSKFcRgTlDkZR0tLtnx76btV/V21ZeIp1pU7rtq8ajUq/sT82hXyGI2YN3qIVFmvHJ1hhqxeLb959lSTSTEVYbaOkGEo4oZH+y5aRc0eOeP5yWmUZyMRhE/s/1vmxV0S8lMI5pzKEm5/+bcQCwyD6e8PuxGZtH6iamJjoJOXNxsG5QAOtAnWfbP1E13J3VGgg8qf+vyvHGx36Nur7+RvfZuaUa+atmVehdoV7ud025/QUFRrcJdNFBoD1eOS/td767M25to80y+e4MbCY5fmR5jTriTI3+4XzTydVlUir5VnpdKK9m/euX/37+oUb1q1PPLR3/7ajx48myYqs5kmIz3t9sSKlb7/jziq3Vrq1mpJXLZzWdxZ73CUOSDR00jjCKKPXx2mWXvGi+B0vwpzoKhEAlgkx+96LI57uPPD5z5zqJm4L2NJssqB1ijqwJZUZiznsWeo9P1jPWm0S7d/8z5+/rUhctHnT5hX7du7aevTwiZM+v0+OzxOf//qbri9X+c7bq1WsfPs9Spwcx8MlAjB5jcAFFRRFCGm2vAqTpsHWYfYv5sg7d3hNopR9wW1Txk99f/ak6VO+/vPrfafPl4sRs73b975v8OjBpwQf1ixeM2LE2I/mlK9WpiZb4AOhIPmj/GK0g6EgRfk0MkImqZpGJmfsUJziGMJbluemWx7bOmQd69Ol54ODpw27YIW7zNwDeA8I5FQCELM5dWTQrnMSqETPanmeq9Y2773/+eif+ChK8qkZgrjSxZHnI5rRrYCFgXhWug9mtoBl/7BI0myRKD7mmE5RW/Yu3DJ6fJM//nj32LnOWa/l0y/G/KfE2/uKSnSATopALXaTYKHJW5RsoTXYdUF2AlDiQn6KP6mQb9uJ1X9/v6rxul/n7Tr93Pc91bZfqHHJvntzpZBkh4Sbgth0FV0TETVC4HrCyxEIKvl1jeICUeT760Ti4WmLmy5d/VOWy3hmld28cT+MufexOq2ddJ7snpGeK+pUI60b9WQQrVu24bsK/ynXMKvXOtf7h3Yc2vDxVo8NzxUTJ7Vo1qL67L9mZyp7wx/z/ph3S+1bsiVmX2rS5e63572/5FxtWj5l5ZQ7G93RnCKJTlrJpHG0FqdSYzHLfs9ePlXX95c9Rfnw2UShFENErvMwb1y55beZU2YM/WX5T9/PWT5HZNM41/FkpWaFqt1fq+nDLR/unK94wTKGHiI10icWU8nBZIr0R4qPOndUepGE9HA04aci2sl5kdkIymK2b9fBzd44j2W2SakmsZ9P/3JRfPHoiiLXLV+XK1hJRMGQTj6/E+TlHZ4nCltoRSU/RSYrJUh/b9z1+7gR4wdv3bTjp3Erxp1Sce/0Pj9z3zOlHmjWpG2d++u2icofneB0Smx/kG6ERBCkWBoI11M3Ui5EFDwaPDR76uxPvpry1QeTFk/aey6W2RazTgBYg3emvHOKmF0wcdln/3mwyjOcYkuLdu6RkMi/rKW5f4vsHuw6xL7OZpA0xSneyxZ2mc37SWborZ4DW/X65LVJl+rewXlAIKcSgJjNqSODdp2XQKVKz2p5atTsmrdejTcPR/o03j43OE+pJIufNE9Ud4aLGgSutVPkE3ffYImiBekZiLxyt3zx9MphGYKn3FaxG4BqWeS3dMpvy6Rv3LE4ccyUx7eufPsMsXl6R+7r1KFvoHKBfoECfjJDOnEbuHiCuKb7GLckmfy6SnmCGqm7kldvnL6kxZbFP591m7Bey3b9qVGpVzibgSEHOBmXEMmq6yDLwV7e+TnlkGbK5DNUig0qZG8/sXL3Dxtarvl51qYrMeWWfL1sStVGVZrbmkU66SIIyzG6Of1Pj7CXHautSXRg68HtL3bqWuvLn748w3Uju21uXPLxvEWuiy828ueRv5++ZXyuc6ZbZt18xrwoyKRl9nxitt2dT5UcNfvzpZRAuXXZIFthuyznDuWQKrcwgGf5FW4oGYoUOF4uZByzU78YN2Hg159Ne2/WpllefuNM4WlYoWFCm+da93zwyYdfct0QxJZ8QAgkx2yaseLXKWJWWIPZMuskx5L+P5nG610HNTtf0YTBzw19rOfQ7l+KTGCs2T1XWK7Wp8kiIp+tp2lBbcLq7LqxsnI7YQWnTJ40eMLoSUNmZ8jqkZnOvty8662tO7R9v2z1cnc7uVoNJ72Vwj7mEtkmW4ElSj4QSFm19LfJoz8aPWzMj2M2XOjcFyNmu7fufv/fE//+yStW8tXwmX2bdWjST7ARfAynMAx/TwnPCa4j7LheBPhPlb2FncRlQvayr1IyWV98NLrHk70vHNh4ob7hdRAIBwIQs+EwSmjjWQmULdvcV7DSPU3zVK74Vkzpm2446pPouCSR6eNobJm/70VVMKeYFgfHyOSTFTJ1gyzDJNWnUVBsvztxH14qLK+gAn+OPRE50Mfi1tEAACAASURBVILzwfLWK5+MS+hy8YGo5CDlPZ5KexcteufIil8GLF36WaZTWt3WtOnD19e85b1QgcjCwShZ5Mplf0UO4ImSNYoIyBR53KCDyzePTFm7Z+Dy5XPOWpmKMyUk3F5lYGTNm7sfzm3QUfMIKZpFcZZMSsgm02Ahq5EeEUmGJVOkrlA+iqSIf5Ipad3Oj/YuWD543bqVFxTgl2oK/vH92mkVqpd7SIphwWaJ7KZ8OGLWibP30vPzI1pUC7AVWjzjl9n/G/Fp+wkLJ5yxxXup2nah86ydu2Ze+VoV7hXGUjeQkEOpxJfoOdwMTPZZDpH14oPP13j3+w+Xnu0an/YZ1alNn3YfkF9UhOVsTcL5RLj28q5xSCfJx5E/XEiDs19wOWJOHkyksrhLoqP9e/Xv8Nrnr025UB/O9/qAp15v2mfwa6MohvJTlBskL+rEcby8k+M1bZWY4cnBY5aWDktnMTugWb+Rr56zAtjKuYmz7qhxe2Mv9ZjYQvAszy5Kx6vVcaHge9XHb2Ynk2N0fPBrg9v3/rT35Oz2lS3Dbw59c1z5OuWbMnOROoTBO/7r9oZf13//8XujBrz/7bkt6adfO1tiVuTMI7P7090bDJ84nC2z9uvPDWj52vA+nwkPX7413Hg253r8Ac9C7twvITIpRDrf0U5RBC53IpM9b/y8D+p3qN85u4zwORAINwIQs+E2YmjvKQSKFGkematQ/hujyhevEVuieOPogoVLkN8frxuWbNuSwuWMJI4cMS1btjhlj6zIkqTYtq1JsqyFJEMIBk5hxfYOg7MBCXObZCkcM2WYpiLLhqnYlq3IrFx0KxRMNQ4nHbQPHFu4Z3HitJjAsdWJiaOy7M95U+V7iiaULVJLyZ/r0ei88Tf7InzxpmmHAkdO7k7ec+gHc+eJWRF/Bzcu33L+7eL7H2rfzV+xyPBAHunEMTk5JMmmFG1YpOq2qMWeaskU8Gm2bkq6fjh5l7k36Sd566FvaNu2tYnbEkX6sCt1zP70u7GNWjVoFbRDpGpsd3QFkhthzgLGU0xesiUhNEJE/2zcs3HWlFnDf/l20Vdfrv3y6JVqs3ed9XPXzCtbs8K9bLX0KnJdSMxatkoyi9kHzi1ml01ZMr1K06oPeOdlAixkhZVNaHsu2+aUZ+bFGUc32bpKXImYUik4vMfwNt3/1/2LS8HjtYdeq//6e69PonwUb8km2SINGbfFqY7lpkFwVJ/79HAC1dzcXwbR611ff7DfyH5nFbOt72td/J1P3lkdXzA+l1CqolQuF+9g3+D0vMBchJUDtdhpWgjZgCzyvb7b8902L3704kX3tUWJFrn6fvTa1zf/p2QdVyPae9bvWjV25JiBr3zS9+vMWus95tkWsylkvvpi73oDPh38U7vm7f7zv1EfTyOV8ko+SZTa9VLmetdJf2A73EJkOAZuLmvMCwKdaPWcP2a8+sJrLWbvTc9FfSnmBs4BAjmZAMRsTh4dtC1TBDgyepukRGn+SFWOiYomsn2qrUpRil8OWIasqJJs25YUClmSqiqSpUiyrUiyZXHYiiWeGf4gFzK3dUuWTFO2LEPWLMW0rAhZsywjZCa7yWxlWbMiKVWXj4RSQlYgkHhpHhhS1apVI0wzKio5WbVtOxjasGHByUx13s1jG5dSrHCyYgQMv23yHnN8coptWqZkWZGSGWVKiqLYspxqHz5MJ3fsWMCb02cL58nsJbP9vonvTB782HOP9BTWTY5e96LdvG8iN/jNuwDnDGVfSZ/mRPVbSbZ9/OiJbWt+X/PTnG/nTP9z7bbVs1ad25cx2w09ywfXz10zv2zNCnVZdAoLqVtd6XyWWRFQHySrc6NO1Uf8MHLZ6adtXq557s9nf74+skhkQWYSJFPkSPWErOSWixVmQ8GG/TplkgwnsG/6h9OHNuvWrMel7OeI7iPaPP/m8yMt2dRYzPLhJr66aDE7/OXhrbu92W1MWqUv4V7DA3t2MeuIeoXopEwzxkx/+8HOzV66VH1tVa3VTaMmjvrFli1j3JjxQ6ZNm/Z5dks5Z0vM8h2YQsZz7Z6rtWfPnp2fjR29OE+R3EW97BKc6cT18jibQdwprMKSnxeuXNHPINq+YvvSLm27NMmsH/ilYonzgMDVJgAxe7VHANe/HATEvK5JNZXIEpFK6vEYze9P8tl6lCqZKYpua7LhV2RZCtlyQLFVNaQruhKYc2QO68CrIvIuB4SceM53u737ZJc3uoznQCdxeFHq3t/P0mh+qHOEOWciOmV0TLKTd6fs2rT2zzUrlq/8afXq1fMPrz68deru81fyyi4XUTShFhdNcMQs+ymmfYGew81AiNkAWV2bPl/tvXkfLj/92l2adLnn3cnv/kBcQVUjClqOn6qo3ublnOIll82FEIQpU6TfYv23Y/Wu9d2e7PKf6Runnzf4KRv9lTYsXj+/zF1l63C2DseN4DTLbIZFR1Yssz9+Mf+L2o/UfSJt3FVOT+CW5c2QeswUqclMYjGv2D46/Nf+DR0fbnX31LPkeM1G/9I+0rlh5/L7/tmXNDVx6t8Xc55si9kA6f1f7f980webNq94Z8W6ZsAgJcr1YzmtaIaH55R2Oq4K4jiy9cimLm27NJqwdMKWi+kLPgsC4UgAYjYcRw1tzjKBSlRJi813o18JHPH7I/yaaUdINuerouTkefvnsacZjitA4IlqTxT7YvYXf9iaGS9xlPbZvoEyLCd0wxGxbMANsaXKTX4Qsg2K5MSprIUczwRRL2LPzn0b1/2xZuGyxct+2rhu45LzRaBntbsZxaxIgyQyRHjRS+6foj+utVE06/xidsR/P3rh+b4d3/f8CjgsjreN2bUirUiAiFh3zslFASQO7LOI3u/7Qccug1/4X1b7kZn3z50094t6D9V7wuYAqbQAsAxuBq5biHDQzOhm8P8G5Ne7nN3NoGbNmurY4WOXF6tQ7HbHxYAXM2cXs6JiHV+Zq3nZGn3c/6OuHd547r3MtP1qvCdbYpZrJpwIUsrJlF3x8fFFZeE34izwdJ1zaLvVHDLcI6dk/OB/cAFm9i7Yrx/o1a1X07e/fvsM6//V4IFrgsCVJgAxe6WJ43qXjUCzqPqFcvki/RGBAOkUsvl7Xo2U7VQKkGb7OIuWKlmqZlmyL+hTLF0xDu88dOhQIp0/f2kDauCPjDqZWzO1qGjyqZLfNpNVO2gqoaNTD2beHeBsHedk+dtom3yeNkj9Mki+fo5tMqytxytnrfzqjnp3NEtzDGUzpGfZPL1nLOS4cpVbotORdOlb/AqXEmZTacZvMj6HQRQ6Fvrn95Wrf/1p3k9fLVqS+POci6x+lFHMOtv+Tm5VcZzPMhskq1vTzlXfmTtixelzYNYn373fuGWDF0TeW5FLjQWyI2bdmqtisB0xy8KOxSxRyp7k3U8+0bLS9CXTD1yOG2rhzIWTazSo8Qhprk+rpz6d0mFpVbTSxKznLnIeMdv2nrY3vPflu4uiCkU7uW0FOqd6lwgAy2CZ9VLmcUaLk/8cP9CyWesqM5bN2HE5+nopzpkdMSu6m3G+ZzC9GrpOKgf9pR3OPDtFzPJYcI62JAoMeW1Iy54f95x2KfqCc4BAOBKAmA3HUUObTyHwLFXS/DHxN+dXo0vnUSPvirIpn2Trtk+RrFTZsgNmSPKpmo8sOcrQbb/l90Ufkox9W44d7TEu9fy5VZtTzZgC0eoNhbXIW3Mr/noRslbAICtpr5265JBu/nJSU/4afShrqZC8xtckUvNVSoi+Pia62nX58lSKj44qwPlFuahRyNIpZOosv8lWZDJt2xalPi1LUjglGD/7FZIMJSTyo9uWLHFMG6sMkaZHtUiWZDJCKbZky7aixlAwoKQcOmBt2H/IXjryt9+uSCqus03Vbs261Ro+cuhcSpA1To1kS6YTXJSmSLlzGUqXZtxfzeBb61SIcvPokkyWYQt3BFV1q2a5Rj/WACl7Qtt++eHnb76b9c1nH3z3wdrs3EJr5q35oUKtCnXc/EeXRMwumLlk6t0Nqz7M1VxZ2FmcS1Q4x/IvOI+o5JQhdlOA+ZiLQfTbdyu+r/xAlQbZ6UdmPvPjl/Mn125e9xGuqywCtM4Qs245WG6j7epSR3Wf0zLbpXGXyu9OeGcRxUo+Z6g9C/aZYtZNkkykS7Typ6WzurTt/tjS3Ut5fZojj+yKWYtzQvN9qutORS9xWCTKCXvbEBl6LLJYuORE5d1ksiYMGdet5YBWOdZqnSMHDI265ghAzF5zQ/rv6lCn3PcUvSE2d48bo3I/mVvW4qMNm3xc9pHr1LMPom2KLWp+UFgmPzRsCkVF0rbQSXPh7t2F/3dy3jktW63iqt10W0KRPtdpUY8XUCMjojk/q0lkqhId0Sw6Khm070Tykt3JJ/r/czBpwVhaEMgkfal52bLRd1WL6l/jzuufzp+gxcVFRxEZQbKDIWJhIyoUsbzhSHZVE5WQ2G+SkzKJqpyGRSErSHKkTEHTIpOVreYniSsnmSbZ/BpHgmsKcdlPSfaTacaQocdRINlHm9bvn7d02abBm39J/HWql5Qok42/FG9bOvnXsXc1vrsV+dk51K3pe8qJna8mrmwltttZxLHPgeoGCvFHhE+hSaatkyKKDPDh7l979msvOQILWz7lMUr64bt5kyZ+Ofmt0T+O3paVvpwiZm1O08afdq1n57PMhthntutd733/3srTr7dkXuLcu+69vZ7ze51sT8RYPAlkkcTfTbcr8qFGcEL/INGEt8f2a9nn6dez0v6svHfh1IWTazSt8YgoQCa5YvY0s6Dzz8yL2e4Pdq89dPLQH23VSfTsuCe41u0Mqbkcy6+bcdiUaezwT/t/3vOLNxbQgvTlSVY6cwXeu3jGwinVGtdozoVPuJJYWi0Wt+ww381OarN0dxQnCZ3zH6di0w1dLGS4hK/Yf7D4vvXmtdOJU8SsQdY3o74Z1vi5xj2vQBdxCRDI0QQgZnP08KBx5yPwRkL9uysVKfi/uJBeNtaUKYItRCKRPScmMMlkoSOsWjZpkp/Y0KnIfjqpqrRT1g8u/vOvYu/Q0lR2I5hDc9z0884V++Sue9dteQt8eb0ceUOkztYyp/qQxslrWWSy9VQhCmoSHZVle+3hE/1X2SeGjL+w/63UsUqpCm2frjDlusKhUoZ1kiQKiYc6Fzvg62RMSs9WOe8BxtcV5UttJ/CILbS8DcvWu5CsimIRlqSIrUtFvIffy8nWuboYn5kfphrJtkqKyeI+N82eu+W1r389OmTOli2n9P9yz7wHKz6Yf+TYEXMLlL/uVrFvrnKPnFy+mqqKB3zQCJJPUUn1chQZ/Ph3o2I8ay2bp0SwUHpeJyc7qeuS6SiGdKQcLCMTndh1dPf4MRPeeG5Q508y29eLErP3P3fXez9+dIqYbV62ue+VT9+YX65q6XvYQsfzQOVVDB8sZlnJqorYSfZ6xxW/2E9yWPe3Wr48steXl6v88K9Tfp1y9wN3Nz+rmE1Lo+YEqWXWMtv/mf5NXvnwlZkUwcPB1ngvgC5DhTNnkqcHBppEw3oPevbbYfPGXIti1nTdSvheNQ2dfG4JYfEdo+ui3K4om+zOCy4oocgK6ZZNW1dvXtipWft6C3ZkehGd2amO94FA2BGAmA27IUODmcDAvI3/UzY+flJh2SqYK6RTpOXUxuFKVybnrmQRx5uzskK2bZNP8hHXPFDlCDqhqrRd0Xct2rSvzDCal9Igd4PYOUfSc7n2KdLozopqzPTS/tjCMYEQ+SxDlOv0xKSoDOaWoOW/JGs+2mVptDlovLVm9/E3RtG58zu+dPdtZVs+UmZx0UIH4m3pH8eFwC2t6VipTjc+cSUsT5p5Y+8IONZxorynLVOIa8wLu60jhvj3LHqdABvmkK7oHCHMrgu56GSwAP3885G35nx85LWptMGrknpFJlnre1rfPGDEm19dV6ZwBbGzzt3ycWsN8Z8omuAWJXCLEIsyvM4KRZRDIlLYd9WJt/c2vlncu7WQThW1zCrAlmCuFexEgS+aveizV3u9+nxmBMGpYtZ0y8ZlwmeWLbNnE7NFmkf2/WrAD6XvLFnNmVu8qGEQbI5lP2BnRjgLMufw8y90otfbvPrg+gmbZntVoy71gJ0hZj2Lois22fXACwzLrJgd1G7AQ70+7DONtxa8IhnOA+i0cr1upgQx71Nse3jfYS26D+/BRRK8AnGXursXfb7sWmZ5nvPc1kNB8vs08b3FbgcpyckUFR3ttMt2Q+wkSVRHYzHLII7tPf7P4O6DWwybOPini+4ATgACYU4AYjbMB/Df2PwOeWpfVzOhyPclo2LK+5NPUJRhkt/VgEFX65DwPWRrlyNmNclHli6TKkXQcU2hraqx68dDf1XccyxfysF85FtwcKrI69o1qn6hGoWK/HiDElEmt2WSHEwV2/WmqLzklJRktwX+UzOJInSTLFWl5Kho2iUptOzgsXZ9Dk3mCj5nBGk1v/HGuOefKbesWuXo0nrqFjKsE2SwxVikXGLrKas5z5ToiFjFkpyyrl6gkUhW75XX5Vrtjv7kGknCAcH1tZRF/zmhepBI/v+yTCI6nD+siQh7/tOUNIqITqCjRxPoy3G7W/SZvZQtfVf0aF71qes6d3vh/RoN3YAw/kYSO+k679YKYetZ8DjfqFOJyik7mh7t7waQiSB/m/2LhTVL2OgtUzz8WSkrzDnjqDg5+WnxN8umv9G/b8sL5RhdPW/dDxVrlasjjMOcCCMTAWCiaIJOVrcmZwaAsWW232cD55WuUuI/3FdWqU5eWTcAjEWL62Yg6nDZFvlZhetEr3Xq83j/zwZyxa/LIvAWTl00uUbT6uluBpdAzA54ekDTPh/3meGJ2bQsCKIkbsbAMmbhbsuHiN55ddgzS4esGHe5hPulmPDZFbOm8Pt2XAlEWV1ZFm5CbJH1/nRec8rXuvXmxNyWdKKknSd2vvhs16ajfx69+lL0A+cAgXAlADEbriP3L233C9TAf8NNud6sFJHwUu5AkKIsk/ymRarhbDSnaBwIbpNq2kJrCLcDtmDKGpkhmRQ5go77ZNqs6nt+3f/XrX/Fxqac0CNkOngwkI/y2XVy28NuSyjQNZ9pkspCVnEClIRgZKuv0BmONY7FbFTQ2RMN+CU6GuWjjUFr86K9++p/EJi3PeMQcWqwdk8mvPnEI/lfDgbWkCKFyOfzkW6y9U0WllMWnMLnzj1ki0vxsqh1rX+uz5zjNsCiloWeZ7NjwcYi1bHMOrXaQ87rLHiFjyJvZrL1ViWTNHG9QOg4xcaWot3bi20fOuznW7/YsiXpSk8tzuhQu3ejti2eebx37HVaMa8mfcDUSVW5zU5OV/5PJNC32fIukcoilVcVjhJ0jgz5Tw22zhtcaYxTBXAhLYNUhe33jjgwQlwhjct5EX0/bs6oBu3vb3++vqeJWUYszJGZTM11nmwGf/y07vvy1cvVV0QTeUXmjL+t2ySpPtEfFrIcAMYWPI0HXicaNWhU7/b92g++XGN1OcTsay3+W+f1z978gTRxY6br8NPErDOjLac6nE40evjo19r0bjMgJ2fxyI6YdQba+TGCOqkRTgCYaTnuBeJld2HmjbP4rnCtt8Iv1yA69NehNU8/+fT936z+Zs/lmg84LwjkdAIQszl9hNC+Uwh0jb+v+N3Fi/9yfUro+tiUVIpSZNIMm4OuhdBMZTErcXlaNvDZ4mHAwocDhzh+SIhZTaFNvtC+H3ZurrQ+yjpJlIcKH/IHC0Qdy9u4YPHfbrS1QlGBFFLtEOmcmsgtecun4XOz/ynv2rPvqWRGioCtgJVEQT/R8Zg4+mXP7ud6Hv7+o4wNb128ePxL3aptL3bDvviguYtMKUaczG9zWIjn18ouEo4FWOgyIWT5Fk1Py8PX5oTyrOH4EG1w3R5YtXtaOO13aTkCHAHMQlhEx7OfhMRb+UEKBXNRRERl+njU7636zFw17mpNuWYVWxR56MlmTzVoXK9FQtGYspyuShgq3bKeJvuVCourI2ydfKysZSUxzoIZLzRcNo7zgUT8OaGdWCKlnSOdq/DECJH91osDn+w1qs85rdOr5234oWKtMiKbgZNnNoOZN5tFE5bNWDmlyv13CN9UHo+0zAHsH8zln1i7mgZJijMHOMesYku05JtlX1V/sOrDl2usfpm6cPI9D9R4RPRVzKv0BZWzYPDyz6pn+Mz2/b/2zgTOpvr94885526zMNbITosQJdGCQsoSWWqk7fdTipS1pGQnSpZkJ0oSalC0kKWk6JeSX/VL0mLfjW3M3O0s///zPefcucbEmITO+dxeJcy95zzv59x7P+f5Pt/P02tQ66GThi7OeW69W/W+YdTbo76kRPKY/OK+fiyU4hqNF7Mhoq+XfT1vTL8xHdI2pZ3XNpizYZtvMasSacEoKYn8wZXdAqPyjZfHY1279vvfGhvMgpert/Yu0SjRz9/+vLxn155tz7S6cDYx4WdB4J9EAGL2n5QtnCs9X7Bpk9sqVlxW+EgGXcLCRVWJJ82KHlCZKFOMGiUK6PylzxU8np5kkOH1UkQ1N4CJyqw3vG/5vp21d1PC8aAS1IsfPBC5rEjZlvdcetWC4sezRFWWC3pBOSKqplyF5S9a1dpZ7xW75LlPNUCyRyJVPUpRj07RAgXp28Ppiz7cfejBNMq2EhrY8Mrbune6fqXh20xKIIuiUkEKBTVKkrh9kx0XbEFrthmYc+9tMRu3i1mIaWtlWYhd3tBl7uqP3+kk6sUGi257NzT/iWH2E0uqmGDF4inRK1FmJpHsvYzWf6u/t2Ho0nsG/01L13m9fJuUaVKkXtNbG9x+5+3tatSsUSuhsO8ySjC1a7yDl12hsl+Xd3/HBK01R4GfFImaVXCzT1PcOojlexa5JHvIz6zCREe3HNr0SLv2t7y3eVWuE7XyLWaDpPdsnfsEsA9f+3j8nR2adRN78yRNOFaYbRGis1nEo3JLg8wVap1klVtlZDr466E/Hm3d8dolv+TPFu5Mufg7xGzHBh0vnzRv4pf+SwIlxE1KvI2q1WYgeoQtOStaSiJEWbuytt7X/L56S35ZsudM532h/j5fYpYrshnR0Mcffjzzzjub368keQvHNr+xqOcbL2sVSFwHLHBla0MYX8D2zYDVav/FB2tnDZzY/7HVqy9e14cLlR8c1/kEIGadn2NHRfhySrN765UtPz/l2DEq6vVRmHd1WUv+LGazvJJYqk9QJVGdlQzuumQxq1BE00XvbIZHod+9kX1rtu+ssz8h6VhECepJB0mtfGnhEU1TyvQqciJIRjRISoJEWTK3GegUED25MkVkmWRDIq/mEU4BLA6FyJCJwpJOmkemXyLadx8eOXb7zOOfHOZnpRIpTf9VY8A9La8YpHr3UVA7RrLPbw4COGmjFnfEndxqa+/3jlXGYlVb8+d4IhSLd13WLNcCszrLAtf8V3grkS42E1kVHmG1ZP6cpOpkKAHSPQVox65LNo4cvqtu2kXk55laNbVk5asrX31N7WvqXVWzWsMKV5SrmFwoqST5yctaT9VzmMvHtR0IayOxE9z6mOMqJ8+x95ieEdZeKmF15uHLKEL06jNjH+o55ek5ub1pvv9k04oajao0ZqScvDxXZoOkP31397pjl044ZTrThOcn9eg66IlxpmsA+25wHzRviGJrLrNngq9nvvkwe0z5BkUiyiB91NCx9/cZ+zRvjDrnjzVpa+bWb13/vjNXZk0fDn5PWNMd6M8qs9wjPOrtMevL1yh7jRCz8dbCIk57mJt5UyLELL/vQmRM7DPxX92mdMs1L+c8+Hy8YH7FLEVIe+rx7g0vKVXqsuf6Pfc6+c11haiqktfPa0umGwtvhhTilt/T/GFjidlQNEh+XwIZQVG1Nd6buXhE226t++cjBDwFBP7RBCBm/9Hpc9/Jjy7Y/KGG5cvPLpyRQb5IhDSP+YHPPo38FRhW2CrIIB8PGOCqrNj4ZAgDchaziuyjDK9EWxV132fbt9+wNck4kqIk6cr+iHZ9pVIzbpYKPFA8qpOhBUnz6BRmRcy7yC0xG+X1aoP9ZmVR+WUlFIycoEAgIDZyBTWNdnv9vy3ZeaDhhODSXfzcWrVqebtUy5qU2rbKYyFKJ5IzSWcRxsuImi1euSfSFJk55vyYSeYqrFWxEvKBj23KWVNQxzanWUJAWHla/baWfRe/BgsGIWL5mbpMiuSlMC/VBwK0e2+RzeOGH6s56yK2+rmrZvtSV11Vulrlq6vWqHRVpeuvqVW9dnLB5FLeZD/Xbs1HvLUTCyauzHNVnYWs1ywHRtluzcs1cbP+6WFjMp1o8+qfP6zSvGrL04lZ8QTRM5vHNoPTiNn+D/ZvMGzysBUUII8paM2djEIgmv0MIh6zb9gsTuuqWaD+5ast6x6/u3OT1X9xCl1usX6WtjqtQetb7xGxmkX97IfVZmCi5jYDq2XAqhD+mZjln/9u2X8X1Gx4zd0igJMtVMUhzKvfdN5Q2J+EbzI0ot3f7P6mS/suDT7Y8+dOIfn5NOSbpWOeYxl/dXk+X2JWfGCR8UynXo1Gzxm3+uO3Pp7c7J5mXQQb7jpgIMJeOUp+27LLeu+KsXg8UIU9W3SerWL2fvNI59dentm907BHT2pzyg8bPAcE/kkEIGb/SdnCudILBW97oPkVVeYk791LRRUfhWXesW4KTLEsb61d8s5gVYqS5jerdwmyl3RdpqCqU7BAMv2qZe1cd3D3zUe9viNHFb9RdE+Gfl254rMaBorem5KZRQZXOmXNss0i8pj+WaSJSp9huQxY2omX7rnEwsU9JZG2ycqO9w/tu3Xq0WVi/GYDauBJfez46JbNK/bwsphVj1BiokShcBZJSqJ57qLiaovZHGMubdlqCQqzemtuGOPTMp0K7J7GbGN2QUSWyRC9eBLJkiKM2MUQBUkirxIgWfUIvwDd56Xftyb8MHf8F0ILbAAAIABJREFU73UmnGfP2b9yWaeWSU0oVKVQ5do31Lq1Vu1rb7nuxjoNqIBUJDYqV/DJ7puwKcV/8In+Q36CRpT+65Ftj3TuUGPJ2lOX77//5McVNRpe3dhc/WdVwXcBebDmCpPeq3XXeuOWTfoqZ6zst7vgk4U/yYWkYtwjrPKOJ6ulgMWc2AR1ii+GJTCjZMx5YVavh4Y+fE6nP3Vo3uHaGXNfX6okSCVtW9+Y24BQsMIzQpyEsEoTjgtmCweLz6HdhrYeNG3QKT2z/NTJz07v1mXIY+PNyR9mV3P2w75By75REysSluvE+MFTnu4x8omxf+V6iX9u62tbFxr/+vhVWeHM0OzX3uo/4vURn+X3tdct/uKdm1rUa3c2QxOEZj9BRr8n+zUZMWfEiibVmhSZNGXy4stqVarHXrz8iaLIZoe4WIHhja7cOy3KtRqRwhe22N1KuiaRzL9ny8AgZT7T/fn7x77+4pL8xoPngcA/jQDE7D8tYy4/38FF7rjn9gqV0orsTyduMGPr9Shb1oglWQ95uNoonJoM0jwaRTwaaVrUqqx6KOrx0/HkBNoYPv7NZwd2NDkUSIz4LTFbs1yxNxsFirRLyQyRoXBfabbrkWS5BIitP2JorGkHxRu0JJlFaIh4fk9UTqZtsnd32qEd9WccizkaSP1bXdHh8c51X/dru4iiB8kjmRs8QprpO2Cup9ptBqYwELrBbJ6N/Z5bG2z7LnOggtVeaTZdnmThJazpdVVUzkSTgSyTopjTxPj0+XtQCxuk+JNIDhSl735QV0/r80njCzER7Fxd1ql1Uiu2f6jdw23ua9NdSlFSzGXyXMSsLRA5x7zZivtUNaJoun6860Nd6k1fOf2Ukbffr/hhRY1bqzc2U2P5zJ6dmOU2g1Ok6eZVWz6qfMMVzVnA8PkG9aA10YzN1nxmumPnazs26CTpMul7o4ef69mv9agFo744FwzvuuGuEuNfm/RhmUplrlcScrxirPItGnfMOjH3ZHP/sWL6pUoRmYZ2/3Mx+0TjnlUmLXhlIxUgf0QNkdfHQVs3hTGXMfN9J65a3XQY5r+KphuH+3TrkzoubfQ58VVdl/bVrJta3/hvUXkOUXj96m8Wz5s6d+S4D8d9d7Ys8y1mI6T3e6Rf03Xz1n3GQyEevOnBy8fPnLiq8BUp5bjThDfaibYTXrfRiUKhCCUl+qwStvX5pKlEPh+pmrl9kO8TQke0fc883qP1pIWTvj7bWPDzIPBPJAAx+0/MmovPuV/K7dfXLVduXZlQxJscCpOXN7Qrkmgv0Hj5P2r2ynp13ZyAKkeFv2iCyo5OHgr7E2ivV6EvwukT/rNjU+9Qqcs8RX0Zeua2sFSvXOlZZyVmxTcu+53y7jCVux2FmN0qe/csOHSk3oxjaTF7rkdql6v0dM/6vxdK2EqKnk4+OUG0GEgexVxaFlU+sz/X/KYyK6y8wcusOttrstbfiw1fpoA3fzburRzzqtVJVszeThbfqhqxloS5DinmpIn+0Ug0gXSpEi1fcXjUvyd91scJl1eve7vdMXLS2PneQp7COfGYNwn2yFS+KWGO3IBrzhft/e/nGo55d+SanBxOErMiX3bjp3kdmHcflvKyhBnboEnZldlcxeyMIW/06PhUh3G2mNWEqwELE0vM2i9pv741gUtULcNEkUPhnU926tpuxtIZp/Tknk0u72/UsfzQkf3nXlalws3EQjb+28FqdzBj5DOzHE/FBkPeWMhX/5nFLD9982e/raxc9zLTr/eUY5xsmysELb+9IkTsVhXcG9rRu9vTD0z+YPKXZxNbzp9dOWv1q7e1vbUbBU46AzKOGcc/WbJ01lsz3x47d93c7Xk9Rr7ELFdRjxnGoB4D7/DMfuFTe+Nlv/sH39J/VL+PAiU8yXxTzp8NIVUln8cU/qLV2B7PLG6q+O7aHLDBj3DQoIBHor2/HPy5T7en7pqzes5veY0DPwcC/1QCELP/1My59Ly7FbmhYK2ily2q6k++rUAoi7zRMHn4O52X2iSZvJaYtTd/8ZcBCzePKpGu+OmEL0C/auHo6syDN/1+KPG/VIZ8JwIn9OTfjsr1y5V5o2Gg8L15rsxa1SOxEciIiuV6jSuzkm9fWvrhm+PF7EMlSiS1eaTmooYN/HcYkR2m5YKwijJ9bIWbqlWdtZ0MWKhyT6IQsjGxFCdm2dZLZ/+qHG9jW8yya4GukSTbm5V4vC33FEuiHYMrz7LHoKxQIYpGq9PYUauqj//29/+dj0srtWpqcv07GrT6bvWKj2b99/2jf8cxF7/+wYS7HmzR1e77tDEJWpaY5coXd6dakxrEnz/7cL/GL88fseoUMXtSm8FZTAALk9arddf645ZNylXMdmzQ8eoZ82d8TilUhHcEGl7TV9bc8MWNBvYUOOuMLDFr6kreDESUlR7ZO3L4S08PnTBoXn5YDnl0SKtuz3QfXbhCocsFL35PhSLkD5gevTnbDGK17nyI2TFPjev81Is9poiRfbl9A8WtiNhtCOKStgw7wvtD+18ePrL3wGmDz3pDGLd19B3e99Xa9Wvfm6tDRpjfEzKFDoR2vz///cnvznh32nub38vV3SKec37FLEXJ6Nul7x0vvf7SyvjXm9xvWqcu/TtNM9/+Ypah1ZIhk6pqFOCVBHEBcMdBhBQPu3UQRSI6+T0yaUEixUP0+/rf1vXt0b112salB/NzXeA5IPBPIQAx+0/JFM4zRmBI0RZtrruk5MKyXkXyZRyhgG6a1xs8ZECSRCVW7M0xNNFyIDZJ6ZKoyh70B+i7jPQZn+3Rn7S+HpWDdFC/slSGr5r3spmN/IXa51XMmiNUTascbjPgyVOazD2znoNph47fEC9m+SwG3F7z1o6PVFldoMBeysraRYmJ1kYi4UrAr2UuJ5pf4GYfsPDIjbUSmBu9zH5NVTyHN3GJneQ5ew8tD1QW2qrKZRyZvF6v2ACnqRJFVE1sMIkYUSpU+Br6ZGlw5uSxhx/npc7zcan1aden4cgZI1dtWb/l6xmzZvQZNefcLJPHn/trw197+tHej442x97mXgXUuEfVHEdgbjZSSe31YJ8G4xaNWntaMWtXZm3up6/MnlbM8nH++9GPH15z29V3sniJsDjxyULAcN+sELM5TsbcJGVe25FwVIxCVTMN7Yvln89/+813xsxcMnVjXvL4TNtn6ra5/54nb2peJ5VlE9uVKQmyaQNlTaaKiVn7BWPVZ6siLa77vFdm76t1X7EZC6d9m1iiQHmxJh4fXKyVwYzP9Ag2vWwjwTAFfH570IC+9uMv58+e+taY6Z9MP2NbQIOqDZJb3NWqfYeO/3qmaOkiV3C6Y3stvUThcIR8PLRAMkjjjYKSRwxs2LNpz88L5i4euWzxB/OX/raUtwnm+siXmBUBEvXu0PuOMXPGrMj5wmkT3xt/T6fW3XQjSpLP3KwYVKOU4PGbU5yttz2/v83NpBrJbN3FL8T4guY92o9rfnyve5Pu7c7Xezsv1x1+BgTONQGI2XNNFK/3txMYTA08hUpf8lK1IoWfvkTNohRVIyXKS5GmryzxjnWJrWxUdpwnrz+RIh4vHZYV+iUa+s/Gg/tajT6x/EAt6uQl2sD/qJ1K1UqoplR6rVFC4fvPTsyaPaiSESKN/5ED3DOb/l764eunHn1fbACzH7wR7O72mQOb3VlxQJFLjlA4skcMZjCttMzKMi93Z2+KiZv8ZbUfmP6wZnXWtN6K30ATfzTL1UDhcb6mMNZ1g3TNQ7rBk9D8JHuTyVBSaNMmdcOMGZubzN68+YwVqHOV3DXvfvFu/Zb1UsU37wk9+OXqL957d878Vye8P3X9uTrG+g++WVD7juvNnfP2v/aLW5VZFrMmbw95NIn0I3TsiX91v3na0gmbcp6HsOZqWKWxKJRzt7bIg1Uh+xMxK8bZRmKV2VM2gNnHGNhhSMshkwe+JwzHuNgqcxOIvXAsDLniNB9X6UzFYmZZJi3Cy9BmL6V63Dj24/r/rl237j+Lv//mfxszTxxNl4OhoOFJUCSPlFSiRIkSderUqVfrhuuaX1b98usoWTQVmKFYnCJqmLweVnz2BrccNDh2O+aYmBUtFTS0x/DWg6b1z3UDmP0qs0e88dxDT3V4MXZM+y/ixKwdvW1NZfoui/Ft5onyL8fo+Pfrvv9qzedr3tuyecuGrONZhzPCGVkJngTFE/AklylfptyNt9x4R7Vrq7coV61MZYFR2FNrwtmChavCSzvsdqHz5jv+X+6fNsyhBKwgNaKfv/jly7TZ77y0YdmGNUsOnbo5ML9iNpqlGX2ffL7JmFkvnyJm2QVl+vDJS667rU7TqBYh2e8TpyMMOjSVvIqHVGtcc+yLnPuXIxFSWIyzhZd1/qvSVk1q3KFx13P13sLrgMDFRgBi9mLLCM4nTwSeKN4g+Sp/8RerJvi7XqpLVETzkRLVxYe7KusU8UrCX1ZXNZISEum4TPRrMGvd/4KZ/37p4BLRQ9ahQofAj9t+1DbQhmgq3ZRQr1zp6Y0CRR7Mv5g1SFM8tENWDr9/6NB1k45+fErPXWrxqsmt21UfcuMtCU8lJO4jWT9ICoXERi9RYI0fXSssUuPfolY1Lm7ylLDoEj2McY9Y3y0JH16vxy/aCqIRbofwktcbIFnyUTiSQjt2Jn39xuwN7aZv+GNHnsCfgx/q0LhD9Tc+eOML0iiFd/DH9OXxaOjHjT99+tGSD9/4at361R9s+OBQfg835qkxHZ4a8NQ0SiJfrCqbS38muweYW5m8Qszu+/nQ1u73PlEjbVPaiTOJWTFx7RyJ2QYVGgSmvj5tZeU6V9bl3lkxslg4BJhiNTcXBtOwK+ZELPqn1RMh8gQCtuermAMcPqweyMjIyEpISFCSCgYKkp8KCVHHPNh7N6ySN9Hsyda57UIY9esUNTTyivFrdvE07sYp/oLLIWaH9xjeuv8ZxGybOm2KTpo2fu2lLDDjhyfExKxdgGUpyysJEfIpHgqHw5QYMLW3HjKrttZIWL6/MCJHIwcyM7MyfV6vklAgsYgsSwWogGm0oIY18iTyjS7f40bEaGN+BENBUdlk8R6/wsG+rnxnEc6IkN8vrCaMEY8PbdlvzqCPcl4ba99fM//mlvXvPSs3A34RlfRnOvdtMjpHm4H9+u3rti81fsrolcWvKl1F+CpbZga8jmPmXhH+sx6xKZUonJlFfl7ysWzS2OmA/ZP5Opg5dlbfR/s9PDK/7yk8DwQuZgIQsxdzdnBupyXQgRoEapZM6Vg+kPhMeU9K+WQeDqBqpCo6hbwSRWSdZK+XjqqRo38cPTb7t4z0YWMyVscEEldKG1ADfTAN1lnM1i9XdmrDQKF/nZ2YNdsMZJ3He/KxWcxKRxYdOXDN5MPLd+YWQIcKFQIVry38QLOmVV8pW0IqoFCmtaPDbB8QJaf4Uam5vIho07VFq7Dmyv3BAlmWPaK1QFNlSggUJEVOoD17D0R//TVr5qJF/+0/e3PGeavI8lnOfmXOyIe6PtDHLDFZ/5r6yawkEVHGzmO71n/97cqN639Y89vPv3w5bcW0X/PydnigwQNl2rRp1evuTqlPEAn31lOrsvxCscqsWQFV2DUgwkuymz6ucXu1O3M7Vqwyy1PmhI9GHsUs98y2ET2zf1qZ5eONeGxEi75j+y4WCsofLyyzz+bkD2yz5UTjKXg8+pZ/my3uzCeJP7Oeb/+/tfFKFDjZ6YL9SsUUA9vplYSQ5cqkLaOzj5tbpVYjTeL6toekENHwnmcWs3xGo7q/1L736GfniqZ2+xEnZs3TN8UsxY0ktgW8uJFgdWfnM7ek8VN5fyXfNElE4UiYPD5zTLAgrPNULVMQszBmL2Jervf7vaTpvGxvtfFEiHb8uH1d7w6dW6b9ZA5DiX/kS8wy7iBpfbsNaPrS6y+c1DMb/9p97u51/YvjX14qF/EU4+uCR2pHtDB5eUecaDwm0rWIqNQyJyMaJclr929YdwrcQqNTaFiPER0HnmZkc17eY/gZELgYCUDMXoxZwTmdFYFuRZqVKeUJ3FfCX6BhoYTAZZJC/kyKhDL16K6DmSe+ORIOf7ThYOg/p+sZY2F8bbniU24LFO6QVzEb00TWjHSulaiKRNsVOrzwyN4aU9M/3X26QO678spitapXfODKSpe0vrR0sWtIChVW9QzDFzBURTGiUTUS5ZZXWZajkiZrhmFossxtjbph6Ibh8Xkoytu8LbswayMYfy2LLlz2JzNk2TB0hWeWGYbmD2Ycj+zbvnXvdz/97/d5G77+actqcw//eXu0rNWy2Jvvzvq2cIUi5c3JaXFixBa2J/9q0AnKSD9w5ODePXs37961c9u+/ft2Hz189HA4Eg4ZumQkJiYmlS59afmrqlW+vnKVK2sphb2FYkb/lpiNiAq1WWUUk8GscarciiJETEQijyTR+IFTHuvx0hMzcgOSbzGbhzYD+3j/Wbh+wQ3Na98txDZvXucNPuIcTU4sXIXAio055eV+/hu7apqLL631KZ89Ycv2y+Cxvuz2oYjKJxvz2zuyWMiJsbqxh2UVl2vbgSlmub+Xp3W90P3F1gNeez5PHqdfLln9Tt076rcjb6zkKI7I1dKEBKsCK3xCsr+qdFbhsjlC4pQ2iNw8efkFrSp09l/briHm2FixLM/tGtxewH6twsrVID6WEI1hyuj6YOcGkxbl3p+bbzEbIq3v4wOavjT7z8Usn8vYrmPv7zWi1xsUIJ+mcBsKryjwg69p3fwv39QIZ4M4/1kuyerCRVncKIb3a0eGPD+kzYtvDfv8vL3pcSAQOA8EIGbPA2Qc4vwQSKVUpXDhI8kFo7I/KGlaZlEtM6/TrESVt2zxiY0SCnc8GzErvifFlwdbXZEpZmUpfeHRPdecSczaVDpRLe+RSkcSk2VZLLprnqAeVDKMJK+s+xTJyDwmGX5FNsJiOkQR8is8BJeLqUWJfw0oZhmXtysX0Ow9+/x3RBnKYaOAVkS8z6NH/XqoqBpN27SJFfAFeUwdPPWJzn07T+JN+EI/xG1kEidpq434X+MFil2CzqX7wt43ZwpZdocwNxApHk/sKEZ8tU0cz/KcihCFjkV3PtCq/c2Lvl4kJrflfPwVMft0m+71chtnm/MY999w/xVvLXprtVxMLmXi0ElioccVRoP7dM3AhaCzhmKI/8mtd9oWsdZBzFl42Z22Nmxen2e5YxZIZSGYYxuKLGEX8z0+k5gNEr3Q48VWeRWzrW5pVXbS1HGflL6iQhUxfMFg21+VvD5Pjk1o2WsPZuxsiWfGEvO8jdWRT90wF88522XM6r0Vl4F5kTFfXTVFrJgWx37MmboxdfSk7k8O6z7xz940+RKzfHgWs48NaPrS3NOLWT7u+6M+fKFV1zufF4sIUphUSSePsGQwjftM72v+16CoGiGvz0+qbpAkm1V7/tTgTW3BvcHt3R7p3GLm6rfOi3PJBfmgwUFdRwBi1nUpR8C5EWhGzfzNyiVNaBgo8tjZiln+6mShwYvOUcVD22Xl4MKjh2tOTf/wtJVZt2UitWqqb+SMkWsqXl/xBv72VVmcxVX/4reynfTBlLPaFv97+0nWn/GYYBYmYlOPpY3DmkZeXoaP6z5l+a+GouTh5ViW9h6i2ePmDvn3sw8M/rO8nA8xy8d+scuLqc8Nf24++Um2e4q5Oqt4WbLoJwlZ01HjZC+LU8/frkJmeyDYbOyfNWuctjOCn3TeGc8VScsmy36mWQnNWf3lyiwv+stiB/3ZiFk+/hNtH6s9btK4D7xFEkvYL8+bFcXGStGKYiXX7h8Xwp7bbPg9Z/6T3Q5hCnIz+3Y1OZeMxt0siTYEq4LPIlZUvVkTBol40WXF/BVT73j4ji6ne7/mW8wGSev3+KBmI+YMPWUDWG7HW7dgw8Kbml/XlrfsaWJRxUPhSJT8ikwy+0mzmOXztwaqMJlIlKv5HvLHbQjb9cP2jc/0eq7F/LXz97jtcwjxOpMAxKwz84qozpJAKlX11S139fjbAoU6n42YZeN6MZTAiIivlqicSNtl7/6Few/UmhqEmI1Pw/BHh9/+/KvPfyJUfxL3/ZlL/7n1+9oalZe7hagR9mcnl2MtkzLLjzVmaCYOyc4SppxhSyNrowwfWJfIwwLabg9lsyWJaP+vhzZ3fLDHzR/9OPfIn106G5dvWn5tgyq3224G3KuQvcxtnbHVi2lXnC03A/3pNt3r5qUyax/7ndHzhrV7on3/2OYoq8+Vq6YssFhw8WZHrrplVxqzzzz7xsCma0+Xy/4Zs1DHckchLaqS32tuHNPCOilWNdhcnjeHJPDjlHht2ixmuTocOnsxyy/xXIfnmvYb2Ped5NIFC8acJ+x05xSz5omYU11FBNliVozYjROyp/T8nrRxzerRtpzwhKOBpoqWA9vXdu2itQv7T+/ffvXq01vW5VvMZpHer8ugpnkVs+yTO3nOa8tKVila05BVIu73jc3q4CkMKondYCxi1SgpHu79NUTLiLgv+H+3CdGhYhB988n6ZcOGvHD3Bxs+yDrLj0v8OAhcdAQgZi+6lOCELgQB3gzWplyxCY0CRR7Ps5iNjbPlr9ATwn4/KhWg7XJg78K9e2vnImbFArgVX+y9N5hI+kl8PadSGqXZGu1CYPhbj/ndgg3Laja7rolQGzzrIb4lM8eRc25py82ALF7MMlZ2ZDXNQ82H0KtiY49ZTWShIjbJcDtIRCOP2Dwksb1TcEDfIa1feHPw8tMB2Lj8p+XXNqgaE7NiWMYZfGZtMdurddd6Z9oAlvPYy15f+VqT+257VByCp2ApVsuBUC92y4A5+SnnB3m2+0H8rcKptw3C8cMg8rFrATvZhVTyBjwUzYyQN8lntV+blV3zwo3rnY0JQ6syGxOzL7ca8NqzeeqZjY95WJcRd/Ub1PdNqTAV4j8XuTML6maAYpNadqRmDzDfQsYTOLkqa7/+KV90cZVZLaILX18hkKO66eZwgmjjmg0LXhnwaoe3fngr80xvjHyL2SDpfTsPaPbS2y+c9tqLP363Nt2uGT562LICZVNKCiTcnHTS6gWb0Cqigm86U2Q/ROGWL6eQRopHoRXzPn3jjg63PXKm+PD3IHCxE4CYvdgzhPM7LwS437ZeeZrQyF+4y9mJWfaZ5ephZpyY9e1evG9/nYlZS+wlPKl7/TZ3VSpXsKmH0jMUIxgl1RQH3kCAbZiMSFTXNd2QVF0Jnjiubd65P33DzI0b2S7rz7a0nBcu5+ogbIPWeXinmTfeddP9LGRVTSdPQnYrwKnHMYUX90PG+hmFlmH3CFNE2sVV/tXWxQZXpgx7iZqHTpg7vcQQAMXc+S1UkthZRURHSZ0+Zkb3ziMfm3KmWOPFrHjy3yxm+SRXzF45tWGzhp2UFFNs2X3BYuOabA/YyP3MT9uqYT3FdMTgUCxP0ijR779s/fzw4cMZtevXapFta2ZXZ3PbCHZuxCyfx9P3P3vLc4Oem1WsYqGKsR5oW8yaF8RJXQ5WB/FJjRa5vWH+7IvOHjgQs7LiY2hEy+cuH9ekY5NeZ7om7L/Pl5jlEw2S0e/xfs1GvDXik7wei39u1JMvtun9wnPzKdm0nouyt6yiiNYQscGRLbnEJjazXYRdHPw8cILtu0IhCrB9G69K6EQLpi8ekdqzdb+zOT5+FgQuNgIQsxdbRnA+F4TAYCK5cPnUiWcnZnm52meJqyyxo5vbDLbJyq6Fe3fXmZ71yV47mKldm8y/rXGpe1N8x8nLTZqaR4yiDYZ1YQNEnhCFtRNilKZh+Gnffp12bNPSVi7fNubV/2z6+oJAOfcHlV7t8+q/7n6obb/SVcpccZJYycuxclEpmlmEiu3lP6XuzWJWlmK71HlzTzQaFb6hRoYeeXP07N4Pv/DwhLwcfuPKH5Zfe0t1UZkVVUIxZs5WhadvM8hPZdZ+6YVT0ga3feCegRQgKRqNkDfBJyqzkUiEfNwa8GeP3D7d4xmKyiYvTRtkRCRSPBId23di8yMdOt/56CP/eqZZ6yaPi55dMT0t72J2ePeRrfvPeO60QxNOx7vlLakVh70wcMo1N13dxFANknyWiapoZLX8mK0KrbifyFmaziXu7LDjNpIJ4y9zcpkW1MjvCZCerqVPGT31ua5juubqaPFn552voQl8UmEy+j7Wt/lLc15alpdrMP5n0kbO6XvPE/eNoCTz2tM102aNH3YRWxg/xBmGsHOD6bMbpYDsJ+IGA4mMcQMmPdlrbNcz3tCd7Tni50HgfBGAmD1fpHGci5qAKWbbTmgQKPZE4RNZpCu8G14nTfSXyeTRecqXKGGZ1qiiosUTibgXjRe3VVJ5FKaYACbtfu/othvi3QxmPFl1apM7S3T20mGiSBZJPBlK8pNsBMgwomQoWWQoPH+Sv2C5D7IgyUYZOn6kJH28eEufngs/H+2UKm1qg9SSrdu0fuLONi06pVxasIRtmxS7QOxPJaspI9aXEd+kIb6xs9fXxXd03Kq/+Y1u/QjvV4qaotf2tT2w88C26a9M6TVg4uD383phfr/ihxU1bq3e2CwDW2I2p4tA7BPVmpDFl0k0bz6zpzuPoU8Obde1Z9fRhcsVLmtXJ09yb8jtyTk/3XPeDNi/5wq1QbRry54NvXs+df87q97Zsnrh6jdubXFrh1j/qtjzZQvBuI1V4s3ALnDW+4M3gPXMu5vBn8Xc7PJm/taPtO7xaJfH+sh+qehJY2/tHleh4OJeIf66OR3M2AWlE0868ykJosXiv6u/W/76+Fl9Jnw44fu8XhP2z619/4t3b76zXmqMl+3pK3p7zTYN0W/M14t93dpitlP+xCwfe+0HX8y7/tY67X2J1vQRqx82dnfHY4DDYfIF/KLtQHxuSVzRZys1RXgri9PLpIx+Tw+6b8SbQ08ZCHG2LPDzIHAhCEDMXgjqOObFSEB6pezdExomFXmyUFaW2CnNQpbbKnmU0BBJAAAYjUlEQVQJ1qdJ5NGJPDoLVp1CHp3duMivcuFKIWEIK5a+eQOYsu+dYztqzzi8VFg8sVAu37nypOYtyz5uqMdIltjB3Hrwl5v4grHHvpu70/lbxiA/SVpxUiPlaemSfYN3z1k2bPDJX98XI8c8n1PbGm3LtH6g7UO3NL7l3vLVyl4T84YVlUDrZfi739q9bt5IZH9k2ZrG0MwpaGZ/oFWl4i9uQyKFK3gsGizBRlkU/Xzp5/PemvnWwJmfzjxlQtvpTv7nT39edVXdqxqJQ5ym39cW0iKRnGqDtK5tutadtHzSX6qwP3jTg5d37NSxf4NmDdpTsvA6MG1G+Vc+lnVOvGmORYvtE8sbgFjo8zL0SdZn9vlFKLR00SfTXps6bdh7699L5/7xoQuGzKjf/JZ/iyq0lQ/bp9ZmFOvGtOctmLHSC92HtBrw2uCz7pnNjX3HOzpe/cBD9/ZueNft95CfkkQeWbeJxk+z6h67GbIuDbZjYyDcKx3bDGZXcOPFrzkZi3b/tOeHBfPSRvUc23NOni/eHD/41eIvF93YtG4bPi9RIbWqySxkzdteFrP8sAUte37JRBlEg7oOajp07tCzajOwD9+sZrPiE9+cuKzS5ZWuE9eCdQg+mC1iT/7IiOuhZSbccswnphKFD4b29Ozaq8XUJVM35pcDngcCF4oAxOyFIo/jXnQExpZtO6FRUtGuLGZJMgVB1DRDFU7livBqZBFrUMhrzhrwajnFbAJtVeSD848eqPXG4cViAhiL2UqdrpzSrGW5ToaaQcRi1prexYLYnPjFO3x42hB/I/EuZT4HNnMvSJFwcco8UZ7eXfDj3c8v+WbRRQfuL55Qy1otE6tVvubmWxvVu7fuLTc3LFCqQDmSeb6sVUk1U2BtArI3dVm/j6uAiQqhYdk58c/bTbU6kXaUDn3zxddrlry7eOyL7764Nj+nvGXV5nVX3Fz5JnNb+GkErS2c7OOHyejZ4ZmbXl08+i+JWfucn03tV+/ednf3qlm/ZmNKpIJs0yQetkeXpfLNXezWRzxXqdmCyhY7/OsJyvhx3U+fzpk5+6WXF738H/v1uX+898Leb9ZpWud+S8iaJgb85Ny+MWxBJIyWiV5+9uW7n5387Dm9Th9v3LHmXfe27XR700YtPMUDZWL87XOyq605bzK4iyKqkcxjs7iP1KruR49Es9L3pX/37hvzp69c++nCv7qjf/37Xy+rfXudJrFrw5xlYBrAxj9sMW3fYEWJhnYZ2nzQ24OW5uea5Oek3vZA1Tdem7o06dLkcrH88OtbDhgnva7NKVadts6Tz4sF7b7Qju6PdWkyffWszfk9HzwPBC4EAYjZC0Edx7woCbxSru34RglFuxXJDHGt1bKX95iDtQxFVGJFl6EYH2UuI0sGbwDjNoMIqVzNVTy0VZEOzj28p+bs7Alg0uudrp5yZ8tSnWXtEEm880L0IHIl1/r2tSqz/HqmcAuL48qUROGonwqklKHvf4xueuvlb2tP37PHsVY6vLx8eZXLa15b+9obq11b7cYqVa6q4Uv0lwgUCCSST8zEyv1htyDYhacgRbOywse2bfl942crP/t4/WfrP5795ewtf+XCmzVgVv+KVS67zpC1sOyRDfLIOqmiDBj3sJs5dUnWFUMxZDmSGYrOeOPtIW+tmbH1rxw/53O7Nu9avUGzRndVv7bqXVdWq3yVELZcbbQrtszEFvv8ZHNZ+8Se7Xv++Gzlqve/+HTtomkfTst1SX1231kdq15TtVHU0KK6ost8j8A3cdbuOdFYY1VqDd5E5VN8hkfyyfqJiLRoftrYsUsn/C3VvdTaqSWvv/G6225pWL9ptRrV6yWnFCghJUgJsaqkfQNhXw+2uOUC6XHj2B+/bf35m2+++WTNmjVLJy+a/M25ysfMPm88U6Nm9bokGSFVVjXJI+lhtkYQj+xLRDZkSTIkSdYkQzYUTzQror4z791RE1dO/PGvnMvz7Qfe1qpVy46Z4UzyJfk1iXQpqkUldiyw73IMwzBkPVvtc2GY+751TZMS/EmGFlJln+FJ+Hbtt+89PuHx2X/lfPBcEDjfBCBmzzdxHO+iJfBKmbvHNU4s2qNwVpAUI2pN1JHJkGRhCq/K/Kv5xeQTS7c89Yvti3j52xazEm31GAfnH9lfY9bB1fvsYKd3qj61VcsynSVtP8kSO/2YZTRD9MeyeDV9USXdFrPW7yWZIrpBUUMnn786vTZp230DP/p6/kUL8Ryf2GAaLP9W64cSJcqXveLSMqUqlihWvHjBgoUuSSlYIMWX4PezWRXbFKiqGgmFs0IZxzPSDxw8sGvrb1s37f5j90/zvp53wCm9xqdD27FBx8srXXXFdZddXuGqYpcUK52QGEiRDElRNVULBoPH0/cf2vvH779v+e3XrRsqrK6wZTANPtWn6xzn7u9+uTtq3JFU5fIqVUuWLl2tQvmylxW7pPglAb+/oOJVFM3QNC0aCR06eOTIoQOHdm3ftmvzb7/98n3aV2kYZPJ3JwavDwIXgADE7AWAjkNenATGl233SsOEQj1ZzHIrgGzoJOvZYjaqEEVkc7tX4v8vD/Jm9oiYky6JTR48BYz/cKvH2L/w+LEaU/cvZyElHjM7XT+tRYtLO0n6HpLkEySJZjXTHZUMaz3Q8JBkV05E9TdCpKii3SGia6T4KtP6tUlz7xqW9sDFSRBnBQIgAAIgAALnnwDE7PlnjiNepATGl753TMOkwk8VygqSJnNlVjXnmYsKqkyqLFGYbaB0mRJVnRTDoLBHJY3n12se4WkqySrtkI298w4erDE9Y/UhO9RZj9ww7c5WJTqptJ8k6QQpFDGXasWGEBa0CaKVQfh9iolGXDjTSFeCJHl5c5lEUbUU7dhedu0rU75tlLZpEy8o4wECIAACIAACricAMev6SwAAbALjyt33csNA4WdSgpkU8USJx0Xypi+xE9wwBW1UlkRF1q/yGNsoqUqYdFkhXUsibqr1SBHaKRm75h8+cO2kjFXp9mvPfviGaS3uKt0pSz4gNnf5dCFPSeLqq+Ej0pLNXyWu2MaJWZnHdfIUdj5+Gdqxs9jGt6b895bJmzadQOZAAARAAARAAARy35sKLiDgSgKjKrQffFugyMCUYKakKlEyWFhK3GrAbgam7ZPGo1EN06ZLZst19oaVvGRoBcjQZVGZ3S5pv809vu/66UdWHrNBvvnwTePubFmuR0jeTyRnkk9ns/aIZcnlscSsx2wtkAwhmHV2M/BIFAxnkS8xgcKRS2j3jkv/M+rlVY3Sdu1iU1o8QAAEQAAEQMD1BFCZdf0lAAA2gf4lWzzcski5mUWCIUmLZpI3QSZVjYjN4T5dEn6ymiGRzlu7JbaAMkjSIpQQKEBZmQaF2eCggJ9+Dh75YtWuE7dPoKW2eSyNa3fdY23vvnK6LyGddD2dFF2lgJcoEskiWWYRy/5KbB0UIUNskJfI0BWSJS/pikYROkGKpxJt/qHMB5Oem9kmzXROxQMEQAAEQAAEXE8AYtb1lwAA2AS6l7jz6tZFy64uGYqmKOEsj99jiFG1vLFL9M7q5ogprs4asmJacvGcc8VPuqZQJJBA6QGFNhzeM+rxA4v7xJN9sHKxykOH3r05KWEXycY+0tTj5FUMCvgTKRRVSeOxnZZA1nT2l/WQxxugSEQVm7+SCvspI6MErfjAN6zjjPcHImsgAAIgAAIgAAImAYhZXAkgEEfg7YoPLaiqJLQqomoeJZhJbNPIbgLsIcu+moouix7ZiCKLDV9Jso+0UIS3alFWciL9qnjDXx88cMvw9PfXx4OtVauWt1+LikturhFt6pO3kj8xSMHQCTLUJNJ445ccJcXrIYm8YrCRrppDGwzZIMUToGDYQ4pc4/iIgRvrTPnhh1+QNBAAARAAARAAAYhZXAMgcAqB4YVbNqtTrOS8yxVfijcjizxGRAxJiHoMIS69rGglhUJsYKAb5OPNX7pOmtegA4qX1gfVWZt2bO40nTbEzaw1D9OlXpXG/brfuCI5sI0ygr9QSqFECmf5SPH4ieQgRdQoke4nxZsgenVFi4OHKBTxU2LilfTRB9snfjSxTM80SkOLAa5dEAABEAABELAIoDKLSwEETiYgTSrVfkj1pEL9SxiS5A1mkSxpFPbopOsaBXSzXzYqE0V4VIKmkpIUoIhfoV+zwuu/OBy8Z7I1xjYnWB5rW6JD/cGt76o0wJ+wi4KZe8grJ5GiSCQpYVJ1jVSNHQ3MwQmasPryUYK/PP38P+mzSdM/azdvy56Y3RcSBwIgAAIgAAIggDYDXAMgcAqBbtTMX6VkwRFXFUh5qrghkU/SSGVLAy1MCRGDFJ4IpkgUkiWK+L10nDTamZX11eajJzoPO/LxacdSplJV3+1dygxv0bR8b5n2kRTNJINCJLGfrIc3l/koqkkkkYcUJYUioWTau8ez5vXX1j00/ac/diBdIAACIAACIAACOapQAAICIHAqgVRK9d1YUn2scmJK38KKUpo7AXyqRgVCGnmF3yxRpkJ0WJaO/J4VnP9TVubwV9I/zNOozGaXX+6vV+PSh5rdXmlYmUu0kj7vMWHXFTVCRDK7JARI1/wUOlEs8/sN6qylH/36wuRN38RG4yJfIAACIAACIAAC2QTQZoCrAQROQ2BwUvOShQOehxMLBGonk5ycHNV9Hp2iIdIyT+j6H1uPH08bGFz1VX4gdri2QqGaVxV6oELpxLopxQJJqhb0GjIPlZeydu888sfP/8t8e/u6nT/Dhis/dPEcEAABEAABtxCAmHVLphHnXybQgBp4qlOCso+SjTRK4w1eYtjtX33UolreAhXSlQKRiBzWikmRhOPa6m3bQn/1dfF8EAABEAABEHADAYhZN2QZMYIACIAACIAACICAQwlAzDo0sQgLBEAABEAABEAABNxAAGLWDVlGjCAAAiAAAiAAAiDgUAIQsw5NLMICARAAARAAARAAATcQgJh1Q5YRIwiAAAiAAAiAAAg4lADErEMTi7BAAARAAARAAARAwA0EIGbdkGXECAIgAAIgAAIgAAIOJQAx69DEIiwQAAEQAAEQAAEQcAMBiFk3ZBkxggAIgAAIgAAIgIBDCUDMOjSxCAsEQAAEQAAEQAAE3EAAYtYNWUaMIAACIAACIAACIOBQAhCzDk0swgIBEAABEAABEAABNxCAmHVDlhEjCIAACIAACIAACDiUAMSsQxOLsEAABEAABEAABEDADQQgZt2QZcQIAiAAAiAAAiAAAg4lADHr0MQiLBAAARAAARAAARBwAwGIWTdkGTGCAAiAAAiAAAiAgEMJQMw6NLEICwRAAARAAARAAATcQABi1g1ZRowgAAIgAAIgAAIg4FACELMOTSzCAgEQAAEQAAEQAAE3EICYdUOWESMIgAAIgAAIgAAIOJQAxKxDE4uwQAAEQAAEQAAEQMANBCBm3ZBlxAgCIAACIAACIAACDiUAMevQxCIsEAABEAABEAABEHADAYhZN2QZMYIACIAACIAACICAQwlAzDo0sQgLBEAABEAABEAABNxAAGLWDVlGjCAAAiAAAiAAAiDgUAIQsw5NLMICARAAARAAARAAATcQgJh1Q5YRIwiAAAiAAAiAAAg4lADErEMTi7BAAARAAARAAARAwA0EIGbdkGXECAIgAAIgAAIgAAIOJQAx69DEIiwQAAEQAAEQAAEQcAMBiFk3ZBkxggAIgAAIgAAIgIBDCUDMOjSxCAsEQAAEQAAEQAAE3EAAYtYNWUaMIAACIAACIAACIOBQAhCzDk0swgIBEAABEAABEAABNxCAmHVDlhEjCIAACIAACIAACDiUAMSsQxOLsEAABEAABEAABEDADQQgZt2QZcQIAiAAAiAAAiAAAg4lADHr0MQiLBAAARAAARAAARBwAwGIWTdkGTGCAAiAAAiAAAiAgEMJQMw6NLEICwRAAARAAARAAATcQABi1g1ZRowgAAIgAAIgAAIg4FACELMOTSzCAgEQAAEQAAEQAAE3EICYdUOWESMIgAAIgAAIgAAIOJQAxKxDE4uwQAAEQAAEQAAEQMANBCBm3ZBlxAgCIAACIAACIAACDiUAMevQxCIsEAABEAABEAABEHADAYhZN2QZMYIACIAACIAACICAQwlAzDo0sQgLBEAABEAABEAABNxAAGLWDVlGjCAAAiAAAiAAAiDgUAIQsw5NLMICARAAARAAARAAATcQgJh1Q5YRIwiAAAiAAAiAAAg4lADErEMTi7BAAARAAARAAARAwA0EIGbdkGXECAIgAAIgAAIgAAIOJQAx69DEIiwQAAEQAAEQAAEQcAMBiFk3ZBkxggAIgAAIgAAIgIBDCUDMOjSxCAsEQAAEQAAEQAAE3EAAYtYNWUaMIAACIAACIAACIOBQAhCzDk0swgIBEAABEAABEAABNxCAmHVDlhEjCIAACIAACIAACDiUAMSsQxOLsEAABEAABEAABEDADQQgZt2QZcQIAiAAAiAAAiAAAg4lADHr0MQiLBAAARAAARAAARBwAwGIWTdkGTGCAAiAAAiAAAiAgEMJQMw6NLEICwRAAARAAARAAATcQABi1g1ZRowgAAIgAAIgAAIg4FACELMOTSzCAgEQAAEQAAEQAAE3EICYdUOWESMIgAAIgAAIgAAIOJQAxKxDE4uwQAAEQAAEQAAEQMANBCBm3ZBlxAgCIAACIAACIAACDiUAMevQxCIsEAABEAABEAABEHADAYhZN2QZMYIACIAACIAACICAQwlAzDo0sQgLBEAABEAABEAABNxAAGLWDVlGjCAAAiAAAiAAAiDgUAIQsw5NLMICARAAARAAARAAATcQgJh1Q5YRIwiAAAiAAAiAAAg4lADErEMTi7BAAARAAARAAARAwA0EIGbdkGXECAIgAAIgAAIgAAIOJQAx69DEIiwQAAEQAAEQAAEQcAMBiFk3ZBkxggAIgAAIgAAIgIBDCUDMOjSxCAsEQAAEQAAEQAAE3EAAYtYNWUaMIAACIAACIAACIOBQAhCzDk0swgIBEAABEAABEAABNxCAmHVDlhEjCIAACIAACIAACDiUAMSsQxOLsEAABEAABEAABEDADQQgZt2QZcQIAiAAAiAAAiAAAg4lADHr0MQiLBAAARAAARAAARBwAwGIWTdkGTGCAAiAAAiAAAiAgEMJQMw6NLEICwRAAARAAARAAATcQABi1g1ZRowgAAIgAAIgAAIg4FACELMOTSzCAgEQAAEQAAEQAAE3EICYdUOWESMIgAAIgAAIgAAIOJQAxKxDE4uwQAAEQAAEQAAEQMANBCBm3ZBlxAgCIAACIAACIAACDiUAMevQxCIsEAABEAABEAABEHADAYhZN2QZMYIACIAACIAACICAQwlAzDo0sQgLBEAABEAABEAABNxAAGLWDVlGjCAAAiAAAiAAAiDgUAIQsw5NLMICARAAARAAARAAATcQgJh1Q5YRIwiAAAiAAAiAAAg4lADErEMTi7BAAARAAARAAARAwA0EIGbdkGXECAIgAAIgAAIgAAIOJQAx69DEIiwQAAEQAAEQAAEQcAMBiFk3ZBkxggAIgAAIgAAIgIBDCUDMOjSxCAsEQAAEQAAEQAAE3EAAYtYNWUaMIAACIAACIAACIOBQAhCzDk0swgIBEAABEAABEAABNxCAmHVDlhEjCIAACIAACIAACDiUAMSsQxOLsEAABEAABEAABEDADQQgZt2QZcQIAiAAAiAAAiAAAg4lADHr0MQiLBAAARAAARAAARBwAwGIWTdkGTGCAAiAAAiAAAiAgEMJQMw6NLEICwRAAARAAARAAATcQABi1g1ZRowgAAIgAAIgAAIg4FACELMOTSzCAgEQAAEQAAEQAAE3EICYdUOWESMIgAAIgAAIgAAIOJQAxKxDE4uwQAAEQAAEQAAEQMANBCBm3ZBlxAgCIAACIAACIAACDiUAMevQxCIsEAABEAABEAABEHADAYhZN2QZMYIACIAACIAACICAQwlAzDo0sQgLBEAABEAABEAABNxAAGLWDVlGjCAAAiAAAiAAAiDgUAIQsw5NLMICARAAARAAARAAATcQgJh1Q5YRIwiAAAiAAAiAAAg4lADErEMTi7BAAARAAARAAARAwA0EIGbdkGXECAIgAAIgAAIgAAIOJQAx69DEIiwQAAEQAAEQAAEQcAMBiFk3ZBkxggAIgAAIgAAIgIBDCUDMOjSxCAsEQAAEQAAEQAAE3EAAYtYNWUaMIAACIAACIAACIOBQAhCzDk0swgIBEAABEAABEAABNxCAmHVDlhEjCIAACIAACIAACDiUAMSsQxOLsEAABEAABEAABEDADQQgZt2QZcQIAiAAAiAAAiAAAg4lADHr0MQiLBAAARAAARAAARBwA4H/Ax6LtP0EPhTZAAAAAElFTkSuQmCC;imageBorder=#009999;imageBackground=#006666;dashed=1;perimeterSpacing=0;strokeWidth=1;perimeter=rectanglePerimeter;treeFolding=0;" vertex="1" parent="1">
                    <mxGeometry x="860" y="40" width="114.85" height="60" as="geometry"/>
                </mxCell>
                <mxCell id="33" value="" style="group" vertex="1" connectable="0" parent="1">
                    <mxGeometry x="827" y="547" width="50" height="80" as="geometry"/>
                </mxCell>
                <mxCell id="28" value="" style="image;html=1;image=img/lib/clip_art/computers/Server_Rack_128x128.png;fillColor=default;" vertex="1" parent="33">
                    <mxGeometry width="50" height="50.90909090909091" as="geometry"/>
                </mxCell>
                <mxCell id="29" value="HTTP&lt;br&gt;Server" style="text;html=1;align=center;verticalAlign=middle;resizable=0;points=[];autosize=1;strokeColor=none;fillColor=none;" vertex="1" parent="33">
                    <mxGeometry x="-2.8571428571428568" y="50.90909090909091" width="60" height="40" as="geometry"/>
                </mxCell>
                <mxCell id="34" value="" style="group" vertex="1" connectable="0" parent="1">
                    <mxGeometry x="717" y="552" width="60" height="70" as="geometry"/>
                </mxCell>
                <mxCell id="25" value="" style="image;html=1;image=img/lib/clip_art/computers/Database_128x128.png;fillColor=default;" vertex="1" parent="34">
                    <mxGeometry x="13.333333333333332" width="33.333333333333336" height="42" as="geometry"/>
                </mxCell>
                <mxCell id="27" value="Time Series&lt;br&gt;DB" style="text;html=1;align=center;verticalAlign=middle;resizable=0;points=[];autosize=1;strokeColor=none;fillColor=none;" vertex="1" parent="34">
                    <mxGeometry x="-12" y="42" width="90" height="40" as="geometry"/>
                </mxCell>
                <mxCell id="38" value="" style="group" vertex="1" connectable="0" parent="1">
                    <mxGeometry x="600" y="556" width="110" height="77.33333333333337" as="geometry"/>
                </mxCell>
                <mxCell id="23" value="" style="verticalLabelPosition=bottom;html=1;verticalAlign=top;align=center;strokeColor=none;fillColor=#00BEF2;shape=mxgraph.azure.startup_task;pointerEvents=1;" vertex="1" parent="38">
                    <mxGeometry x="36.53125" width="29.687499999999996" height="33.333333333333336" as="geometry"/>
                </mxCell>
                <mxCell id="24" value="Metric Retrieval&lt;br&gt;System" style="text;html=1;align=center;verticalAlign=middle;resizable=0;points=[];autosize=1;strokeColor=none;fillColor=none;" vertex="1" parent="38">
                    <mxGeometry y="37.33333333333337" width="110" height="40" as="geometry"/>
                </mxCell>
                <mxCell id="39" value="" style="group" vertex="1" connectable="0" parent="1">
                    <mxGeometry x="702" y="438" width="70" height="81.25333333333333" as="geometry"/>
                </mxCell>
                <mxCell id="32" value="" style="sketch=0;points=[[0,0,0],[0.25,0,0],[0.5,0,0],[0.75,0,0],[1,0,0],[0,1,0],[0.25,1,0],[0.5,1,0],[0.75,1,0],[1,1,0],[0,0.25,0],[0,0.5,0],[0,0.75,0],[1,0.25,0],[1,0.5,0],[1,0.75,0]];points=[[0,0,0],[0.25,0,0],[0.5,0,0],[0.75,0,0],[1,0,0],[0,1,0],[0.25,1,0],[0.5,1,0],[0.75,1,0],[1,1,0],[0,0.25,0],[0,0.5,0],[0,0.75,0],[1,0.25,0],[1,0.5,0],[1,0.75,0]];outlineConnect=0;fontColor=#232F3E;gradientColor=#F34482;gradientDirection=north;fillColor=#BC1356;strokeColor=#ffffff;dashed=0;verticalLabelPosition=bottom;verticalAlign=top;align=center;html=1;fontSize=12;fontStyle=0;aspect=fixed;shape=mxgraph.aws4.resourceIcon;resIcon=mxgraph.aws4.systems_manager_incident_manager;" vertex="1" parent="39">
                    <mxGeometry x="13" width="44" height="44" as="geometry"/>
                </mxCell>
                <mxCell id="37" value="Alert&lt;br&gt;Manager" style="text;html=1;align=center;verticalAlign=middle;resizable=0;points=[];autosize=1;strokeColor=none;fillColor=none;" vertex="1" parent="39">
                    <mxGeometry y="41.25333333333339" width="70" height="40" as="geometry"/>
                </mxCell>
                <mxCell id="43" style="edgeStyle=orthogonalEdgeStyle;html=1;exitX=1;exitY=0.5;exitDx=0;exitDy=0;entryX=0;entryY=0.5;entryDx=0;entryDy=0;entryPerimeter=0;fontSize=12;flowAnimation=1;strokeWidth=2;" edge="1" parent="1" source="41" target="23">
                    <mxGeometry relative="1" as="geometry"/>
                </mxCell>
                <mxCell id="41" value="Exporters" style="rounded=1;whiteSpace=wrap;html=1;dashed=1;strokeColor=#009999;strokeWidth=1;fontSize=12;fillColor=#006666;" vertex="1" parent="1">
                    <mxGeometry x="420" y="542.25" width="120" height="60" as="geometry"/>
                </mxCell>
                <mxCell id="44" style="edgeStyle=orthogonalEdgeStyle;html=1;exitX=1;exitY=0.5;exitDx=0;exitDy=0;exitPerimeter=0;entryX=0;entryY=0.5;entryDx=0;entryDy=0;fontSize=12;flowAnimation=1;strokeWidth=2;" edge="1" parent="1" source="23" target="25">
                    <mxGeometry relative="1" as="geometry"/>
                </mxCell>
                <mxCell id="45" style="edgeStyle=orthogonalEdgeStyle;html=1;exitX=1;exitY=0.5;exitDx=0;exitDy=0;entryX=0;entryY=0.5;entryDx=0;entryDy=0;fontSize=12;flowAnimation=1;strokeWidth=2;" edge="1" parent="1" source="25" target="28">
                    <mxGeometry relative="1" as="geometry"/>
                </mxCell>
                <mxCell id="46" style="edgeStyle=orthogonalEdgeStyle;html=1;exitX=0.5;exitY=0;exitDx=0;exitDy=0;entryX=1;entryY=0.5;entryDx=0;entryDy=0;entryPerimeter=0;fontSize=12;flowAnimation=1;strokeWidth=2;noJump=0;orthogonalLoop=0;" edge="1" parent="1" source="28" target="32">
                    <mxGeometry relative="1" as="geometry"/>
                </mxCell>
                <mxCell id="61" style="edgeStyle=orthogonalEdgeStyle;jumpStyle=arc;jumpSize=6;html=1;exitX=0.5;exitY=0;exitDx=0;exitDy=0;entryX=1;entryY=0.5;entryDx=0;entryDy=0;strokeWidth=2;fontSize=12;fontColor=#FFFFFF;flowAnimation=1;" edge="1" parent="1" source="51" target="58">
                    <mxGeometry relative="1" as="geometry"/>
                </mxCell>
                <mxCell id="51" value="Grafana" style="rounded=1;whiteSpace=wrap;html=1;dashed=1;strokeColor=#009999;strokeWidth=1;fontSize=12;fillColor=#006666;" vertex="1" parent="1">
                    <mxGeometry x="687" y="290" width="120" height="60" as="geometry"/>
                </mxCell>
                <mxCell id="53" style="edgeStyle=orthogonalEdgeStyle;html=1;exitX=0.5;exitY=1;exitDx=0;exitDy=0;entryX=0.5;entryY=0;entryDx=0;entryDy=0;strokeWidth=2;fontSize=12;fontColor=#FFFFFF;flowAnimation=1;endArrow=none;endFill=0;startArrow=classic;startFill=1;" edge="1" parent="1" source="52" target="25">
                    <mxGeometry relative="1" as="geometry">
                        <Array as="points">
                            <mxPoint x="520" y="530"/>
                            <mxPoint x="747" y="530"/>
                        </Array>
                    </mxGeometry>
                </mxCell>
                <mxCell id="54" style="edgeStyle=orthogonalEdgeStyle;html=1;exitX=1;exitY=0.5;exitDx=0;exitDy=0;entryX=0;entryY=0.5;entryDx=0;entryDy=0;strokeWidth=2;fontSize=12;fontColor=#FFFFFF;flowAnimation=1;endArrow=none;endFill=0;startArrow=classic;startFill=1;" edge="1" parent="1" source="52" target="51">
                    <mxGeometry relative="1" as="geometry"/>
                </mxCell>
                <mxCell id="60" style="edgeStyle=orthogonalEdgeStyle;jumpStyle=arc;jumpSize=6;html=1;exitX=0.5;exitY=0;exitDx=0;exitDy=0;entryX=0;entryY=0.5;entryDx=0;entryDy=0;strokeWidth=2;fontSize=12;fontColor=#FFFFFF;flowAnimation=1;" edge="1" parent="1" source="52" target="56">
                    <mxGeometry relative="1" as="geometry">
                        <Array as="points">
                            <mxPoint x="520" y="190"/>
                            <mxPoint x="320" y="190"/>
                            <mxPoint x="320" y="85"/>
                        </Array>
                    </mxGeometry>
                </mxCell>
                <mxCell id="52" value="Kiali" style="rounded=1;whiteSpace=wrap;html=1;dashed=1;strokeColor=#009999;strokeWidth=1;fontSize=12;fillColor=#006666;" vertex="1" parent="1">
                    <mxGeometry x="460" y="240" width="120" height="60" as="geometry"/>
                </mxCell>
                <mxCell id="55" style="edgeStyle=orthogonalEdgeStyle;html=1;exitX=1;exitY=0.5;exitDx=0;exitDy=0;strokeWidth=2;fontSize=12;fontColor=#FFFFFF;noJump=0;orthogonalLoop=0;jumpStyle=arc;jumpSize=11;flowAnimation=1;endArrow=none;endFill=0;startArrow=classic;startFill=1;" edge="1" parent="1" source="51">
                    <mxGeometry relative="1" as="geometry">
                        <mxPoint x="747" y="550" as="targetPoint"/>
                        <Array as="points">
                            <mxPoint x="890" y="320"/>
                            <mxPoint x="890" y="530"/>
                            <mxPoint x="747" y="530"/>
                        </Array>
                    </mxGeometry>
                </mxCell>
                <mxCell id="56" value="" style="shape=image;verticalLabelPosition=bottom;labelBackgroundColor=default;verticalAlign=top;aspect=fixed;imageAspect=0;image=data:image/png,iVBORw0KGgoAAAANSUhEUgAAARgAAAEYCAYAAACHjumMAAAAAXNSR0IArs4c6QAAIABJREFUeF7tnQd4VGXz9u9Ttm8aJPQekKqC2EFFQAVpogQpgvpXUVEpKp1A6EVBUQFBrDQFRBQlUhQEFVFQQYr03hNCyrazp3zO2Q0EDUrJ8VW/iRcXCLtzdn9n9t555pmZRwD/MAEmwAQsIiBYZJfNMgEmwATAAsNOwASYgGUEWGAsQ8uGmQATYIFhH2ACTMAyAiwwlqFlw0yACbDAsA8wASZgGQEWGMvQsmEmwARYYNgHmAATsIwAC4xlaNkwE2ACLDDsA0yACVhGgAXGMrRsmAkwARYY9gEmwAQsI8ACYxlaNswEmAALDPsAE2AClhFggbEMLRtmAkyABYZ9gAkwAcsIsMBYhpYNMwEmwALDPsAEmIBlBFhgLEPLhpkAE2CBYR9gAkzAMgIsMJahZcNMgAmwwLAPMAEmYBkBFhjL0LJhJsAEWGDYB5gAE7CMAAuMZWjZMBNgAiww7ANMgAlYRoAFxjK0bJgJMAEWGPYBJsAELCPAAmMZWjbMBJgACwz7ABNgApYRYIGxDC0bZgJMgAWGfYAJMAHLCLDAWIaWDTMBJsACwz7ABJiAZQRYYCxDy4aZABNggWEfYAJMwDICLDCWoWXDTIAJsMCwDzABJmAZARYYy9CyYSbABFhg2AeYABOwjAALjGVo2TATYAIsMOwDTIAJWEaABcYytGyYCTABFhj2ASbABCwjwAJjGVo2zASYAAsM+wATYAKWEWCBsQwtG2YCTIAFhn2ACTABywiwwFiGlg0zASbAAsM+wASYgGUEWGAsQ8uGmQATYIFhH2ACTMAyAiwwlqFlw0yACbDAsA8wASZgGQEWGMvQsmEmwARYYNgHmAATsIwAC4xlaNkwE2ACLDDsA0yACVhGgAXGMrRsmAkwARYY9gEmwAQsI8ACYxlaNswEmAALDPsAE2AClhFggbEMLRtmAkyABYZ9gAkwAcsIsMBYhpYNMwEmwALDPsAEmIBlBFhgLEPLhpkAE2CBYR9gAkzAMgIsMJahZcNMgAmwwLAPMAEmYBkBFhjL0LJhJsAEWGDYB5gAE7CMAAuMZWjZMBNgAiww7ANMgAlYRoAFxjK0bJgJMAEWGPYBJsAELCPAAmMZWjbMBJgACwz7ABNgApYRYIGxDC0bZgJMgAWGfYAJMAHLCLDAWIaWDTMBJsACwz7ABJiAZQRYYCxDy4aZABNggWEfYAJMwDICLDCWoWXDTIAJsMCwDzABJmAZARYYy9CyYSbABFhg2AeYABOwjAALjGVo2TATYAIsMOwDTIAJWEaABcYytGyYCTABFhj2ASbABCwjwAJjGVo2zASYAAsM+wATYAKWEWCBsQwtG2YCTIAFhn2ACTABywiwwFiGlg0zASbAAsM+wASYgGUEWGAsQ8uGmQATYIFhH2ACTMAyAiwwlqFlw0yACbDAsA8wASZgGQEWGMvQsmEmwARYYNgHmAATsIwAC4xlaNkwE2ACLDDsA0yACVhGgAXGMrRsmAkwARYY9gEmwAQsI8ACYxlaNswEmAALDPsAE2AClhFggbEMbQHDjRrJt1zZ8J46tWtefUXlqleWL1++TkJCQgmXy+lyOiEDMBQF/pxcv+9kZsb+ffv2bty2bfuOfQcP/vD1ayNX/R0vka/BBKwgwAJjBdWozdufTmvd7cnHhlepUqaOXYIEVYdbBMIhBZJkgyxLUDUdhijAMAzohgBBEAAJMADoOqAayF2//sdvVq9ZO3/pkmXzM775JNfCl8ymmUCREmCBKVKcEWO3P9bvrkceebhf3XrVb/eHAUkCJBFwiiB1gaQDst0Bny8Ap9sFRQ2bwiLLMjQDCIUUU2wkuw2apsPrEZGdqxtBJZzz44b1H7/+zrvjt859Y4sFL51NMoEiJcACU4Q4G3fvf2fvxx8dU6t6cr3s7GzBHRMLTRIgSEAgYECABodNgKrqMGCDbDf1BqIUeREUxUSEJvL/mk5/F/kzRTNOJ6AogKJC+f777z+bPGVK6tYP32WhKcJ7yKaKlgALTBHwrNq8c2z3J7q93azJrffqIR9iY9zmsifXH0bIkODyiKZAkFioOnDoyInggcPHtwUC4cyA73SGLIma0+WIT4wtFl+idFK1xMRiSbIMIUzRjwDYbJHn0i9F0eF2i9DCgC7Cv2Dh5xNHLHwrDfPna0XwVtgEEyhSAiwwl4mzbZ+XU1IH9JzudSIeWshc+uT6FaiSHXYPLXcQ/mnDhi3fr1274scff1m1ffvB7/PiArlISgqfVxQaNXLeUv36BtfUq3vr9ddd37xmzeR6ggFZFAG6YebvOhBSNSgakJPn39m3X//OP8+e8sNlvh1+OhMoUgIsMJeBc+g7S15qd1/znm4bBCUYhOy0Ic+QoDqAXA1YuvTn1dNfGftUVnbOgUQ5x8gIBjVsaBUE0vSLuWyd+x+t2fKuZp2bNbujW8kSsUkU2aiqhhivhAAtsWRTyIKTXpvy3Hv9nppyMbb5sUzASgIsMJdCt1aK/e0ZI5Zed3X1RpS3hUobPzo0j4hDOvDdrjDmfvYlTh47ujvj62UNsK76yYsVlfO8LKHHlHd7t2/XbqDX6y6uqSrsdtnM6QiiaArNhwvTXx7W4e7el/K2+DlMoKgJ/P8tMPVbJUKSDdg0BblxkajC5lKwYXr4fKC9N7ctMWPqy0uvrFGhrqFGcyMSoIjA8RAwdvYX2O8TkAsn3JKEo5u+m6bv2piKNW//JjJF85PYoHVM6uC+U2+7rUFnuw3QFAOqLsDujOR4Pktf+cHAexp3KJqrsRUmcOkE/v8SmJtSikH12FE8rjxKJt2GmMSbbd4SV2i65NIFeCVJ8mtK+BBysr9F3ukvceTgBriUXHiPqTgEe4ymume8PmZFrSsq17W57fD5VXN9EnYBSzblYfbS1ciCC5rdi7BhN/MlDkPFqV++H4kNa8di00zfpd+qPz6zyTOD240eNmiGx+mMU1QDdqdgCgxE4JPFX74z5L4mDxfl9dgWE7hYAv99gbkpxQXBGYPY4snO0hV6xZWr1F5OKAGF6lB0G8KaE4LkgGwXoISCsIsCZF2HGA7DrvkhBY7uzN2zeULejg1L3xyfNu/GurWuMwQdPpsdukOATwNmLdmOZVsPIkt0whZbHH5FhW5I0MMaHE43jKzjULaubYuN65Zg63zlYm/Snz2+8t2dKr728vj06tXK1szxAQbV6UkA6cz7HyweN/7B1v2L8npsiwlcDIH/rsA07RaHmLKNPOXLPyrGJbSU44tBcMQgrNsQVAUYugxBdEAzBOha2KwxCfly4XZ6INCWsKrDJWmGI3BcKC1mZz9ye93T1yeXqZgQ64BfAA4JlGsJYtm6zdh+NAdhV3Forhj4ApEgxRYbi7A/BAEOeDQF9pyjOLX9u4HYs/5lrJ0fuJibdCGPfWjMq0888GDXIUnFY0vTLhPVy1DR3sovV30wdtiox7M2rMi+EDsX8piSd97puaJy3RuTEhMTqeo448Spk5v3b1x/Kj0950KefymPKdu2a/Fra9S+vUzp0uUoQjt4YP+hX3/5ddmu9NmWXfNSXmfB51Rp2alaleSqVeJjYj1hQw1v37Fn36/zp/9yPruV7n6o1G0NrrvT6bbFGYqR88uOX7etffOl7y/3dfwvn/+fFBhb6+H1iifXXGkUKxHndzrgtzugyTaA2n50+mWDDQ5IggTJJiAQzIVD1gBVgV12IBgMwkal/OE8xBtZePrexmhSEXDShxZAngOYsfoglmzcgVzdjaDshiZ5oFNRnBgp9TdVivaQYYekq4iBAncoC0c2rXwcc4ZMt+Kml2jSuuScd9/7LjExrpKqRgrzaMdp89bda7rUr3prUVzz5kefbzzxhfELPF4hIejXqDDQcHtFLSfbyBmQmtZp5WvDlxbFdQraaNl3dLsRIwbMcNrgDAZhN3QIHg+0nDzkDhk5rlP6uP7pRX3Ny7U3cemauY1va9hGEmATZYi5PgNOt6Bv2Xboh84PjbitsDzf8gO5u0sU91Zxu4HMzLARG29Tf96675tOV1W+/XJfz//q+f89gWncJ7n0rXfuCriLQfMmwC/boKkaoEXr0ISI0IgqoKsKIJMqqJAF3dQFTdOgqQqKxThh5BzH1Ul2DH34RhQPA0ZQR9gp4us9IYz7ZDVy3CWQp9ohuWOghbXIp5nCB1IaTYXsckDVFMiCCDUYRHG7CDnnWPj4Z3NqYe2bu6y46bXue/iG9957a4VdgpeK+2i5pBlQH+325PXr33v9p8u95hdHsneVSopNNnSA2qboGlR5HFaBk5k5+5qUjat8udco+PyEpilxyz6et0tX9cT4WBF5OTokOdKzZbMDRzKCh5u26Fn5zxLzRfl6LsRW28Hj7h3Ut+8HXi9kXaUqbh1ur4igApCbvDFj5tA3enUdXtDWM9PnDXmkc8owWQAMzYAsCwjRd54IzJ2/cNCEB+8bfSHX/qc95r8lMLVS7NLtLT4sXr1uyxOKBNjcMMMJmxxpBqIPfpjCEPp0yJBkEZoagChTvkSHKAig/Ipd0OCCDy7/cbzy/N2oIAHhk0HExTtxTAd6vvQx9ttLwid4ARIsyR65ryQuhgSn0w5dCULx50GwixDIvk5bTUGUsgs4tnHNDGSveMKq6ttuE6b16NWj2yQqu6EPoqoZeG/mrNRXn35o5OU4YP0Hnrrm7RmvfW2T4crLDsDtdsHQDSiUr3LZoWoI9ek7sMny18Z8cznXKfjcjiMmPTygX49pFAn48kKI9ThMzLQEpA+r0wvj2QEvdEwf2/eDorrm5dqZlL5mftPGDdsFQypsogRRFMzXKtkAuwP4adOBzR2vrnhlwet8fiDncJnEmDIO00002O0SQpoB0Sng191Hd7erXqbq5b6u/8Xz/1sC06z/dSXubPF9nhyDoOyFLtpBXk8ZT4niavNrl/qAKBkqQo9GLaJoQzgkwWwasomwIQ+2vP1oWqs0erWqjTgFiLEBWWEgdcZKbAs5ccxRAmFK6ooawkoQ0O2QnV6ovgCga4CgwOGQoKgKDPqqd8UAPh/cCCHJyMP+D6ZfgXXv7LTqpr+/YeuPV9WuWY/aC2xOYPW3m9Y82uDqy1omNXmqT8tXXho/XwmEnV6PDcGgCgkCZIeEQFCj37Whw8Z2XDBqwPyiel/Pvjl/6MNd2w2CCht9s9tsAkLBkNm35fQ6kZFjYM78BX2nPt7+haK65uXa+WDj7g3Vk6tcI4sA/VJUHQ6HaBZFhsIaCX5mg0RbYsHr/KIYqmyYK3bkZgdgt9shuyTkKgZiPYL/CkHwXO7r+l88/78jMDc9UbZ40+bb1MQyMdmGPRJZUN5FowWRAMmgtIhu7rKogg4t+s4F3YBhLo6i0Y6oQwqdRGnjCF57vjlKhoAYCTgVAPbmAqNmr8QhxMBvSwAcLiCYBafLhWCIVMtmdi7a7DaEg9mQJcP8IGi0YU3iJRiwqyEzF+Pfu2mMMq37QKtu+tUpXa+fOfPdlaIAt6JoCKt65g0NOpe5nF2s5r0HtRo9YvgCuyTadU2FXZLNJVhOjg/eOA8CYeijx77Q4YPhfYtMYB5+cVq37o93e8Upw0EYI8tYA7IkIEzfF06ofQa82OXzcX3et4rlxdqd9/PubbWuqFKDgmZNjSwhAyEVbrdsikyeP3S6YQlnQkG7Xx0LnIxxOxNdtIKPLm0VGtchAiezfAfvKO2tcLGv45/w+P+GwFzVxRN7e9N5jvLV7s6xeRESqTuQliwSJI26mOnDL8OACI1Kb6mRR1Cj/MllRXPwiiDLsCEMR/ZhNK1oQ5+ONyGeen1CQNALPPvaWuzyG1DcxRHUaGkkQTTCkV0nUERkGo8keOn6gg4BBgxKVGgU9trM9mmPqEE5nRHyrfikMta8fNQqRxi1eNXsu5re1slBeW0F+oQXJ3V/b2ivaZd6vTufGdTqhfEjF8iUuTYAkaJCc0NchC6KCBvQR4wa26EoI5jyd3Qo89GiudtEAbEUDVAOXVUjAkM5iiBw8v6m7SsesmBn7lI5zd+4Z1utqpVrkDcQHfpSoz9rVP4giTidF8xukOSKL2h/2IIvJra4q3FvuleUoKdlID2Jvgjnzft0zNiurSz7MrrU93khz/tvCExK6m2JdRquCnmLI2CPMRsNKd8h2mQIVEZv3mg7zD+ZGhBJ7Jo/GmB3eqAEciHIAuyKHyX1bIzseCtqxgMeAQjYgC8OAhMXrEXQUwynFcDhjkUoFDKXXmQ9IjARfTF/GWYTgflvpshoYThkGUZYMWtt1GAAwXWr78DC3isu5EZdymOu7vpMvWnTXlnjssGDALB1y6/rOt5Y88ZLsUXPafzMkFYvjR92XoFRSGDGjOv44Yj+8y71GoU975lpc3s81LXDWEMzXHZZgNMBnMpSEZMg+4eOfOXpBak93y7K612urQUb92ytWa1yTdH4o8BIkoDTef7sm5O8FMFEh3EAtPW/YG76gTivWIxShXY7QKvt4ydPb25ZKeGcfM3lvr6/8/n/foG56ZFiCbc0+dZZ+orqWbqMoM1DigEE/RBIYDQVgiGejTBMAaDZCfkCI0Oy26GFfWYoa/fnobRwGu891wSeIJXhA0Ys0O/t9fjxeAgBZxyCgh2C7DTnXNI3En2Ln1dgDA2SJJoCI1MuRg2b63LSON+ezYtxdEFbq5K95Ejv/LT9qzo1rrjVTTs+GoL3d+xy5ZZPZl3SDlbhAhOdvheJYIwRY17s8OGIPkUqMPQ+2g+f2L7LAw8ML1MiqaKuw8jMOLVv4uRXBy6bkLbo7/zAXMi1LkBgcm5O8sb93lar/mM6pg3pP00w4DIM5K348qsF/Vo3euxCrvlPfcy/X2BaDWpY8pY714SdxXBak6CLroj8K0EIsmgKTCSOiMac9D8kMFBB3zAwKLIxQGPmRDUPCVBwY5lY9G5WHaVpwJMBZBjAY+M/RV5seeQYDsDuhkJfM4YKkq6z9qPRC/3FmQhGgyzbzC1xU+b0yLJCkiTYTh/Vsj99oxjWWVcsds+QcY8MGdR3mkeEFArCeHXytOff6P/ExEtxyCY901pOHDuUIhjH2SVSdHlIo0B/S2eljXmxwyILBCb/9cY1bJGQINuMfasWnb6U9/B3PGf+xr2ba1WrVPsvIphzlkgFXxfVM5344pPjf8drtfoa/3qBkXq8tzw2+aqmeZoM1eaFYdCWNBUTUKFLREjMHzM/Ev2h/AEikQ0lZgVJgCYqMPyZKCup6N+hAa6JiSR3FQeQ/lMm3vjiF5ySi0F3xCJIG1MUhpy5RsHblH+ds9ejsFgPq6awCGZ+JiIwMcFTyPxibg18Pmm7VTc6qVGKN33JvCMOAzG0ubX+p01LH7nt6maXcr3CBMYUV9qRi6SxjBFjXui4cPg/Z8v4Ut7n5T5n3sY9v9SuVrnOpQrM5V7/n/T8f7fANHwyoXjrjqfynEkIKQJElwc6VepSXoRytyoNSzHHZ58VGDNqyd+2FmHQJ0OmYZZ+eIQAivtOYkrfu1CJdCAAZErA+Nmr8eNpGaekeCiaHaLNBh1KpIqNrnVmJU239lyBoToUcxQmfbqj0ZMpMgBi1Ryc/n7Z03h/0GQrnWLuxl1rr6yWfCMlDk+dDp1sWMpZsuD6/0KvHRWY+TLgzI9gWGD+SI8F5iyTf7fA3DugQbFG7b8+BY+5SyRQcpfyLeEwBLsEQw9Hd4wKzHcyRIh6VHdIDAwJmhGGQeLiUpGUfQgv9WyBitERlSccwDMvLsYRR1n47cUR9KuwuV0Ia4FIkQPV2Zg/ZCv6J/P3iNCQwFB1MBXbGQaFPnTxyN97lByIuzfMy5nyGI1WOEemLvRDfyGPe2rKu6OefqRrP52KlUUE27R76Npdiy9+lm/hAhNJbkcjGKSNmdjh4+HP/WXRW49pH/Rt0bL5wyUSYkr+8MMv295fsHDYl6+mLTvf++n2yjtP3n3nnd1KlSxVSRAEfe/e/QcWp382ZfbAp964EAYFH1O1eedy9a+rd1vtmrWvv+GG6xrEeL0V3G6HWxCgBAJh5dSpU7nHjp04lJGZse3AoSPbVn69ZvWWD6ZtvNDrXOoSqV3apEd7PtV9qNcrxx8/lnVyx64dK15+ZcrIPYvfO3Ch1/6nPe5fLTDyoxNestW+rVdAioNgc8EIhSEJMjRNgUQ7NmbxrhoVmehH+IzAkCAIEEUZOlSoQgCxWhautOfhxe53ICYnUkpzzAV0TpuPQIlayA45YHN6Efb7ET1/5OzE7qjAmAFTvuDkC4yqQrTbzEjGoKwxDdwVBLhCp+E+9uvOjC8WXocN84usGfH3TnZH7/5tXxw5ZpZNglvVEe49cFj7L16++OToeQWGYkTS2t8ufCEC02nU5Iee7d19sijCTU+i3XtDQGDY6ElPLEjr9d7vX3/a/GVjWzW/o6cAOM2g0YC5k+QLIDhrzrxRL3W7/4IqlDulTezQunXr7jVqJF9js8GhKqCbH0m6R9sezK8GCoKplYzekGhW4AazspUTy5aveH/OrNlT9i6Zs//PPsjzN+3eUqtqlVoXs0Qq0zSlwpIl87aoQXgp0vR4gNM5eljVxSP339e+waEv5x/+p4nHhbyef6/A1O9mK9b4xu8D5erVDUix0Wrd6A50tPbAXBxRuHJm54hEhSIYEQIVJ4B2gCToRgi6FEK8lolm5d3ofU89JAQBRQB+VoD+M5Yhw1EGQcMDQXTCoAYT2WxmOpvVjSZ18wXGzO9EX0dkGVHgdkT/7NJykZhzCAc/n1sS3848cSE37FIek9z2/joLZ72/1ibBq+rQp0x7d8DrvR8af7G2ChUYSTQ7MEJhqiMSjIHDx3ZMHzvgTyOY5Ydzt3vdzitiY2WEA5EPN9UhhjRk3NGibbXTBRK4le5OKTVnzgc74zyCNxSIVPLS482B6JE6yqwmt91d6dS683dy3/XssNt7PPHkKxXKJ11hl2EPBiMRrd0ummX5bmfkWAeqP9Gp8FIQzNWvWW9jF+AP6pBsIhwOICcXubPnzh33ypOdRp2Hn7Bw8/4tta+oUFMNUbQqnlMHc75t6rT5S1+4p9WdzwtUBB4VvOikwtCCRUsmjuzUgutgLtZhL+vxtVLsJdu1y8gpfkUMCQztzlDhF505RNpBu0aR5GNUYMySp+hXLTU7Um8QCQwthUQVBgKI10+iQ80k/F/jGkgIAT4J+HR3EJM+W4MsT1mEqVpbo6o1amqM7DydOVfkEgTGoeciyXcMhxZ/UBxr3zx1WTz+4smbg0YOdMRQymj2go9eGvvQvc9e7PUKS/KqVOtBSXPasbPBGDJqUseFQ3udV2BeXbru3UaNr+9KeXj6oHudIrKzg4iNd8IXQnhQ6sj26RNSz2w9N3pqQMtXXx79kahDVhUdNltEuOnPgmRujatP9+pz17czXvyysPfT5+1FA1PathpYLFb05GaHzQ+v12szmzN9viC8HidCfsVcxrpcrkivarSSluwFFBVuj3ym94m8SJJgrP5m3YJnmt7Y/o/XTBM//OWhLdUqlatBTa4kVgUL7c4nMO+t+3XNNfWqNzTMWYqG2RdHx9nQ9b5bv+mrRxpc3ehi79c/4fH/3ggGEMqNWaxnusojIHogk7iYhwhFKktVyn2YXwXREfxmQVz+9nFk98gUGN0wp2aqWh6K6Rl4quEVaHVVScSrQJ4EzPjmIBb8tAenHIlQRQ9AwkQeSFW6ZCb/4KLo3Ty7RDr39p6JYPIL8WjaneZDUigThz6aZbnAbPIZ2VQNSxg+W7Hyjf73NO52sQ5Y6C5SNIKhpUReUDdGj5/Q8eNRhe8iDftg2di7mzV9VhAMm8ctIhTSYRdF83A5m11E8LeV6rBRL7b7aFSfj/Nf232pL7RPG/L8HE0xJNGgCl4RBlUQ6/TBFagPRO/dN7XNskkjP/39++k5/YPBj3RtP9BGdSWaAZdDMJc9uX4fYmI9pphQJERLJGq2p1spmQPUNehhxWzmDAZDcHoc8PvDcDjpIDxAdgDBADDvw4XjRj9437kDvVJSpAWp4zcnVyhTw+2wmxMGL0RgVhw4vbVkibiaAg3xIR/WdMgOGwkojhw9uf2uyiVqXOz9+ic8/l8sMGlihfE3aRm20giKHogIn62qpfEIggRdkKNVtSQsZkwTFRkZOsXkZi125NyhsOpDonYSfZvVxe2VYxADwCcAr63cg+U7T+CI4YnU2AhOM38i0MFEUXsFlz+FCUxhyyN6IS4tgEQ1CwfT30/EF5MzrXSIdZnBk7FuRyI1ki/54qs5fVs36nyx14sW2tEu0pk6GLM9ggqkZcCvwBg6YmzHTwtZIj056d1nejzVdXzAbzidLgFBnwKX225GIrRUCYYBRUd2+86dqu/9ZO6ZGpB7Bo5tP2Rwvzl0OKY5ykDXIl8KFEaIAkIqjH6Dh7da+vLQzwq+n1u797v5pRfGLpU0zRvjkhDIC8Fms0GDYTZnZvtCEETJECGpoiBoDjsESpXpui7ZSfXoDCtVhY2KNc0lWaSvjAoraRlFvyCLvpQHHr92x4fTfz177bMRjMtOza7nFZhz6mC+PJi9pVixmFo2OnjPvB6tAWVouoHM7JzdjcslcDf1xTrsZT0+JUUqd1039dQZgaFCNtrRoUZGEVp07kske2dAMiJ1KOYqiZZONHyK/s1so6eDzEhgMtG32VW4rUoMvFGBmfrFASzfeQzHDAdUyQWITgj0H+0MRfuNCm7/nCMm57zB/J2ss/UxLj0qMIvmFMPXU7Mui8dfPPkcgVm+anbfe25/4GKvV1glr2HQFj91koqg4uaBqeM6fTS6/zmNh51HT273fI/u74UVzRXrlcz8Rl5uEHanAzrlOWwiiVNw6hszus949rFzyv5JYIam9ptjEyMCE1YiHdz0P/ThpXs9YPCo1ukvDV5c8P1MSF+zsFnThm0pTg3kBlA8wYXsbMWs2g6RysoiFXz7Dx3J2/3Nt98uzc4xuYPMAAAgAElEQVQ6lR3r9diSEpMq1qhxxW2lSxUrBy1SfB0KUjRjN3M0Zhe3U4hMDAQwdcasYVOe6ZJW4NrCh7/s21KzasWaNIjnT5ZI5wjMkp0nt5Qvl1iL3qP5o+mmn5JvHThyYs/dVUsmX+z9+ic8/t8bwTRqJJdqNlDJdlQQQqITIqidWTPD0cjSiFyLthxoHaND1sPRCMaARssnioXp33XDPPLDUINIUjPRvWEVtKhbEi4DyBOBt78+iY/X78RpZwxCosOcUEfPodSORM+jnSGzMjhaMv97ovn/n79EgxgpzQHg1AOIUzNxdNG7sfjmLUsPtaclkgTEUg4zfdnK6X3vbfzExTrg7T3TWr88dihFMGeaHSPbLADNPpEcsjFkxNjOi0YNmJtv+45nUm8bNXL44lgPYoJ+w6yBVLWQOTOHuqKdLonO3Q7NeX/BkAmP3/+HxHObQePvH5raZ5ZkmF/sZmU2dXELogFfkIZ62dDj2WFtVr6W9knBD/k3p9UTXruUaKdlD+U0zAGDOhxuCQEN8IWR/cGCBRMmvjBvXGEd5h2GjOvS45mnXvZ6PcWoSJIiJqdDMPNGiqLA6XQibBjY8MuOrx+5scYtBVku2LR3c53qlWqrIQ0CRVoFmh0L5GDOEZhPth/bXDW5ZG0tRM2xKkQ6hkakKA3Yte/I3jbVy1a52Pv1T3j8v1dgaqXYY9t3PRiOvaJEQPJAIoERwqbi69RyCxKD6CHPekRgJESWNSqt+80DofP/nXafwkhUTqFD7Vh0bVoTDi2Sg/l8JzD1k6/hd8XCJzkiwqWSw0qgcJa+vU29iM6ZOZtr+d3Zavk1Mvm9liQwWgAeJQMn5r/vwYbpfisdgpK8goYYiu7fX/DRxFEP3dvnYq9XmMDQTofdJUOJHGVrpI0c2+WjUQNmk+0rOz995asvTVxZorituBIAHLbIqBy7qes6wpqBkKIpn6Yvf2Fop5aDC3s9JDBDhvSZSfNg6OwpSSCREs1lalg1oBgCBgwe2Wb5pNQCApMmLj/ce1+ZpNjyLhHw54bgtDkQpiYmWcTJbN+B3s8PuP/H2a9+92cMWjyb1nrUyKEfxrgg5/ppSmGkAjs/igmEgX1HMva2SU4658M/f+OeTXWqV76Shpj9yS7SOQKzeHfm5krlitXWaUYDCaIYeY/UTX3waMbellXOvcbF3rv/1eP/vQLT4P9ivA2bLAuXrndjSHRDMmjqihot+qK+/kgS11wVaTrsBuVoNHPIlCkwFKebxXA0U9JcfKN4OAt3VbTh6XvrmQLz2xGM2BoAhk5bjRx7HHIFOwy7KzJjRqdlUqT03yw0MwdYmQuw6L2M/m62KESqfc2hV5E5DmZzJAlMnP+Q/0j6glJWRjDJbbvUWTjrPXOb2tCgTZr2Vr/pzz4y4WKdrmmPIW0mjBtGEYwtv5KXPggUGVBKQnKISE0b3fGj0YPeT76zQ/k33puxplQJT8WAj0RBMKMX0n7dbOGgVZUY/njJ0imD2jXrdb7X0mbIhPuHpz77rqjDYeKlWkVa7poJWRk0v73nc8Pu+V0Eg+ff/jCtS6d7+8k6nEowDI/LZiZcD5/I2vXIU0/fdeCzOXsu5P1/dcx3yOtylrU7RDOE0mjbjL6aZAGBsI7jp3IPNqsQf86slnk/7/m5drXKV58zroGeawpU4d3U6fuzN5csHlvbLoKU1By6SL+o5y07L7C3cWkPRzAXcsOK7DG1UuyOm+tOMq5s8oQixcEp2KGHwjAkO8JUveWwR7yZ9iMpNNYoyWsgTAVh9PfmAc+RBkjK3Muqijg1F9Xc2RjT/Xa4/ZFgJdMGPDT0IxjFqyJDkSB6YxD2ByHbbdCUEGzUx5Sf8zHHNER2AUhMzO1yMqIp5uNEQ4URDkKw2aGJTjhDOfAe3bTp2Jplt1jZ8Hhnr8H3vDBqxBxJgkszoDzff1jK8knnLCku6LYUJjDmjp1ZO0KaLoTSho/tQvNglu07/kvJUiXqmMtJkd575Lhbm1NCKGiOjtQ/W7Lmvb733PqnZzdRDmZYar+3YcBtrpGikWA0tUYNG0b/QcPbLHtp6Dk5GHpDIxd/M6l585sfpi1uuuaePfs39OjT4/6M5Z8cuaA3DGDVkdxfY7zO6l6nbG4emj1ltIUs0heKgEMnMg7eWTHpHIFZsHHvTzWrVqr7e4ExVNWs6D6d56duaopgzqTv0vdmbi5bslhtGoyWn6Wj6IV+HTqesbdFJY5gLvSeFd3j2vZoE3vHA4ty9BhIqgAnbOaHPUh1KjQajDyCch8UltPOMkW5lAMwdSV6krw5GoY6qVWUcgJxefsx/tm7UNrcggZOycBz4xcjUyoNv6M4shUNstsNTfHBRjsKGkVNtGMVjZgMLdpIGa3Hob/XNfMbHFAgqkqkfkN0wqvkwLVr9XsnpvZ6sOig/NHS05PfGvnEYw8PoFIhQYK/bbsHrtv18eytF3vNwgSG8iguT+SMbEUJh6e99Uavhg0atq9dq9ZtNptkCiud0iAIEhx2G3wBHU6PiKVL1334bIsb2/3Va2g3aExK6uD+b4s6PDQhLr8qIDLjx6w20Hs9n9rmi0K2qcl2yTvblqhR7cqrj2Uez9r+/rT1QNpvdz8t2pH251eves/9yfNmvb/ZLsIZqdWkKjiCGFlaUzBzJIMEpsQ5AjN/4/6falWtUDcyFyjiB/QMjUaHyBKy8vw5Dc4jMDZz8mK+79D0ReDw8VN77q5UnJO8f+UsRf7vjbuWjb37yUO5jpIwggpcTjsMTYdGomKzI0yjGmg72sgfmUnfDpElDSVmzbGZdDcFEaKioZgRQJL/CF4aeBeSojUSeQYwceYa/JxlQ5aYgIBuB+xUbOc3vUakc5XMHalINSh9AiKd2lEnobnA5Gl0UZqiZzpp5IsrXj2N4NpPHg7OH/FOkbMpYPCDjTu/rnFF1QakqaezA8dvKTG+zKWclV2owNDClLZzqd4fdNxGVigpKcFB1wopKrRwJCEqyyIC0YrYg0eytjWrXKzWhbznewePbjd00IB3SGDMKW/5EUxUYJTfWloHDBl+z9IXz92m/qPtNBEpWwTMr/2bhbTfJcj++OgbHuxRv1fvZ6ZcXbvqdeaKLLo9TpELbY/T7hktC4+ezDh0Z6Wk8gUtsMCcpfHvzcFE3oOAHgs/8SbXbRnUwuZEOqqREM1WaiphF8zlUGSUZYEu6vwZLoJu1s1RNEPHItlyMlBZ9OG5zrehShLgoa8dEVj+Uyamr9iCTDkRqiMBQZrpItPgacpsRnM5BQQmUkccaWQxxUe2R/Y0zVdMSQQVsmggLnACmemzKuHLyX/a23IhH8TzPabYDc1jv/jysyOiAA/VVKz/edNn3RrWa3kpNgtdIkmiue1Mx+g6nbIZGAYCmjnwXKdlqRj5d78/BIfTYR7d8cZbb/aZ0vPRFy/kNeQLDAx4zlkiRQVGFaE+1bNvm2+mvbDkAuwVWGRFHn1jl6duqFipfPUyZcqViYuPK1ehcnLlKpUr142NcZa0SZDMUapmT5lhLo0owUt+ZX5pSMDRY4UIzKZ9G2slV7zqoiKY3ZlbypYuVosjmAu4i3/rQ1qMvSvxluafKx4H8qhQQZBho67qkAZRtiOULyL5UhpJ0p/9of1mM+6W4QrlobR2GteX8+D/7qmLJBdAG09ZOvDI+E+RE1cJp/VY6E46riPPHHRL3Uz0Yxb1nVk9U9tCJIoxZ93ZPNDMCCY6SsJQ4BDCcGXtyz2dekeslbxSUsd0Sx3YfxoVE4ZChvLy1Bl933m+26RLuWaTXmn3TBwzdF7BJC8N9aLkJX2jm0ekhKnkXoI/EIbLbjPFJRRSzSjHHeOEP6Bj+ZerZz/f5sLqcNoOGp+SNrjPO3/IwUQn/YQFhJ8fNOyelRPT/lJg6nft3rB+3Xo3XVv/2pvKlK9wdcXyxcoINGiQqmIosUqLWKpvkyJBqhIkgaSqJ0rmR95fJHKhKFgwU3hHj2ccuqvi7yKYTfs31UqucOVfCMw5E+3SWWAuxSX/hufc/ESJ+JvvXmIrX7Z+Ft180Q1ZckH1K+bRDwp06NSYaAYxlKWj5U10OLf5VxoEhwwjGIZT1OH1ZaC0kI3X+zWDk8bJhHSIsSL6vbkOP5xUcdpZCppoh0AnBih+c/h0RGBoE5XWTNEvSYpSzIHgJHROhKg1gYSPvhGFMDxaNgJ7f3pfm/RQRyspzVm/ZXWtmjVusUf6dvLat+961fbFM/deyjWjAkO7SDRB3ez9It30+/2Ii/OahWgynSFFUzLo32mZGQqbhXR0zo8vpMHllii2893don39vZ/P/8tBW1GBeRcGXL+PYMxRYnaoT/Yc2OabyWMKFZgqTVPiWt7Xskfb1m0eKVEirkzQr8uSTRQoqAz6dTglanc1EDZbRiJ1J+GwDpu5TRx5P5GZ7fnzfCKPoe8k2uU5kfFHgZm3af8vtZMr1PkTgcltkOQ954uFBeZSPPLves69Q1okXHPdp0FvEgJ0nIjgBFVTyXbK/IehS+TxFN1EThcw+5D0SM6AtqjtbicUOlNaNmALUxSTi+EdbkWteCCWKjltwOoDOl78cAUyYysjT5Fgd7qhBv2QETKPQ1EFSjDTzlX03AkjBNkIwa6HIUCE37BDsHugqxqcQhgO33Fkb/i8ARaM+tYqTNd0erL+m9Nf+8ZpEx3BsI4tW3/95oHraze81OtFBYZGZtJn0hSYsB6G10u9OpFS+mCAiuiciPEICAUiekvxISWDKZqjjfpAWMXREyd+blOjXL2/ei3RXSQSGGe+wNCOlDnemKqtfzuIc/DQka2XT0z9g8C0Gzbp4d5PPz7e63YkmkeIUELaLsAX1M3D6DwuyZyeSnU5AYXaACKNidEq/UhIQy0mpthQe0Bk9jLtt0cExsCJjMzCIpjNtZIr1GaBiXzk/v0/9VPiYm9rMlkqX7NztlwcuuCOdD1T3GsEzT4lOggt8pMvMFSIJ0IQNWjmWoYGk9AyRof71FE0LxuPvh2uBMWxeUFAjQV6vrYcm0JuBF0lYYRt5odHNoLmczTawaKGHHM3iRyTBCYAh6GY34CUHLY5vOaxtLFCCHLWvuMZS9+rDAuP23jh4xXz72jauJ2Dyuo1KOMnTHx6dupzFz2gKd9BChMYqiuKDNUSzEZE84NPAaO5TxMZr0Bdy26308yD5/oUeBPsyPMBH3/6+cRhHZo/92cOGBWYmTBABwqYFdT0ky8wqgyt9/PDWq985dwl0qA5S8a1T2ne2wjDRhULKlXI0hlVZte0zTxpMTr7K2Lr7DG7kUGFBsKHDx3ZG+N2x8R4vaUpv0SPD9MpFfQEGoNqAMdOFLpE2lIruUKtixGYz/dkbi1TqlhNzsH8U+Wo0UOV4m9rtVwtXrVqnkHJE0ckmtAV2ED9K2YfvDnBzjAkiJrDTP6GxRB0c/RCtACBCsJ8OUgOZmNyn1vNrmo31cOEgF0+YMjcL3BUj4eGeMDmAhQfHG4nQrR4N+traCi4DQhmQxKogjhgrtsVUA+TBJsRhjt0CqE96/sFpve86JksF4r/qvsevmH2rLfW0JGriqJC0bQT17dtVhGrVlH94CX9NO4xpO1L48xjS8wmGfNcJNFAmPqyBFskAqB6FyUyd52w0jIpNy8Ij8cZqRqgDTWKGGhJ6raF+w8a0+6z8QMLlvmf89qokndYap+Zgg5bYQKj2aA/0yu11erJI89EMB1GvPrIwAFPT9Gpq4Buuaqf6cKmZQ2d8hCk0Q8OKjMwNwDpLWiKiuwtW379ZfOWLet3/bp99eIJg9I/3LTzuxrVqt5gHj1D3dyyiBC1DoiyGeAcOXriULMqJc/ZRVrwy4GttZLL1zTPQTJHNvxhm/oPS6Q/F5jM3XdXSuRmx0vy2qJ8UrN+DUs0vXdVtj1WCtmoXZEydZEKXnPlX+B0AYkOTqPQXdZgyPTNFoxEPJIdNlWBN+s47qpZHs+0qQAPBTcuIOO3ysqBb67E7oAT2UIJBAUnJJscOTqWtsJdTmj+30p/6VMmqJCouD0c/TdnDFS/Dx4hjCQj29i38NVy+Ob9Cy74ulhM76/f8VOdOtXqUnBGR8d+/c3Pq/6vYb3bL9ZOwcdHBeZDs0c9KjDmGkOMdBzTNzrVwzidwImjOfuXLf/8o64PtO8hyxAphaEokcFNJHgOOuUwaOB0XiDzkSefunbfonf2Ffba2g4c22HokH4kMFQ8W1gEo/d4PrXV6lciAkNDzj9a+MFel0NIpIpYynk57AI0hbpaqXeMolQzG6fm+dXj8xcsmrH622+Wr//h8A+F9STN37jr2+rJVW6SzK1pOoJGMjud6aQIswju8NFDzZPLFCowlAymFDELzOV43T/pufW7uR3XNXg5vubVjx0PC5EIg5ZKMh10L0OjD76uRE8boO1TGVo4BJGEgEZZmgkDm5lg8BgBxOYdx5TnbkcFO5CX4Ye7mBtHdeC5CUtwxJaIHMNrdlebA0LIZc3csQCby45wWKHsp1mPE4mk6JBiH0rZw8jYuPoFdcYTfa1C9/iE6c/26PHYBJoAF50JbLw9a86gyU93HXM51zyfwNDZy1RIZ3Kk4rMjp7c+8Ui3JvtWzT827YsNH9900zWtzbnrdEtstI2tQqYjDCnfoQE7du37ocNVla8v7LXdM2h8x2GD+8yi5EehEYwIo9dzqS1XRiOY+4ZMeGzMsGenh+g2m8cGU/WtAtkcoUpLOQNBVc15++13R0zp3e2vtsqFT7Yd/KFS+bL1SWCo0I66uEOmwNDxxAL2Hz56uHlymXIFX/v8Tfu31a5aoYa5WVlooV0gr0GShyaCnPnhCOZyPPPvfG6jXpVK337nGr87IVHzJjg1OBCk8zRokU0CQhPRzLFlKvX+RwrkzEYa8ncJBpVOUp4k1gEp+zBuSBCz0h69OcETjjw87AC+3a1i4scrkesqgTzVBdkVYzqdoUaXSeRVtB5wuyOZyEhxCGLtApzZB3NPLJlbFd++bsmIzFp0JvVb7662y3CYOQYZNDUg8ODjT1+38d3JWy7nVkQFZqFZx1pgiWRyoxEMfg3bduxe3aVTrzuxK53a21G5SceS78x+a0OJ4s6ygYABR3TkJYkNBRXRaALvvDt3+KQnOg39/eu7d+DYTkNT+82m6xUmMEENxqBho1stfXGQOQ9m0rJ186+/7pp2brtsDpKi5K4SCJmRh0RJfwPq6PETnpo15PnpF8Ji1ZHcoyWLe0uZzfBaRGDMHSWa5WwIOHz8+OG7KpdigTkPzP9Gkvf3b+6+ATXik6+cKyaUqBaWXY6wzSWroh1q/rBTijRo/1EQ4YQMxR+ALNG0Mg1O2YFg0A/RrsGlZKN06DR6tL0DNybbIYcjOyIBO/DOqj1Y+vMO5GixCMke6JITIVqn0zJLpG9Lc6hrtPZFg0tQ4QmeQsZPX/0f5vaz5KjTSo1SSr05840fkorHlaN5sg6XYNZ1bNm2Z8UD9ZPvuJAP1J89Jprk/aigwNA2fSCoQBdl2H7blRk24uVO84b3PjOugew16znsrnHjhywSqYFcNeC0CeY0OzNZSreCJs2FEe7bZ2iLZZOHLy/4GtoOGtc5bXBfimAKFRjK3Q4YOKz1sklp5kS7z3ad3F2hfGIVmgdGSyQlpCDOawc1NufmBpAXUA41KhdfEaARLn9e0Zvc+oGq82bP3OF1QqDvDtpxJKGiH2qtpSXQ0ZMnD99ZqeTvBebXWskVqp8vyXs6z++7OclLa3iOYC7XKf9nz2/VzQ1n0jWu0lU6iHHF7nTGFasMp1dWDAk+nbqqI+PjRWrHVQ3YHG4ofj8cTkrGqtD0IGKpXiUvA6XFwIkuja87dm3VclclxkgIiMAxA1i7KxfLv9uGHUdyobriobvikBWg9jsRjrhYhKgHBwKchgJbznHkbP/hWWTsn4L0V81v96L8eWjc5O5dO3canlQ8vjgFTDQQib50v/zy64Uvpo7oenzTMt/lXq8wgYGhQbbZaNwlQr/NXBk4ZHiHZROH/mEm7129hrQYNLD/zBLFXAnhEKCFo5W/ZhVwGKJsQ0g3/K9Nfb3ne327z8h/re0GjemcOrh/oQJD0yU1Cejx3MBWqyaPMQVmzXF/TkKcK4bExQwoo3N4FE1FTIwdO/ecOHBX8tTKfyUude7vltyvb99Zdesk30j5f928mGoutc4KDJBxOvvY7WXjSxdkO/+X/TtqValQjQXmv7JN/WefnJQUCQfsHhQvV9FWouz/FStb5SFHQlJ8yOZAgDJ9NHZBdkC0OxFQguZ8XskIQw77YddCEHw5u3P3bhsZ3PnjshljUufeWLf6LRBUISjboToFnDaAWUt2YtUv+5ElxECKK4k8RY8cRxsOwOuQoWcdhX/H9y1x6POlWLUqetTk5X7cI8+v0rJTtUkvvZhevWrp5DwfVZlEB2EJwPvzFk0c82DbP90GvphXEW0VWFQwgqGENtWUiHYZkhNIHf5ah/lDnyl06Hf9Lk/d8MbU19Y4JNhohILXbUMwqMDmpClz0eWSAbzx5sx+U57pau6w3Tdw7ANDUvvRNvUfIhj6zFPjap/+qa3yZ/K+u3bzj/Wurl3PHOdAkaqmmUV+WTl+xMa5TSGc9cFHL77wJ/Nw7hv+8gO9nu4xNSFG8JpHmJtz42kGUCTXlL+tTatrv6IFr4uTadvyzM/8Tft31q5aoer5cjCFRTDpezK3lS1VrEbh29S8i3Qxfvq/fWytFDsqVK6M+JINEBd/gycuoWZYFzyqKHshC3m6GshCbtZ6nMr8Epmn12HFuMh5RSkpUszJYMKbE8YvqVm9ynWUyM0JatBlCYodWLYpZMxa+rWQBTc0uweGTpkJDU5dwYlt61Kxds34wnYpLgdG455DUkalpb7pdsoxNAqB+n/M9IAILP70i/kD72tayNT7S7/iHT0Ht35x7IiPCwqMoWqIibXhZLZmHnbXf9jo+5eOGzTvfFd5btqc/g926TjGKVMlbRjUcW02n9JMQlU1h1eFwlDva9ulwv6ls47+XmAiuZ/otNOowDzXd1DLFa+ONnMwg2cuHNvlgbb9fNlhs3vb7B3SdbN9gXqkVINGZQr6Fyt/mDfr/Vmv/vD2K2ahY3KbDuWvqXf9LR3ad+xZoWKp6+mIEtpuN9+rbph75HTd/G7uyExegcqe9Fsa3VcuY83Co/nvecGm/buqV6uQnF+zE2lbitTgRMY1BH03J7nPWSKl78n8tWypYtXzBcaMkmi0iNlNzQJz6V77v3xmo0aReDcpyYh22f5lG7+7/l2l33xn+qKaNSvUpxlWMo2IkwXkyMCxEPDyu1/heK4CRRdhlyXs2bzxZf2XrWnYML3IDlar0KJTQu8eT09rdOtNKdQzQ0sBqrmwO6kvCFiSvvKzAfc0vqSGxj+7HY2792v14rhRH8e4JSFIO0E0h1cQ4fMH4Y51wv/b6J3UYePuXzyu/3kFhuyvOJB1ODE+rgyNcqClDE3ul+zmHPFIGT6A1yZP7zn9ucdfua//mI4jR/Wf48sLwyHbYKOktTk1QYMhSaCjh/qlDmuxPNqLdGVKtytnzpy2AVQ3Y+byDdhtlJg9u5sk0HCw6JyagKL4RFG0OZyynfJChiDCRqcGBCM7Xvk1mLQyMqidIFqbGgqF4PI6aFA5Bg8ZlvLx+LQF+eze/+XgzitrlasaDlI0rMFubnFHmyUlCSey/L5bS3nOEZgvD+dtj3XZryjmpahON5PJdKKAYBfw657Du++rXo7rYP6XWvG3XvumFNe0l0Z9cl3dare7dUOib6YAbXm7gEwV2LQjmP3RJ5/FHT9+fM++td/Wg8umYNU7l1zgdva9pYnPTK7au31KyhBvjD1WC+tw2EVED+gyd4w+XLh0xrAOzR6zgkerPmktR48YuiiQ55eSirvhyw1D1zTExjmRmRWG3WvD8FGTOswffv5zkeh1DXxr0cguXdoMotyGEjZgt9PMGA1uj0SnBJid2Z8u/nTS8C5te7UbOKpDaurAubTaCVO05JagUI9Y9NTe8G/Vwc8NHNaiYLPjqIVfvNHy7saPkvC66ATI3Mj5R24HDRuPjE11ORzw+fxm7oeOI6Hr0/xcOszNPNERdMhaYN+0qa+Pe/a53q9Swz2N/KSohn6nZVJeIAzJYcOHiz55M61Dm0fzmb+9ftfmq+sk1zbCBjz03vJy4HC4It39ugCfYuTenGQ7pxdp0bajO2tfUapqyKdDNudSkLgAPhU4dOzE9tZVSvKxJVY49T/Z5sBZS165/97mj9rtcOUGYeYggrREsUf6WZYu/eHLSZMmPJ2XcfwopBgFGxYHLuUM6pr3P1KndbMWnZs1v+OJkoneeLJNG1QxXpp4H9mKDoXge2ny1MEz+3V/2Spm13R+8sZ335rylSTCHqJzguw284NGhXNOmsurw3jsqT6Nv5vx4qo/ew3XdnmizuRJr66XJdFBM3ZpmUQRQnZeCA67w5xu8eqk6f1ef/7x8U2fHNjipVdGfWr2lNJOEFUFUyKeqglIoAA83v25m358Z+I583UX7zj+c3KVElfnN2DSDDJNjSRpqVKBohFV08yjgykB7KJWANBxrSHExjuMrVv3b+jfb1CTXemzczbkGn6nEy6qp6SIMayEYaf3/lv+xxdSsXHr1u8fufHqG/Lf84QV6xc3vLF+y1gqwwoBHifg90Vqf+go8207D+xud1XFcyKS2T/tW1O3VsWG9HgnDQMIUQsLYPNIWL3ul1VP3nzVZRVJWuUTf2X3v7lN/Vfvugj/vVW/Ue1TB/V7ze6UkigMpy4BH/VNioDLTS3/RmDDj99v/O67tUs3bPh5ze79O37KWbuWjig5/2H3tVLst95csWH9a+vdfv21N7SuUTP5KnrJ0cZt89ubcgEkNFTjnuvL2zGwz6CHvp87eW0RvrVCTa3NCh902ORylEA1C+fM7mPD/GbWBe0MSVQAAAjSSURBVJy4NkYoeSGv4d21Wz+sW7fmveZmHjUi0iyuyKmJ1KWsPtDh0ZpbPnlzV4WGLRIWLf30cCCgujxu2Ty+NRSMRD20WsnKQ2aDeCHx99csU7+Ve/zUCZ/XqlPtZmqYPnNYDCX2SWhECW63YFYeU1tDTh6JjUhb+74P5n/2+vBOLZ/Ptznqoy+mNL+z8RMwIMR6qN7HgKaEzeQ01VDOmfvJ1NFd2nTPf/zDk2Y+3P2xB96inA3V7ujhMGw0P9g8LkXCgkVLxvz+KNjn3/wwrVP7e4c6qSaTutKjbW0ZOSoWffbZ0BceuGf4hXD9pz2GBaYI7gidn/zkk0+9elfj21qGFd0Z7xVNgfH7AtCp98jtpGI3aBQia6J68MjJY4cOndwVDAWyfbk5OZIsiS6HvWR8sWLFS5UoWSYxsVgSldeTgNCHj3IBZvcBDYFWovV79IEU4FuwMH3qGxOnDj2yYbGlpxLkY2rZd3S74UMHvC3J8FKtCSVQ6ThXQ4B/zPhJT34w5I+H1xeKOCVF+nTc1HUVyhSvTy0EHo8Iqr4VbVBeGDf12ZmDuk/Of94TL7/T+5keD75ALUC0q0P1kmYdjST6X3l9Ro+ZfR5783y38bGJbz+Rcl/bvpUqxJXLzjFsJEzE058XKfun3T5JElTJhpyln69e9Pqbb43etejd3QXtVWr0kPOFyaO/qlSpdH1qJqHibHOOu0DjGnJ3dn28c90ji8/l/8Z327++6forGlBEkl/fSUuvfQePb23daUhdbJgebY6LXIkGgy3+7NN9cV4xge6136/C7ZW1LJ+649Y7brwaGzac8/gicNu/xQQLTBFibvxkv+ZPPfnk0Jo1Ktb3n/bJMV4nJFEzW5wC/pCZQBRtboSo9iYqHGooEu3Qjyki1Bh39rQV8+/MBmKKjqi3kqqJwwiv+379F6+9/vrArR+++VMRvoULMlX3gR43d3vkwWfLly9fSzc04fjxYzveePOtiT+8/epXF2SgwIOemTK7X6Nbb23rcruL7dy1Z9/iz5ZMWDFp6NLf22k9YFzrpk2aPFyuXLkadChEVsap7e/Pnzd16UtpKy7kmnf0SLu7QcObm1SqWOn6EiVLFHfIkpyZmZmzY+/uH79Z8/VH6ROGpv+VnYcmvt29UcMGbe0ue5mkYsWD6enp6RMfbV/ocStk69GX33uuwU3X3VuxfNnEI4cOnd68ZdunYx++b8T5rtO017AW/9el86CSJRPjc3MCp7/6+qvlL3X7ddhf1ez81ev+X/47C4wF9G98cmDzxx9+6Llr61VrGA5qDjqJlCY0SbIYPY0QdAqiuZTyOKjo7KywkKCEQobZN0WRAS27qOYzJwdGMBTO3rDhx/QZb7z14qaF03+04KWzSSZQpARYYIoU57nGGj6V1vKZJx4bdEXlMnTejUvXINOBkgHapaAeTGrojrYvUcFpfgRj5ljM84OgqRpyf1j/04/ffrtu3qdrPpl7Kj09x8KXzKaZQJESYIEpUpznN9b06SH31apZs0615MrVy1UoWyM2Ib6ky+1wux02B82TDoWNYG5ubigzI+P4vn0HNm3Zvn3ngQN71618bdwflgt/00vmyzCByybAAnPZCNkAE2AC5yPAAsO+wQSYgGUEWGAsQ8uGmQATYIFhH2ACTMAyAiwwlqFlw0yACbDAsA8wASZgGQEWGMvQsmEmwARYYNgHmAATsIwAC4xlaNkwE2ACLDDsA0yACVhGgAXGMrRsmAkwARYY9gEmwAQsI8ACYxlaNswEmAALDPsAE2AClhFggbEMLRtmAkyABYZ9gAkwAcsIsMBYhpYNMwEmwALDPsAEmIBlBFhgLEPLhpkAE2CBYR9gAkzAMgIsMJahZcNMgAmwwLAPMAEmYBkBFhjL0LJhJsAEWGDYB5gAE7CMAAuMZWjZMBNgAiww7ANMgAlYRoAFxjK0bJgJMAEWGPYBJsAELCPAAmMZWjbMBJgACwz7ABNgApYRYIGxDC0bZgJMgAWGfYAJMAHLCLDAWIaWDTMBJsACwz7ABJiAZQRYYCxDy4aZABNggWEfYAJMwDICLDCWoWXDTIAJsMCwDzABJmAZARYYy9CyYSbABFhg2AeYABOwjAALjGVo2TATYAIsMOwDTIAJWEaABcYytGyYCTABFhj2ASbABCwjwAJjGVo2zASYAAsM+wATYAKWEWCBsQwtG2YCTIAFhn2ACTABywiwwFiGlg0zASbAAsM+wASYgGUEWGAsQ8uGmQATYIFhH2ACTMAyAiwwlqFlw0yACbDAsA8wASZgGQEWGMvQsmEmwARYYNgHmAATsIwAC4xlaNkwE2ACLDDsA0yACVhGgAXGMrRsmAkwARYY9gEmwAQsI8ACYxlaNswEmAALDPsAE2AClhFggbEMLRtmAkyABYZ9gAkwAcsIsMBYhpYNMwEmwALDPsAEmIBlBFhgLEPLhpkAE2CBYR9gAkzAMgIsMJahZcNMgAmwwLAPMAEmYBkBFhjL0LJhJsAEWGDYB5gAE7CMAAuMZWjZMBNgAiww7ANMgAlYRoAFxjK0bJgJMAEWGPYBJsAELCPAAmMZWjbMBJgACwz7ABNgApYRYIGxDC0bZgJMgAWGfYAJMAHLCLDAWIaWDTMBJsACwz7ABJiAZQRYYCxDy4aZABNggWEfYAJMwDICLDCWoWXDTIAJsMCwDzABJmAZARYYy9CyYSbABFhg2AeYABOwjAALjGVo2TATYAIsMOwDTIAJWEaABcYytGyYCTABFhj2ASbABCwjwAJjGVo2zASYAAsM+wATYAKWEWCBsQwtG2YCTIAFhn2ACTABywiwwFiGlg0zASbAAsM+wASYgGUEWGAsQ8uGmQATYIFhH2ACTMAyAiwwlqFlw0yACbDAsA8wASZgGQEWGMvQsmEmwARYYNgHmAATsIwAC4xlaNkwE2ACLDDsA0yACVhGgAXGMrRsmAkwARYY9gEmwAQsI8ACYxlaNswEmAALDPsAE2AClhFggbEMLRtmAkzg/wHzGaHMJKHNHAAAAABJRU5ErkJggg==;resizeWidth=1;resizeHeight=1;imageBackground=#006666;imageBorder=#009999;dashed=1;" vertex="1" parent="1">
                    <mxGeometry x="380" y="30" width="110" height="110" as="geometry"/>
                </mxCell>
                <mxCell id="57" value="Kiali Dashboard" style="text;html=1;align=center;verticalAlign=middle;resizable=0;points=[];autosize=1;strokeColor=none;fillColor=none;fontSize=12;fontColor=#FFFFFF;" vertex="1" parent="1">
                    <mxGeometry x="380" y="140" width="110" height="30" as="geometry"/>
                </mxCell>
                <mxCell id="47" style="edgeStyle=orthogonalEdgeStyle;html=1;entryX=0.5;entryY=1;entryDx=0;entryDy=0;fontSize=12;flowAnimation=1;strokeWidth=2;exitX=0;exitY=0.5;exitDx=0;exitDy=0;exitPerimeter=0;jumpStyle=arc;jumpSize=16;" edge="1" parent="1" source="32" target="30">
                    <mxGeometry relative="1" as="geometry">
                        <mxPoint x="700" y="460" as="sourcePoint"/>
                        <Array as="points">
                            <mxPoint x="660" y="460"/>
                            <mxPoint x="660" y="150"/>
                            <mxPoint x="917" y="150"/>
                        </Array>
                    </mxGeometry>
                </mxCell>
                <mxCell id="58" value="" style="shape=image;verticalLabelPosition=bottom;labelBackgroundColor=default;verticalAlign=top;aspect=fixed;imageAspect=0;image=data:image/png,iVBORw0KGgoAAAANSUhEUgAAAZAAAAGQCAYAAACAvzbMAAAAAXNSR0IArs4c6QAAIABJREFUeF7sXQeYVcXZfue027ayLGWBhaUIYuyKRmMQMMZETaKJ/tFYUYzRVGtsqGiMJbbEJEZRY9dojDGJKYqKLRKxoYD0XZbm7rJ9bzlt/uebOedyIRrgsuUuzH0eRHZPmfPO3HnP196PQX0UAgoBhYBCQCGQBwIsj3PUKQoBhYBCQCGgEIAiELUIFAIKAYWAQiAvBBSB5AWbOkkhoBBQCCgEFIGoNaAQUAgoBBQCeSGgCCQv2NRJCgGFgEJAIaAIRK0BhYBCQCGgEMgLAUUgecGmTlIIKAQUAgoBRSBqDSgEFAIKAYVAXggoAskLNnWSQkAhoBBQCCgCUWtAIaAQUAgoBPJCQBFIXrCpkxQCCgGFgEJAEYhaAwoBhYBCQCGQFwKKQPKCTZ2kEFAIKAQUAopA1BpQCCgEFAIKgbwQUASSF2zqJIWAQkAhoBBQBKLWgEJAIaAQUAjkhYAikLxgUycpBBQCCgGFgCIQtQYUAgoBhYBCIC8EFIHkBZs6SSGgEFAIKAQUgag1oBBQCCgEFAJ5IaAIJC/Y1EkKAYWAQkAhoAhErQGFgEJAIaAQyAsBRSB5waZOUggoBBQCCgFFIGoNKAQUAgoBhUBeCCgCyQs2dZJCQCGgEFAIKAJRa0AhoBBQCCgE8kJAEUhesKmTFAIKAYWAQkARiFoDCgGFgEJAIZAXAopA8oJNnaQQUAgoBBQCikDUGlAIKAQUAgqBvBBQBJIXbOokhYBCQCGgEFAEotaAQkAhoBBQCOSFgCKQvGBTJykEFAIKAYWAIhC1BhQCCgGFgEIgLwQUgeQFmzpJIaAQUAgoBBSBqDWgEFAIKAQUAnkhoAgkL9jUSQoBhYBCQCGgCEStAYWAQkAhoBDICwFFIHnBpk5SCCgEFAIKAUUgag0oBBQCCgGFQF4IKALJCzZ1kkJAIaAQUAgoAlFrQCGgEFAIKATyQkARSF6wqZMUAgoBhYBCQBGIWgMKAYWAQkAhkBcCikDygk2dpBBQCCgEFAKKQNQaUAgoBBQCCoG8EFAEkhds6iSFgEJAIaAQUASi1oBCQCGgEFAI5IWAIpC8YFMnKQQUAgoBhYAiELUGFAIKAYWAQiAvBBSB5AWbOkkhoBBQCCgEFIGoNaAQUAgoBBQCeSGgCCQv2NRJCgGFgEJAIaAIRK0BhUCeCHDOGV56+Gy7vanaOuDLt7MRezTneSl1mkKgXyKgCKRfTpsadF8jwBcutOCuPuyTx381e9WShaP2/PL/PZnY/7C7ccAxcxljvK/Hp+6vEOgNBBSB9AbK6h47FQJ89Rtj8Oo/vvP+Hx+5tqyjASUxC21cQ6p0KCaeMH06Jh/3J1Ze07pTPbR6GIXApyCgCEQtC4XAdiDA5z03dcOcp6/f+PYLnx/qd2GAAfhdXYBhotnT0RStQNVhRz9RcuQ378Ee015R1sh2gKsO7XcIKALpd1OmBtxXCPDX/zyl6fd3PeSv/Wh4zGoDd5KIccC0dPCMB2ZEkIGJjX4U/pDd1g0//jszcfR5DzDG/L4as7qvQqAnEVAE0pPoqmvvFAhwzjW8+ODpH8/+5f1DmupQZqSBmAPfs+G6gGUBoKgHZ4DLwWGg0TaRGjoGQ489aaZ14ok3MzYus1OAoR5CIZCDgCIQtRwUAv8DAb5sWQQfv3LyR7++/v6hTiMqyORwUpIwIjpg6kgmbcQTDE6ag2cAK0a/K8KGTgep6GAMP+yrj5sXXHimIhG11HY2BBSB7Gwzqp6n2xDgfFkEf/jrJYseu2fWSHsDErwDsFyAHFIeAN0C1zhs14VuANzjMIstoMOG7QBWcRytrQ6aoxUYdNS3Hi867XvfZ6Uq1bfbJkhdqM8RUATS51OgBlCICAi31R9uuGLRo7+bNczrQKmfBHQXXsaDHtfgez7ANDCYgM/ATAaeTkF8oaIawH24DqBF42hjMaxNGxgz+ejHY8dddiYbp9xZhTjnakzbj4AikO3HTJ2xkyMgYx6/OmPpvb+4b5jbgUimDZrvQ7OILHy4tgcjbsG1XRhmFDztQpR+mAxI2UCEAT4HDCDpAZoVgefF0KGXYtDnv/K4dtyFikR28jW0qzyeIpBdZabVc24zAvwfd5654v4b7h/itMD0XTBQYFyH5gOGR74rAIy+Oho400A+LUZ+Lc6le0v8HuA6h6tBnKe7dGwx6v1iVJ989lU49YSbGdvD3uZBqQMVAgWIgCKQApwUNaS+Q4D/+0+HL7n72pcrWxehxLWh6YBH3xJugIwMw/ckUQjioD+UfEXuLF/8ntxZIcH4GocDjghlaYmyQh0oq8Z7SQ/7XnDxdPalHzzQd0+q7qwQ2HEEFIHsOIbqCjsJAnz1/DHrf371HKP2/ZEJcyPihgPf9QQxMF+TVgXj4g9ZFfIH8i8iC/pogkAYfKbBI2LRfXg2ENU1wNGQSRtoLx2E1cUDsP/5l01lB//fyzsJfOoxdkEEFIHsgpOuHvm/EeB8VbT19tvvbf3bH08ZFfXh6+3w3C6Y0siQlgXxhSYtEg0cgjMClxX9nMpA5H/IoUUuK4DpgJtxEbU0IEWWShQoqUBtisMfs3f96Euu249VHdCk5kQh0B8RUATSH2dNjblbERCqun+++YwFv731/gkRgLVvhJmIQpgOmgtpggTFguS2YhyuLglEC0Ii0grZRCBEMUQi4iDuQnO5vEwshnRzCtGKgajtZKj+yilP6D++/aRufSB1MYVALyGgCKSXgFa3KVwE+Ft/nLLkritfGtK6DsU8CY0C5DYDohbgdkoCCTxWgiU0IgtpeggCEaaGJBlhgMgIuvg95xwaWS2+Bz0C8JQMn/BOAGVlWOGVYexlN09jh574UuEipEamEPh0BBSBqJWxSyNAxYL1l10yR/9o7qFV0Qycri6YMQN+l/xqaKYrTQ8hVUI/IOeVdFJJhpAuq03pVwGc4c+JYEgrCw58XZwOFuZecYb1SQuxQ760tOySyz/PSg9R/UR26dXY/x5eEUj/mzM14m5EgP/5rukr773lvmF6CyJuO1wPMOIaHNeApmlgXkbEO0TlOfEFMQA0MMrGEsaGtDTAg+ysMGYifgbAiALJNDhlYkU0JG0fBoPMzCJFFCOOD50IRp978dXF37h8Vjc+mrqUQqDHEVAE0uMQqxsUKgKUddVw5fmvlLesHO65LYiaVMtBMiU+kqYOZhkw7Azox5sMjpBA5FP5glDIlUWWii8ze0MSEdcKrBSNiQC8Y/giHm/RoXQ7J4KWeAXWDh+9fs/rb92TlRy0sVDxUuNSCGyJgCIQtSZ2WQT4EzfObHjsjmsHpZsBg2IYVAhIKVY+0iYVAXJYPodBm30244oCGJIl6C8qFKSP6RIbeIDOZaZWED+nGLwkH/JdaXBIM4t5wqrRSQLFttDOoqi34tjjpHOvZSddfc0uOyHqwfsdAopA+t2UqQF3BwJ8+ctjV9x5zdzYkteqqnRiiKiQYhdFguRe0j3YRAgBQYhqcs7AAouC6waVdUi+gS80FokpfN2HS8WHMlkLUSewQnyD/Fkiti4LD10Zd/ciQCSBDgfQdz/4nfiPb/kyG767skK6Y5LVNXocAUUgPQ6xukGhISDSdp/6+VUfPnbHtcPcBgwQMfAYYPtC6woR2usppuHD1qUBQeRBlggjoqC2H7ourA8iA504h/7BfGG1UIovkQj9POLKTGB4kkCEBIpgDsE48FwfuhmDk3SwPlqJ6h9fN4MdOX12oWGmxqMQ+DQEFIGodbHLIcBr59Wsv+PSN+yP3xhamfAQc30w1wz8UQFL0CavA2nhcmKIuExWnwsZEyIIqjYnMpFV6Qal9/qayLTyNE+QCP2aLBNxniCQIEAiGhQG9SUm3QBCkHG9UYLio05+pvj7Z32bsQPIdlEfhUBBI6AIpKCnRw2uuxEQSruvPn74x7f8aM4wvwmxKOA7HKargZHwlci4cmUwXQcck/5Xg+lR5hWRC1UPckEegWoJqZWAUXm6b4o4B9d8eJojjiUrRPCFKFUnEpGuLhFdD+tL6Ecc6Igk0DRs3Maa03/ybXbg6S9297Or6ykEuhsBRSDdjai6XkEjwOvqyjPP/ebehr/88psjzBS4xuD5khAsyqji5MYKHkEUBobVgVqw35PlEJR+5JaAUGzEtwBuBtlY1AxEuqkEPxCxCAFGOt0TCr/iPkGNIl0zqQPNWhzDDz/2WYyb/E9UTVyBysHvgvscw9HZV+q9gnSxyECbl0BpLImVG6vhpnQ4fCQZUogkVmHYsI2sZLiK3RT06u/+wSkC6X5M1RULGAH+7kvTlv/u+icGrX1zYImfBnRdbOwebercF9aEIIgwFVdI8bLNZdslC8hPWEMoyMCC8GGJn5MFQkF4yRCSQLJ0IvqHhJ4sERcR0u8MKZ/Diw5AizcA1oBRLWVDqmvd4mgdhpV58aFV/zIrR65A0aB6DKxqQsnwFiYakXTvRxDG2o/LwZPl2FA/yl1Xd6jf2WG0NqyfUBqxWMPaNTUWQ1XacXQzXt6wrqV9RPXEiS8M+spXzmEjVDFk985GYV9NEUhhz48aXTcjwJ+947sLH7rt7pH2ehR5lPokXVShO4lRjGOzTy5ThL/LkTYR7JBTkS5SfOkTuLtyyGYTgdDtgmuEPxQl6lz0oXI8BtuPwOE6uGYiwznSZNhE4ygqqdhYXjkkaVZWvovSqg/xuQNfReXIOozWV+1o3IQvf2csWjbUYNmCybx+5R6NtR8fpqdamZNsHeCmOgDfpRJK2SyLONYw4XMNvmmKjLSak8+bwb45UyUAdPOaLeTLKQIp5NlRY+sWBMQb9cr/jMXyd6e1z3l6xsYFb+07POLC9O1NLqRuudP2XYS4g/ZixphMzJK9qYLGVKFOPDWzYnChC28RycRzTYfHNGT0ONjQsS1aVU1tYsxuz0dH1dRi6Ki5GF21mrFta5sr+r6vXFeN5UunrJ8/7xx7zYqxdv2K0nKkEPeSiGkefCctktMMSiKjMTIGTjUsGiUwU1YZQ1vKhr/bvrUVl9y/L6vZV3Q/UZ+dHwFFIDv/HO+STyhIY/mbNVjwn2m8dtFRvKFuUnp9bdxr3lAeF6m3PuBlZK5tNhDRu1ARgeSEQMTNmbBIyHoJtOPFD2mTlhlc1B/R4xweZ/C5DtuhdGJNWCg8GkO0clDj4LF7v47PHfxPjNjvabb7Z1e28xVvjUs+d/+NXSs/mpxqbKhwWhpRYRrQ7S4UU7yf3HC+Jw0OKowk7xxJt9APhKWlw/dcaKYBFxyrtDKMu/7BKWzPr7zSu0iqu/UVAopA+gp5dd8eQYAvWxZBx8dfSM1789z1C+ZNjXc2DMhsqEORl0JC80FtOTST0qtcgFJot8yG6pFR/Y+LksRJ4M5igWsoezR9O6kchQEe7dn05s90MM0A03VZ2GgHFfSGCwcu0r6PjJYAKx7W4paPsgdPmvo77H3gXOxV/UZolfB18we6r7503qrXnj+vtHn5YKt9AyKgOhcfpmkCaYoNBfEdQSShpRT0RfGC+I1Gv9TBPRfc0FDrRxE74rTHhk6/6HxWXqOskN5eS31wP0UgfQC6umX3IsD5Qgv1qRH4+O0jOl7/x/TGj+ZPiiRbURYxgEwGpm5A1ynY4QGuDZ1SbEOFXREj78uvwVZi4CKzWDazkpF9IhwGUk7RuAbd1+F5HlzDhhGl6kUIQciMG0OGFaFTK4YTK8ew8bv/J/H5Ay5HumMM/89rZ69dMP/AYqQQ4R3iqkSssmIyqJzX5D0dTh0Y5XyJ0hjKCwizx8gkYQb8tC36vzeaRVhmDcFh194+he15rLJCuneZF+TV+vKbU5CAqEH1DwRENTkWmVieGuG+8a/TVs6bc577ybKBA91mVGg2dDhSmoQ2O8tCht7UOYNlMDCRHeXLDoHiDbsvvwY5BBKmBdMUhDH2IKU4m1lMxwQ7OhEIjJhofGUzezNhYOaTiysCaAmkfA22YSISN+BnuoBkO+KOg0g8IAy6n5BooX+TNosO3/fQleEwI7LexWBM9EkhK0Vgmk1BDloxmgYyVhzLfAufO/Ois9nXLr6vf6wkNcodQaAvvzk7Mm517i6MgHBTNXx4KFYvPrzpxb+ew1vXDuZ2J2KGA4OnhDKuWNgyvgt6mSb1dbJCNHpjzxDBGBD9anlQEd5XeGb5I+h6mEsiNCaDxkhEGEjKi+PpoaQ1IlxxZDVQlhbVtwePo9MPaffPuIIbbFIC9l1YloVIELSngzl3wMhtRSJdjgfXcaBpBjT6mWXKADrlG2sUyqfCyFCxOLRYDEkmGkeKczSbMVh7Tn6t8sJff025sfpqUfXefRWB9B7W6k47iIBwVS3fMALvvH1a41tzz2td/PbAKj0N0+uCYWjQTAbflxsmeayIPDyKR9NWSzFzDzD1QEnX8UUcYdOr9w4OLu/TKVgemhsBiYQt2In4gni6SA4W1kdO2nB4XlC3ElopwjIRFgIpQAauO0uD45HulgE77SJCcRQiJYpjCIKSlkeWdakan25uEm148OHJ7oohd9F4xD0MwHaBqAGPe+hkHLXmYOx923Oj2aiDVuUNizqxXyCgCKRfTFPhDFJWJWfL7EJnC2dMlMX1yIdzbmD5SyPx1tzTW/79woyOusVDLDeDoghDBGnRHVC8jwdv5+Lv3Df7YPMVWU+BBInwAnHSsAozn3pk6Fu/aJiKJb6JIqcXPFsbGKTyUiJvGIj4tKQxcc6mTlZSOiWnDkUIPEqOEMZCkO1FcvIaaXiJa4YdFnOGLJg3p+aFUTxk05YhcdYA2wMo/sI8chxirVWBURff/UV20AmvbR0AdUR/RkARSH+evR4YO+fzTbTHipH2yxHVWtCaLEOyYwRSnTI7p6t9jN3eNiKdTjMDGjSjiEeLy+tRXLoSRVFZLBC16hEb0IoSAO0Ahk1oZ4xyQrfvI+Ic7WvKMfe545b9/Q+z/doFqHBaUKwDFB+nVrE+mRXBhzZZsdGKTTGICosVLjdTrsmAMG2k4X5MorvZzXn7htc9R2cr1wNTKZf7corMN+OULDkGpod4plAmxQ/2fHI1BRlawT5PRfWSr6SfjK4pCDT7GvAZKc25u4QgkJwfZCPsvlBcoWGsdA2MPuXaK/Gdy2/oiUr57gFeXaU7EFAE0h0o9uNr8I3LSuBuGIh2m6GzfQTW1I9zlyz+UteaNSO1ZHJE4+oVQ03uiDI23aAN2IdDsh/0wmkacKgOgNwgLoed8eH7DPF4OcoGVDVEyirXmMOG12H0+H+gashyDKyoh1XEMXy/WsYCPfPPwE64q/5T94XmJ+65zl698BC3fRVK40BRlNJMU+DpIAwQZAuJ7CSqkxaihbl9ZYOILwXORbWevGHOvrf5htjbcxkSSGAlidsz/7/qQ7LD2jJpi0gi6EsixB2DDxGDdE1l6TWInUhZFSpElBhsarco9LmEFZRVYJFUs5nbLCAtwphMHcpsMykTTOp+6SZQ16Uhcuh3Xhvyg5nHsIpx9AqhPjspAopAdtKJ/azHEhszieKtXr8nMu2av/y9w9YuXXBk/ZKPv8A6OjGAM5RyjoTroMjzwShbiQruaAMWMk9CNVD+f+D+Jje7CC1Q0yR6zfV0cNeAzSLoYiaSZhRNYCgaVbOxaGTNqiF7730PhgxejmGj1mLgf0tw8PdfnIJlCye/88Cvr67xWlDit4BZVGsg705DsSjoa5giAykQ1ggeORQ9DP4pfpmTNvRp0lF9moWVUzCYO2lb8wiK59pkMQje3CxDawsCCYPvQVEi9XanH4WkI5pchZYa6XQFRCXUhENDJvQBZr2YRCBUT6PD8z0RbqE4SqNjoXXEwWvGXXr/OFZTk97FvmK71OMqAtkFpptzbqJ9UTFWrNwXi9/+AmqXTaj/YP63eWcruJcmTxBipgFLY9A8B9yxRbaNqA0QWTfBa6zYfIKNKXgRpewfcl1QlpNI1hFv0KGbw4DLGTQzhi7HBY8k0NjaDmbFYCUSKB817r3EXgf+Dbvv8TLG17yHjTEfnyw7YPWDsx/ma5cMLfXaEDdofGTzyGI6uoPJImAZDa5tgycYPM2VkuoiSygocsvGDMKBBlZJ+CzBm74QO+zTb8H/uHmutZFDfKIsZMsYj+CSEPesJsrmkvEh54gHpuB6YK2Fp5HlE/wRMfWwwDEnFBL4wDZ9a4IUN65LaRPP4Wg3SrAuMRJ7zLyjhu0+pXYX+Irtso/Yp1+dXRb1Xnpw3lpXjqamCix9f0rXwnePaFny7jS+obailCdhZNoRNxhgUkMMyu13wH3KTKKUUF3mvpLY4GafIOBKG1DgwqAMnc3c4lRuQdXT0rMi01CZDj/tQDMtyQKGBT+VQTpShHV6FK16FAccPvVpOK6//NVXTyy2OzE45sPraoZGfZ5CThJFdRqYp0Mn6XSdwWU2fM0Vm53kguDteTN3/iZJ9s3i/6K1bE6wuZfmJfc2m4r0gqh+1se22VH/5XqTv8191pxnFIQQPldAkCHhZP8OAyIBsWZJJIiTZElKqF3lfHJYjSZZ18BtH0yU+OtIpjz4RYNRjxLsftkvDmMHHPt6H8CqbtlLCCgC6SWge/s2fMW/xqUXzD9t7Uv/mhH5ZMPgaEsjrEwHimIatAi1ZHXhOC4iVFMnKorJg+GJzVrs/IEqea44rXiXJ4si2yODBFo98VKqBW+gxB4U1xb1F1QVnZGeJvER7CTJx0s7yDADjlmEjAcYNJ50EqbuoTSRQLq9C4mSuPTSZFIihZQR4dHYRO/yYJzZRCX5OxEgDpz22eBw+OYtfkCdBGkMsrkTyRRK33/ffKRXSGZZSYXeQCArHFL4DQ0eJvQiSf5gYj42H74kjGzDq+CxpCsqwC2c45Bkc+4hb7spy0DElMSPpBVKYw2zxIRri861ZSm7zwykbR28qBJrbB3jr7mthu17nLJA+mZp9cpdFYH0Csy9f5OWxy//w/tPPnDCCDuJwV4aRWJXyYjMJY+Kz4oM+KR9FFZr0y4UJOgK7SXiE3JJ5cajRTM+SSDCs0Vv/ZR15ZHgnszAIWVZHriJpGUi6xzoWmLfIlah4gz6mDEKYUDXDcDpksGNCINDFdDRCPyUDY1iHUEXwE3R3Bw8czdB4WIL6CCXRHIIRB4euHAEIQYl2GLv3nIzDjbTLdxHnzabdEjoWtrkYvo0YtpcQVFuyDnZsiEhhMQYDIFGnUsesnaPSEffBEuONRVmW4UxjtA6k2PP0sTmzbNCAzNwWYnsNPEnWAQaubgkguGYWSCURYdQYN53TdhWGVZlLOx5/a++yPb/hkrl7f2vf6/dURFIr0Hduzfij8y6dtUTv505wJSy3KbvbCpYo3fu8MVyy7fQ4C3z00crl8u2tzDK3QU/ddsNMqfod4E2hrj4f70SZ7ODxN63RSvYza4cBsTDoPGWtxU/z/HnhK6bXNdOrtNGWE2SZPzglZvSgcWIRYG2FEMUv9Ilufokch5cT7jyckISmxUDkmxIQHjCAPR9aVHkEhm5EsOajqCOIxTqdanpoeB9XfbpEPcMKsVFCq9g9MCg2OSqCy0IoWnlWhIh3YWvcXhBTIhiSuIxRe5v2CQrtERy/IOUMm1QkaIrMrDomp1+EZZjKPb5xUM1bPfPKwukd7/6vXo3RSC9Cnfv3Ez0eLjngSsa/3TfVUWRThhIyuBy1hORUwix7WzQO4PfzrtsiiEExJBLBIHLKhv3EGmnoRsnODAkEEmNgXWSk8nlu5IBaCMnIvEBN4BP0zToRDCeLxV1yZog8cGANGj/puQCQSC5LqkgeYlOJQNQpM2KEEjgHhSPIq9FgWmKTYmQE4MUUdTIamPBtYMKwZCAsy8EwVdbuMXk24IMkAc4MQ6NzBOPsiDo+Vxw3YMXpDoLHsn2cw9Ayu4WITvS+XQuhx/zJOE4QJoXo7ZoHCZc/atRbOKhdds5perwfoSAIpB+NFnbM1R+x0/+0PSvR08oMjpgIBXouIau7Nxd89PcLNtzpz4+Nng7FmmoIpawRdA4eDEPi+jC0Qon1qY6O9EYyWPUqMmQRo74vQuTdlGSt82tsxel3DLRgJOMB/1TuP9ydKvCen06zyCXnyQWOo3+JiIgQjDJCsl+cgJPATOGhZLCVUjXJ/0qGi1ZOp50DdL/UxqasExCYyFInhPUIcxNGfORH5ltJWs+5PxnFXYlj27mLstiFlh19Coia/8NGDwK1+8EilyR7R2helOjEosjA7Dvjb8ZxSZOUwTSx1+Rnry9IpCeRLcPr81v+e5TTa88+60SvV0QSNYpJDbCnGK7cCPpw7Hmf2tZPEjPQ/3MRQwlJJDcjTCod9jMOAn2TtFPSiYAy+I6UDBYbrJEIGRdZAV7xeYc6EyFhXokyEi7uLBsAgIR16Q38yCoYOjC0nC5L5ovEduIF3eyLuxc1+KmAj5ySemaJsjBsx0ZBiLnWNhWVmSkUUZbECNipFUVVIaEBkIYwwrSeykgLj2EgZuL+ULihH4tKtKzCrsyHhQG+GVKbzBL1MhKuN3o2QzovgkOG240I0jITFtwIkPxgV6OA377aDEbtEdn/vOrzix0BBSBFPoM5Tk+/5bvPrVx7jPfKtE6YHLSi8q+fIoNTG68IicpVzwjz7v1zWlSH1a+WWsiSp/zVp2TcbypklqOk5PlIP5Ph+aRmGDgngrTeoM38zAckYUucD2RV4vi/hqFD9yAs+gSlLJMleUeA3XL9Xyq+NYBK4qMz5HhtGHrQnbEJt8WJS+ZuhA1FO/0gnCocNOFRoV54EhELHiZjJBRjxBZhbU4ImrvgGuu1LcKCUD8gywSeSylWW+WNRW6uEKLisR0gyB+FqfwgTerK5E3EadT73ZxsAbmGNBNDS5Py2w7N4INfikynzvy9ZEXXPYVRSB9893orbsqAuktpHv5PvyXP3hyw78eP7GCdQoCyTIIbRyULRNqJ3Fy3vRPN5YgECbfqj9NQHDY3++WAAAgAElEQVSz+IgQwArMEuHBM2QmEQWBs5XqIZnmFBcSJ5AwrZDpMMEMSzR0IlFBcos5ho6U48Im2XSSiqfrahEwPQ7fiGLE6PHrjETRe4gkfEQjHPHiDxGxZI6zSEkmC4QYJwhVkB57JrknMkmTbuy3NI/s2Ng0qqu1OeamOsHsDAzuQhfPbcOIedCZi6jHYNEFiZfIPyZLL4WaLgXHw4/4303qJaKWJmth5Kb5ZsmDCFr47IJsOMrZlTEZgSYRpq7Ds21Rs8M9HSvSMYw7/9or2fEX/qyXl726XS8joAiklwHvrdvx+y6ZtebZ2VcNJgKhXNkw7JFDIGJT7McEksUyJIbwB4IrQmIIy0IC11NWSFiqx8KwAwmQgFwoNVaYKYGLSBSz0GZsgBsR6uGHDpch6ZlIGiZadB2xwZUYOnJMXdWoMY9gePVKFJWtQFEphxFfg2iMoTTWgvaSFEoQQ8nwlq0JDPL6+his1io4yVZk0gPQmawG93w4KY621jFu4/rRrY3Ne9stG/ZvWvzBkLjbCctLI+akUcQziFFqchiTIULSiCTIASbdV1R0KV8aGDzRSESDIbSsAhegtOmCuAnhFLo8qdmIA5CMWZgYEFg0YlkJCf0YNvgJDJl+wRns+Msf7K31ru7TNwgoAukb3Hv0riIL6/GHLq99/K6Zw5CC6ZHyYHBLsW9ocAMLpF8TSO4bs/DZS4tE1kiIxFYZGwkJIeuaCSU8yBdFm2LOITkBZyIh1yepFAtpPYoObiBtlaF4WE3D0L0n3Y3d93wZiQhHrHQNomUtGD6xjYl2hz37EZL6a9ZEwDrjSDWX4ZPaaqxcNLVl5cKvtq1Ztp/X2gjLSSLq+4hr1Dud4jmhpUm+LiILseVD800hQClxop+HARQhbBVkB4TbBAVipAWSTUemR6UnJnceFWc6OhpdA+0jxmLMuZdMZpO+82rPoqGu3pcIKALpS/R78N780ctnrXz6nquqvSQMN7m53lNAIDJ42n9dWCJqLNQVZeW8o9MbtS7Iw/A1aEE8gcIkLqWayqoTGGRVOL78Q1lQYbk9ZToF/0x5Ojo1E27xIHhlgzdGh42pLx37ub9aE/aeg6Kx/8bYsW5vkMX2LBHx4rC+rRhrFh3TvHThmEzdslNaFr43qjjdiRInhTh3YArykOoBIowRqtVYlH3G4YhgPYNBB1DBqbBkpBtMJBcE7jCRfJCrAiOsFEop1uEwAynNQH2sAntcefvhbK+vzd2e51DH9h8EFIH0n7na5pEKxd0/PnXF8ifumTncbkNUEEhOnGNnJBB6+dVyCYT2uiCXlXY7g1PHVpEwRUVyFO8Wjnzy4TMDrqahw3aRJmn64goSelwYHV6zEuP3/QtGjHmZ7XHU8m2egAI4UKyBNW06mtYehEULpiUX/OeYrnUr9+GdG6FlOmEwD8UmaYpxwHZEVphH8ZCAZC3BpEH/cypglLkBWcVfKngkHGXwidgokNInrTO6JudoiZRh/ah910+8YOahbNRk1Z2wANZFdw9BEUh3I1og1+PP3zrj44fvvGdEsgUJIROyeSGDr0lXT793YeXiTbURonJcuq6En19U6gVWSqjxRbxCNXBMgwMTnb4Br2QwvPKq1vIJB74RH7fns9hj71cwfL+VPdlpsTeXCq9fOACfLN8bH709reGjeed1rl5abnU0o1L3YPi2rE/RqILeD4oaA49WGDsL9bWCYJogD1CRow6fRC01mfZsUgA/zEXQIljPosiM3nftqKtu+SIbfODK3nxmda+eR0ARSM9j3Ot3ED7yV+6ZvnD2TfdWd2xEsZuSwU/aUIXvgpr2yewbUaHeP5OwsppMgh/EppWrLBtEdyMakPal4B/Fi00TDgx0MqBDiyATKUNi+LjmqgO+8FOMnrgMB3zr1Z2FNLZceKLDY21tBM6KKnz03rTkove+98lH8/aNu12I+RlYro2Ik4LoThzmIFASVo4Go3wPCXCmmAc3hGViWy502LBomYUEIlKbI6hNGWCHHPPWyAtnHs1K92ju9S+EumGPIaAIpMeg7dsL83cemrrwrhvmDGtuRJndCehBwVpAFuSSkASyPdpWfftMW96dxu/qkgBN0hcJU3UD8UXik1QKiFnkpYqC+waaHA0dZgzG4Crw4WPnj/zGaRejfFAdG3XQLudi4a0LyrF88T4bXvzLTQ3z3jpwcCaJwdTj16PavyR17UI6WC+Wp8lqdZEiEFp1hHlU8Ilj0UsK31SQGJII/R1JYI1tIn7wV94ccPWsqYyNyxTWSlKjyRcBRSD5Ilfg5/Flz49ZcudVr1Wurhs6wEkG2TNBxJnUcXcWAqFEIc5gZusIgxoO0QMdYPE4MhkP7Y6OtFEOfWhN86A99p9r7HvIrzBs0r939Y55wipp+7AM73+4j/v6nFsb33ljX7OzAfGoA6bb4NwRTquIT83GAusiK4FCQZGIrGLUqC+L5HAh8BjWm9DfFLc3YljixVAz/adXWSdOvYmxA7ZsNlPg3yg1vE9DQBHITrou+Jp5FXW/uvSjxMeLhgywk2IzoN4XYX0D1ykrSWbc9F8XVijNntPjPGyyFFRkd7pAh5WAO7ga5Xse8mzRoV/6FfY74ZWd1U21I8tZWCRvvvathjdfPNdZ/tF+0c5GFHlJRMj/F2S6Za9PrlAKllPIKSRvikFR2Ywm1xRZtxo1D+tMU8k9OrUEGmMVGPP1M69g37nyhh0Zqzq3MBBQBFIY89Ajo6i99vg3rA9eP6Qy3UZJSLJwTnbCRsERSBjjD+XHA8kMWcvxv+CRJXEkQy5TU2X/Cp+ZSGkxbPA0DD/4i+8kDj/mEhxy2BvKfbL1pcbbFg7AS88ft/aFZ2/E2uUDy7xORJEmtbBsQSoZLkLYhArRaQIyUobeNzS42VYBMlXajFCJOtDe4cCPFKO5fCRGX/KzqWyfr7+89dGoIwoZAUUghTw7Ozi2zB9/dnXdwzdfM8qlanRqJ0tBDyqe80Aqr0LLSfi0+24ZiG58QlY8GAcJDJLoLJUVkPy46yNCIkuUf0utDnXyvfngHnUohKhbMOMWUu02olHaw0x0eBY2IgZj1B4NQyZ/5W5jrwMeZLsdoTKAtnM98Q3zavwX/nz60uefvjq+dgWqS+MApYRTpXvUQJr63JsygSFK6c8UUKfaEcaEUovnObKInbKoTQpYGbD9GBp5FPG9D1xefv5PDmbDj9i4ncNShxcQAn23cxQQCDvjUEQm1ksPnL74Nz+5f5zfBSMdodSrQIqCOhMyeK4v6uj6ikDC5nvCXy6abFCjC/kXpYUSuViiaYYH3+EyvZT6tdOHNjHalMDR2QEUDUzAT3lodw00GkWonvLVP0UOP/pXbJ9vqrfcPBe4WEOfLIhhzceT+N//fNPaN+ccWOa2o8jy4SEjGkghosHN+KBEPzI8LIPWGZmTDhAh88SD58h6Td/VwbUE2mwOJ55A5RePeVz78aVnKqswzwkqgNMUgRTAJPTUEPiC5ycvuX76KzVOMwxHVmiLtrYkU56wYHfZsKjPeB99wrarQkojWzsgy5uFgmzYnC9wwYMqxUWRmnSlEB+KzCD6pAx0GaWos4ox7Iijnyo96YyfqrqD7ptYvurfo/yXnz9t1QvPXGttXInhRWQ5puF1AHqciN2CaG5v+6JtstB1tF3okaBJoqbD8XToZhSex9DS1o6u8mqM/t7V09lR0x/ovpGqK/UmAn23e/TmU+6i9+J1C8rX3njaR4m1i6ri0GDRppyxpU8hbsFO27A2a2jUu0CFBEK7zaaGRoEuea52F7m3gj4afsYRshrUBkO0AKE6BY8EDovRFB2ImhPOmolDvnXLrp5d1RMzyTnX8dGzh3U+8+Ctq19/fr+auIYY6azlKvySzj1J1Yvc6kAqRdSDWHBICsAwYZomvPYUmvUidI3ef92oC2Z9kY07dEVPjFlds2cRUATSs/j26dXJBeHedPJr6159+pCBUQ1xUlylt0ShaSSLCXOUvnt9rLIaXLrQyDoSaaJC1C8oZNtMAJLiIBxJ34VpMZjU78L2ACeCFi2OhkEjMf6ciyfjkJNf25raba8/6E52Q75szhh77vM3L3z20eNHpBowsMgULkg/k4FGbivfg+dx6Akdvk2V7cGCc1wZhqO+Jq4JrsVR55oY9uUTHjN/8uPpypXV/xaKIpD+N2fbPGLhw37252cue+CW2UP1LhSRrLvswEqN9qBbwdviNl+xew/MdrwTBELKsDmFasRsYbhDUowwnBzyjlAvctdDMgO41hC0VYxcU33+D09hk05Won3dO0WfeTW+Yn4pln7wrfonb59trFuOco0hGjHAMx1CFoWC7MkuF1GTRC3pnSDwNcqwVdCHPYJOh2FDYgjGnn3xmezo7/2+l4avbtNNCCgC6SYgC/Uy/IPnapb+4tKVg9qXo4yimaHYOGU7CVWTHJ2K3n4IEevYdFOZjRUE00XdgQ9HpOcGjWs1HYxpyNi+yL5KxiuhjT3kncpTzrmYfe4oFSzv5fnjnJt46+lD6x779WNY8NbQkcUaXD0Dm3uwLAu+4wpBS9EzksoGhbKvSM8K0oGZaEC13o3AHrd//ahLf7Y3G3lYSy8/hrrdDiCgCGQHwOsPp/KW98oWX3XhB5V1r1cPJAsk9FfHItLlQK6gUM681x8oR+iQVqLwXgW9OnzqGQt4lgdXlzK6Yv9xTbQ7gF1WCYze653Bp/7kErbHl1/q9aGrG2YR4O//eUr66QdubJj/0qTyuA2LOehMeSiJUctbXyofp4PDKUbiuaBOwsQljBtI2kCDWYJR3/7eFTj5+psZE5rz6tMPEFAE0g8maUeGyJcti+D95y6pu/eyWSO5DUSoOQa9AWqARTt0WFy4I3fJ89xA71AEXMMe5lQZ71G/DtmbAzGOLjcjErAo7uElo2jVitBZM2F1zYwfnaHSdPPEvptP43WvjV7/+9sfxvyXDxmIVqFRRgZlhGpA6GXAobgHrTtPNJ+i1iEklExxL13TkfQ01FtDMf7yuw9nk76qXJHdPD89dTlFID2FbIFcV2TOvP38oauuO3NujdckNT/I4qCCPAo6hB37+mK8Qg6DalOEaSG1lChhh3YeR1Yvg9lATBM1H45noSNFchhDMP6nsw5nk45XG01fzNun3FM0s1q+enjr/bf9o/P9V8YOiKcQYT7SXUAiFgOSlJatib4sVDRCFgj5tigjWwh6egzr3QTKjzzrieiFd5yqrJACmditDEMRSP+Ypx0aJV+1qmzjzae9F181f1SESMPNQEtE4KfJhdWHS4CEk6iUmTxXRgY+FYOEYnyisJB+Qa+wBpy0i45oMRqKqzHhBzMns0P/T7VK3aFV0TMnkyXi/Pmh6xuef+ykgX4XrGITXtqBkaLAelzWILk2/LgFj3lgmg/N5dBcDSnbQkPxSIz84TVT2JSTXumZEaqrdicCfbh7dOdjqGv9LwTE2+F9sy+te/Lua6tiHjS7E3o8Ci+Zht6HhYTCj+FFZFGgkYGnuVJXKfiItF5yZ1Evj9JKLLV17HbOT85gX7/oQTXjhYsAX7Uqiseuvm/9m38/udTqEj1G9NBnRdalqQsLhAhE0z1JIDbl98bxSZJB33ty3cDb7xiv0noLd47DkSkCKfw52uERCsnu+X+d/PFNF75cmazHAC0Dxhg4ubL6UIpXCB/6VKpMfT0c4R/XqTN3kIxFBonhRAGzArVpDaNOOnsmO/Pq63YYEHWBHkeAYm/pv911f/NLj508FK1gMQNeWwo6iwGxONKdG2HFdXjcE0vQoCwtqwR+2sbHbhQTr7j9LDb1zPt7fKDqBjuEgCKQHYKv/5xMLU0b7rvuua7Xnz60ppghk3IQoU5LVFzYV59AOVe032Y+fMZFi136t8jm5Tq4X4L1mRgGHPTlfxdN/+FXWc2+rX01XHXf7UOAlBDw1G2/WTP32W8nvHaURw2IDlVMg8cz0C0G15cp2jThmm4JKZRmLY7WsQesHX3h7XuykXuptN7tg71Xj1YE0qtw9+3N+D9+c+bauy+/fxhvg+NwGBETLCzw6pOhhQJYdHNZrexr3qaCQhbHGicKbdykuqofXDGV7XaYUtTtk3nK/6a8dm7NJ4/e+4g9/8VDhrF2aHZSFrNSOCRoUMU0XVjDZBBrvgE3WoLlXS4m/ODyGezoS2bnf3d1Zk8joAikpxEuoOvz2nk1G26Y8Upi7aLq4giD5zhgJJVOW/eWtSCy+XW2z3hY8EddIGRH01BnZEceMCcLjHpJCB7hkkBcAxljABabldjnx1d+kX3hpNd25E7q3L5DgK+eP2bjvdc/3PXui5+vLrKBlC0T7Ehe2SNFTMrECyxhZqIr7YDHiuFNOOjt0kvvOEr1Ue+7udvanRWBbA2hnej3nC+08NCTl674w12zaiKt0HwfaWaCMxMROyk1iyLk1nKQoUZAxC0U/JT16mJzF02FhOEQ6BvRXyHZbC9WcheB73rQ4iZs26HGdXC7ACM6AAs7LYw75+orrW+ee4PSt9pecAvneCGpU/fqyA+u+cGKqsZlrNKkrAiS66diEB2MEjnsNEDhMJI4o18bBlbqlRj3vRvOMlQspHAmc4uRKAIp2KnpmYHxpa+NXvTzH60Y0bYIxU4arhUFZxpMj4SlPOlWoCZBhgyyc5/IQxfHMFCQ2wvSa7uBQIiHbIqganAsoilfBFNZJIa1LQYSk45dVHbqzIPZhAkdPYOGumpvIkCyOrW/uHRlUVMtBiZ0eJSdZUSleq+TFnUhQlyT2ohoBlakIohPPu2poRee9R3VQ703Z2rb76UIZNux2imOpLdB/+mrL1123603jC+mN7+kVFak7oRiQ9fAqMjQ9MEdTxT3ifgEN8UGT64G8SOq4Qg+on4jj4+4DvUoMQ2kPBsa44h41B01gvroOIz9/rVTcejx1L/8fza1zePW6pQ+QECKe9522sdP3/PAsHQDivxOuJQ04XkwyRqxqGeILZZWRDfQ0GWipWgCxl9x11i2p5J774Mp2+otFYFsFaKd7wDe8nLZiosubhmycRUSWgfg2CIvXxfSJjGpMcFTwmUleEJk+8pYiVBjZD4YyVMIT1Z+5BGiysyo2EBsboNxDjMSQ327hsHHfP8p63snqDfPnWz5iZTyJ66+csUfZs+qQgcipgOeSUMX9SEmPBLQ9F0hgeKxIqxvL8KIk75/NZt+5aydDIqd4nEUgewU07h9DyHkTZ674/Qlv7vlvvFmo0zCN4JmcigGyK2ELumTDoPrVK9B1oLmCdJgIbMIqyRfEtGEe8zzPBiWEDFByo2ia8ieGwZ+98ZD2V47f9YV5y9LJm4dVYSutA7NqQQc2k05WGwj0m0V4vcRNMGL+SiK+2jvYCgp5qy8ppXe6hnLewK2b+F009G8dUF5y503/K3zvZc/PyxmQ/NTQCoNjxR24oEpTI3PjBjSXQa6Rh5QX3HZnXurlN5umoBuvIwikG4Esz9dir7EjTfNmuvO/+OeQ4u50JtKOT4sJwGd3AksBVBxX+g88umLzWSr2bCLugiC70gdiQaPAi6+C1134CKCVXYpxp16wSz2rZ9e3Z/w3NaxClWA9W3FaG+vgNNRjTV1o9GVGmF3dmhdne2fc21nrOc5dSTh4vn2sJLSsrWdHR0jotF4bTyWcCLx+MdtnR0TihMli7SKAbVIlDBEErUoKmIoKlsNa0AjhrrtjO1BoeiC/fAFfx294d475zor3hw+PO6C6QxeJg3NNGR2VppeajQgo6NWH4RRV949hR14rJI3KbAZVQRSYBPSW8MR/uh5f5i88peXvVSRXAMzRi5oDTzJSLdQxECQyQjLRJRo+GQtGFKvKkjilVyyAxYIN8C1CBj5wd0UWrUYkrt9ZXnVuddM2pneNnnLqjJ0rRmET1bXoG7ZFKxetnfbmvr9Mq0bY25XWzFcF67rwvMc6JoGw9CgE1lzjgxJ7psGyPOTsW0wpouWsLquw+YO/IgHbloYNKimIVoypCkyfMLfUTzQxchxr2DgoFWIDAQbNmFJb62rbb2PsIKff+C05Y/cdD+tv/IYuU1tcM+FaGBI7yVB2+K1KEVi8hmPlf/wG6czNmVH3li2dXjquG1EQBHINgK1Mx5GmkWtz1w7u+2dF74TtzeisshCuq0LOsUiEgb8lC1S9AVNkOqI6BwYmiRy6QQJvvnBw+lsU3QY5L6D9dYQVJ19www27fSdoniMNywahzUrqt1VH05t+ug/x3bVLtpT72hEDA4i3IPh0x8flqFBI716ItKwsJP+X1TWyQnwPB+6ZYF7nqjd8R0HHu2ylg9qNU5cr5kxdNg6XKscflEFzMEj1heNHv9BfMSo5yKjxi3H8FHvsZLxTflNVs+c1XHH9x5t+vdzJ1d0rUdxnJI1SJ437Foo79lulmIxr8JBN91XwUYc0twzI1FXzQcBRSD5oLYTncPr3xy7+MZLXyprXjyigndCI5eU78IwKUc/SNkNkq6k1Hrw5aYWs9TRULix/kcMRLxOfsaHYiq+Ac/X0A4TkT0Pfzf+wzunkW+/v0IsLLs1r47BwnemuUve+2rdvNeOLXa6ECNMmQMRrtA9cBKOZByGr8nCyS1x3DLvLBdGwi34d/jGzsl6FCSvCXkQz2dwfANcT8CNlQPlQ9eVjtvrfWufg5/GqAlvouqApYWQ3Uau1BWzfvxe5Yr5I0v0JGC4QqDZ1xhclyPiA7ZZjBV2EXY/d+ZZbOr3lD5WAX05FIEU0GT01VD43Puntjx845xI8wrES3Wkkja1tCaPAsgdTZuVS/8OPFthXCRLIPkOnC7oAW6kHGtRjpGn/mgGO+pH/dL6kMQxb4z9wbzTP3nvlWO92kV7FXU0otzPQPdJKVA2zSK5Yc/gQrKFPtRsMUsg24MjzYsgYCIT0sAPXYlBi+KQlOhvzUQHj6LZj6AzPhDREWM/HDPpsL9i0oEPompEbV+r3vK/335Sw8O/emyQ2wjud4D0Frt82UDMsn14PIJGL4Kiz3/tqaILLjul0OM72zON/f1YRSD9fQa7Yfx841sl6Vk/eJ+vnl8DiyMSFZm9lAckNzcqFwmyeK2cBoa5/czzGYawXjyg2ahAcuzkd4ZfeM2XWFn/E8/jq+eMwdJ3j2h+9cVLWxe+W1Pq2ygzNHipJCwSrGQuOPPgaVR9LTf6kHzJovvUL+GnVb5seaBoAUzJDcRMAYGESQ1BmY7jytaxPvV9oawm10SXw2BYCeiVw+qNkRM+LP7CEb/Efp9/pa+IhNouOw//8u7GV575vyqqUucppGi9aUDMM8EzPhwzgrr4cIy75rGxrPqAFfmsN3VO9yOgCKT7Me13V+Rv//GIxt9e9kJp21LyKIm+P+kUELWoF4d8U6YGgaJFKYUwhbtlxx+TUngdmFijVWD0qVedzb587n07ftXeu4LIqHrjhW+3v/LszDXvzx89gGcwxKTWrRmJEcnCuNTnxIcnSIML2IIOvvLvTfWYmw/8f7mwwiPJ2CA3lc9IhjIgES4Mk1DoWKd5o9CKGxgq1BAwQxzGwKPFaDYTSJUObS2dcOAb5Ycc80vsPfTlvqj65kv/OnrZrVeuqGpZhQS64FgeXM4R4yb8lAMtEcNKtwijf3zXVHbw/73ce7Os7vS/EOiGbUAB3J8REPpYf3pu5vKHrr9ilNUFo1SH3ekJ15Wh02YoX5HtoPGURcn6wi0SkMgOkInNLHQggfTwfVYMu+S2A1h5/5Fq5yveGtfx/KM3dsz/2/ElqY0iK8owqZ+7Dd9PQ6N4R0AQRLzCg0UFmbRYRKfFAD/hfspvBZH8vUhuCLo4huSUezXSlaL4PBk+9CpgCeFCauSlg+s6OqmI1IzD0UuhVdSsrth/yiPYd8rv2cTJy/IbVf5npZ66/sqGJ+++rtrshIM2mIKMPeFKZYaGJn0A4kee9lTi9NtOzP8u6szuREARSHei2Q+vxevfGld3343PR5e8MHYQusDIIyI2NxO+7cgkICIQIhNosEj2hNrMZnfD/B86qcfRwMox6tgzr8Px111dCEHdrT2NINzX531x/b+e/Y1d99G4oZmNsKgQjjKkqJAfNrjmQWceyH1EeyB9CC5BHNm6mhwCEcHv8BOwjaCakJ3/+2/htGJcaF1mCSo3n4F+SMrGIUHZnAr+oUdIaIqqRj2ROkwpw9AMcFdHhx9FV3QgtOqJdZWHHPlz7dCpT7OS3TduDZPu+j3/5O3RTbfN/Iex4q1xRWYXDMsGKHxEUDhAe6QCzaP2WTpq1t179ZW7rbuedWe5jiKQnWUm83wO/vaTR8y//eIX9kq0wUq2CSVUqygi8/BtKuaSFojLDJHhIwrGqa81bXk5Kb753L7dKEb7wImoPuenY9m44wrer00ZQ/6LT/14+T+fmlnWvg6lSMPQpfuIensL+qCguC7f+ukT9usSfEub+WauqdAk2YQepUoL0yUMkmzxtyYCTzkXybEAiTOC9kyC5OmenssRKPaL07I8pgG6yLTj8D1f3JI00LpcDa2uBWPobijZ/eC/xg7+8p1sv2+8mM/8bu85QubkL7+Yvu5Pv55d4XyCiJcKEg+oLoSh3ShFQ9kwjD1/1iQ2/ptvb+/11fHdj4AikO7HtN9ckW9cVoJ/PnDJ6n/MvqLCbQDVcmkxHX6S0ncZtIgBiAwi+v4SWxgiqK4JdtkU/RVvwDkf8bYd1I7Q32KPo+vlbHweY2iyKuHvfeyzQ38w+5uFLsfB1708cONfnvhd49v/Or7SaUYFUkDaBiIGHNeHpvkgDcqsa4o8fRTAFhacaLkoQRGZA9L1RJ8QqxA+SQKf/glhFueEPBKaLoy0kikxSwZVSPiS9JPF7UjtNijME6KZPkTtiEYkR1nFdAod4kKSjWGh0zHR7BcjWrPfqkFHnXQNvrDfE72R/cTrXhu94aFfPGkufeWACq9NPqf4oyOJCFpLBqLq+J9sZIoAACAASURBVO/NYNMu65fZev1mc9jGgSoC2UagdsbD+JrFFRvunP5G8YYPxlt+EqZFetoePIfLTYUCIb7c7EIBkzAAHP4k3AhleJjC4sEn2AUdIiUSauRERuSIp0bnlH0axSp9KMZ8/7bT2H7HPVzI+PIVc8e1PXnTo5mlbx5YEXHgd3aRAIv4eBrJu8iGXGJjz22yKBiCdukgbhQG0rObYnB8YMkRNIIbqKaDc/hkRRjUJd4TMQzxZQ1iJ1t6ED1qEyv+SD+W7lN7YEAXsfUcSqLfk6stCLSHrjVBa0RCQZCGzgU3kHTj6EpUYejUb87CF6Y+xKqn9bilyP/zp1NW3HXBw8O9T2BEfLipNMjzRhWGrVYxyg4/8WfstHuuLOQ1s6uMTRHIrjLTn/KcfOGcqWvvmDFncNdK6LoGJqqhXXDfl3IS8lV2i09uxDd4/RUEY0hJEtrpQj8JWS0idkKGDIdGvncnIyqNk7wYa0snNIy76L4JhSxbwtfNH7j63utexbKXdh9hdoCRQSbCQbokB3LnhYWUtFGLZ6fdOYQttDwCS0QcG3Z7lMXmwrjLfoK6DkE7RCI0F2S9Ba4t4WvKOVw0j5dd/Tw6IwiqE3EI15ogtLCLZDCfQVwrW8cjPGYBAYkaRRciXZvOtRlSSKAlMRio2Wd+1YwLT2KDDlnek18bXr9wQMcj1/4j9dELBxZZNkw/BVMoIDB0IYLIvke9Y/z45kNVHKQnZ2Hbrq0IZNtw2umO4ny+iTkLzlz+wEW/G623SikNIaNBJEDLwpOb22etEFENvSn065F7S4idbNocaQvjhnyb9jI+TKqJSGWAiImNfAAi+x/9bPH59x9XqODyJfMHNj12/dyOZa9OrCxnsPwO8DYbkSIDPENw+dBJMyxMrKIOrQFe4eYs9uog50AeqMET7izqA+5B04gcpLwTI3+XkDPJCXOE7qqsn5CuGMRIhP+J5kGmWocfIoOwNiQ7H8G9szYi8yThB0RHwfhw7EwQoDBBRXaZ72mwkx7s2CA0RYeuGX3mD09nB538Uk/OG3/h1zPqnrz9njJnA0opmG6Tf80SNSz2qEkLys+9dRqrOqCgZFl6Eo9CvbYikEKdmR4eF2+tK1//yC33OW89ely11SWYwrMzYkOjjYw2N1JF5bnuj813qcCfH2alkoKvL3S0Qvc8/Z94K5ZbkQwspz24lon15kiMOOvKI9ikM+b08KPmdXmyPNY89Nu53gd/nVidSKGLdQmdpiLy7dkeMo4pNKwYy4jrixB60OI71/igbZjcQSHXkpuKsGaMhCTpBIo3SQKgTGmBHbVcCUedbegVmCqBtSHMOPI/kUUXskDOtzmb3pv1qgW+qyAuQqQl3FeenDff4MKtRZaLqBGBKVyXHncRod7GHoPb5SMTHYpPYkMwevqPpvUkifBlz0ea/zj7NWfxnAMHR2w4mQx0IwLXN9BcMQFDzr1lKht7uKoHyWt1d99JikC6D8t+dSW+Zt5uH9zykyUj2j/GAGoq5fvSdRVEVH2P/O/BG/FmT7bFkqFaBCGpKP0wYctbn8nYAL3N+pxiKvQm64gNqp1Fsb5sb4w/75EoGzdO7sAF9OHtSwa2PnjL75rnPX/88EQaFksh3ZYSBZa+qSGZ8lEUKYObScPQyKdFO77coDclFFAQm1oC55BBNgouX/DJ9vBIMT84iWlkH5AKrycztkTwXdKRFLMky0O6qujDfA7qAbZZ1H0L16PPqed9+EOidEfOVDYdi6I5DD7pcwWxE3mzwMLUuAiu0yV0KwboZWjJmNjoxzH2xHPPxtF7P9hTCrn8pV+fVv/ozx8czDfC4zYMwxKE1xirRtX0G6ex/b/Wo1ZQAS3Jgh2KIpCCnZqeHRhf+MzUhbdePKdGb0Lc7ZQ3E14LirB60p0lNrEtc4K2qHqjwLAIwMqfS+kTHz6Tm6kBAx7tQCaD73jUdA4beTmcPY//45Dvzz6x0LKvOK+POc89dMv65393fhVvhm8nYRkUjabXcR8ZqqWwTBgsjkwyA4uKB4klxI4uSsPlO79wPQXuqLDokr5twa/CxARPi1IneEkSROKhLInY5CWR0JSQ8KIu3F1k0VFQ3ZNKyFl3Vzgvm8c7OFk6WamTwOrYZCKKQLlwd2U5hi7obiIlod8llwQzLDgu/cOAl9HQFhmIocefdTaOPfKhnqhe52vmVTT89qK3zPXvj40ZLnTug3saNmhDUH3SFTPYtLNVJlbPbhNbvboikK1CtPMdwDk38czl09f+7b67K/UumG6XtDzCN97coPA2rBBJIII+JIHQFiTSfwCDpCh8Hy4jfz+5aQyswyBUnf6Lw9khJ88tNHT53285a9Uzv5pdbK9GmQkYkQi8zozYX4WwJO23uiYyeK2oaOUheEPn1Cvekbm7OWWBYnMWqbXU3EIPvVXCTeiZBpodDj8ah6YZcD2SOyFXH/X/4OCODZMIxHegeymYng2DZ8i5JDf8YHPPpgSTD4q0aMLQlOYKnxQZE6JanU4JtcwEiQRWhhBllOJTnPS6NKkaLFOAgz8RHUmPsrQYiq0I0N4J3yxGrTEAo0+98BT2hR8+2hNzyf/401lrX3zkqoFog2EnwZmF9bwCFUedc0P8W1fNZGyLAFBPDEJd8zMR2IbtQaG3syFAGk7NN/zgdW/xSwdUJDRoXppeL4UrRqTw0v9SwEIo8W3bEsmWOYhe6b7obS2MGmq2TkYNd8BMHckMsJoNw8Sb5pSyinHthYQtb5y32+prpi8p71iC4iJXan8wBtfhMEhUilx69AAESdSC7XIwRg2xKMJjC6sAXNbNBPm4ALfgMAtpZsGGBU+PgEUSiETjG3gs1lI0rHotKypZp1mRRkE0eiyDRGyNAC2TGobOziiSrXs5zRuMdEvD7m5H8xCkO6B5GRjMhW44whKht3Pd10T8Qrq0iDEcgEgkJylMZmURmYUCjIFkP7UspsA+zRV1otQcGbsJXF0ZB4iUxdHenkTcZDAMHX67i1YjgnXWMHzuu7dOYfse1+0dA/nyP49d8dtrlw3pWomo3Qo9ksB6vxQlB5/4l8QZ55+gMrH69hu0bbtD345R3b2bEeDtiysar/t2U1nTRzBFx0FZOLiZu2prUrvCXRNsVOKvIDNIuERofwoyi0K5cd2l+Dna3Rj08dPmVVx6++RC+vITJutvv+R5o27OpMpoEm4XideSTSFTAEyR1kq7L1kUQVScvFr0kk+iifS7TEC4lN7ra/BdmXbaqceQjlciPnzsotIxe7wdHVr9FoqHLkPFoHoUFzWhZCL1P+FbSrkIiXiBcm0EtetHofOTanQ0j0DLJxOb1tbt17lu5XijuX5oJNUMy04iqnOYFhdV8Z6fEQkQorskfajpo6hnjJCdKGTkZeyGhKbCOIoJj1HdCc0fucgc4dXM9WIKo0QcL+NeVKdS36WjvWQi9jz/pkls/BHdWiFOLzsNd9/8uP/WY8cNiabhcB3N+gDEJn7pnyXf/NEpKhOrmzeH7bycIpDtBGxnOJwK4xp/ecbSyo5VMu7xaatgWwhEMEVw8mcRiPD5kMvFQ1oz0egPwIijvzcDx179e8Z2qKF6t00FbdT2Qxdf0/T6E1eVOmuQoGA57aumCVu08fBhknUhjKog+yl089HbfTp4RHqJ55rY5DpdE358IDBgeH3FbvsvxPh978DQ0c0YMfJDxmrojB368HXzJ6C5cSRWLzjMWfXRQRtXfXyE07pWpBpbSCKme6KnC8l0aREZmrGpx0Y0KtxopHBrUmzHkNLymzS6yJUly0GF1pZGQMiixNAaod+5jILzVAbjwCopQ20jR7Jid0y84NaxrPrQbi025HPvPWvNw5fPHu43wY5E0OTHgar911SdetkRbPTUgmvXu0MT289OVgTSzyZsR4cr9Ib+8+CpDQ9c/OAgr3GTqm72wtuxJMJMntAQCTXExb8DR3woFQsfHZqFDXo1xl1w2yQ25mvd+qa6I7jw5XMPWXP3998ob1uKBGl/eQ4ylA+lmyJmQMnIJDwv39RzgtUhVJYJZBw4DEhBQ5sWR7JoCMZ/8eu3oGa/v6P6gA97qpWssFLWvj4WDeuqsXrxkc7ity5Mr3hfiyYbYMY0UXNDlgZlwlFNCBPRcMpuIG0zDl8UQkr0hEwNmSk+ubhMsTZ8nZpfEYn4IL6Reil0ArEl2ShpaAaDDgtrO3W4Iw9bOPK86w/vTsuABD/X33nO0vLWJdAiGlo8C27FHvXDTr/iBLbb0fN2ZO7VuTuGwHbsFjt2I3V2YSBABYTpv/3t6pZnb71iqN7+KdbHdi6JLZO0trBcSKhPxJA1oMEx0DLoQIy/4I7xrPKgpYWACAkkbnjkjofcD545ZpjRLpIJeMaBrZui7oC5lP1D7jjpktsUX5Abqe/64KYBWzPR5uloMYuw+9Rj78f4gx7DxDFzeyrF9dOwo8ZMWLZwf3z02lHJRfMuSjbWwrJ8uE4SiShDhHJ+uzJCGkuLETnocDml78paFUkgoY+KJo00aGRCBFWnU5wlENySvxPV6x508pNRVoGhY51dgaojT7sL3/7uRd3loiQFZPd3P3+y4/2/fyNippAiQa+Be6Qqjjvva2yv7/SK0GMhrNVCHMN27haF+AhqTNuDAPn6m/54x33em499fTDVf9AKyHVhbNUS2ZIxwhO2WEphapCI6VJ9CbAuHYVx0MnPDTrnwhN6Q5hvW3Dh7//+yGX3Xv/Pcq8BJbxdaA3SG7rjM/iaLmTZKeShUSxHxAyklAil3pJ8C9W3tKV9NPEiFI8/qHPQ3kdcgIMmP9WXvU2ESGbdfyb5axZ8a/E/nvzuCDMFK90CLWPDigfZdkkK3gCuJWvVrawMS4CamE76TxBwF9XpYUoWuSSlTAE3onAo1ZkOjwJuO7AuMgzVM2adwiad1W2ZWXzub05f9eRNvx+ot8DmHtyyCRh8zHlfxkHTXyoUV+i2rLed7RhFIDvbjG7leSgouer2i/5dvPTlfQfy9k3NjP6LFz5raWw6cDMV3s3UZmnDlQq03GRwXU+ID67zS1B10jWzMOUn1xRC7w/etnAAf/r6h9o/mHN0lArVvBT0DEmtCC+WyIil3GORLeuaQYaVlLEneXuHReBqcTT7CQzea/Lfol868QKM/uqyQng2YSxtfKsEde8fuOrJe170NyzDmEHFcLpa4SeTiMTDbGPh2BJikFK7RlqL2UxgETUP0oMFp4Stc2WdUCrNEStJAKmu7MprZnEsSeyGz593w1g27qvdEg/hK18a//FvLv54qLMSnptGqzUCo0+66Ew26Zzf72Jf4YJ6XEUgBTUdPT8Y3vjibgvvumbJ0I0LMcBrycbA/+vOWV//Fr/J0b+i32RrEILK5ZBHxBs7Z/DIh06aUQ6wwaxA1Tm/PJPt+52C+NLz9/905MLfzvjnGNYMnUdFzQVsSr8K4sjUdynQhTKpSj9btMfhGhztRglq7XLsd+zps7HX5y9lI45q7vkZ3L47iJjX4j9Pa3vj7xduWPDqUaVuEyrNFHSnUzZrClRuBeGErXCp9S4XnUk25VeESXa5BgonAc44kEnDy7jQEwC9KbS5Btr0wfCqD/p3zddvmtIdagP04vPJb372jPbxn78aQwaN5gjUnHrRkWzfGS9sHyLq6O5EQBFId6LZD67F6/8y6d07r5o32q5HqdOymSDiZsPfBgLZVEAoJUvoXTbMBpZZvpr0n5P2k82xIToSw6bfcQTb+7g+178i66P57488bL95z1cHORvBYIIx0nwiZRUqN5eaVKIXPIWIyfAQGuhStbbD0rDRqsSQw065KTHlpJtZ6R4FRx6588nr3xyAD1/90cpXnpoZaV2OYYkMkEpvqmQXrW6Z0MOi7CvKPAsl40OF31yrJBRcZEyHk0rDShBQDrqoRUppBB0ZEy1mFUYf98MZ7Ivf3+GKcZEs8NJdM2v/cNXVlREHnYmRGHzCj7/E9jtHxUD6cN9RBNKH4PfFrfkHj0+bf//PXhyPDUikmkT94JZN7rZ1XGJjCTWwhPcjqF4OYiqCTAwdGYdIJIb2QZ/LDDz7V3ux4X0fQOeLn9mtbvb1SyozyxHz2zdXHRZqHjJd17Vk/Aa2Dl2LwCMhxWgx6ngUgw/+2t8HHHP+KYVOHuF8CgXml14/Y8XzD95TmaxFiZkCnLS0ROhtIKrBcUg1WfagIo9WKLUlG4rJTCyxafhUL2IIMiVhRj0soBQ9UjTYzESXXoKO2DDUnHPtBDb66zucbssX/eOITx764QuxjtVIJ4Zh0PHnT2cHX/DAtq5XdVz3I6AIpPsxLdgrCnfGq7fOWPj0b343Go2I+RRE30LbajtGvyWByL4TgcxG4P+gd1nHN2H7EXg1h3xYetKtx7MRe/RoP4mtPQLnLxt44Y2zG5+667flVjsMJGV2btCbXPN0MJfSVF1wyxb1ExFSgnV1cDOBVUmG3U6YcT/2OOJSVjWlX0mKizf59x6cUv/oL15MdK7GgKgL2ElpicQiUm4/KrxSiESDtF2iiKDTIaUzS4kT6ecjAgFVxBOBiPAY/ZuOp1YiUXT6MVTuf+yz7PT7drjrJF//buW62d9fYzavtNpQjLHHnHU9m/bTq7Y23+r3PYeAIpCew7bgrkxtWfHaYzc1vfrU9BLeBsuiptlB1DSf0QbNi8S2EcYHiEDCPq2MySaEegydGRPl+3/tBZz90FF9LaBImWj2I9c/3Pb2375SGScpe0cQiMNIqlCH7hswyAJBBjACaRIHcPQEmoyBcAZPnF996o++XIgxj22ZRvEiseC+qSueuf9Ftv59jC6Pwmlrg0nMQL46IYgZKvYG64PpWfeW0P0Ks7bI7SeOpfzfsHmJJBGyQjo9AxujwzFu+nVfYhO/ucPupraHzn22/v3Xvt6KYux/7JnXxKZ899pteWZ1TM8goAikZ3AtqKuKt84Fj07Be3POb/ngxePibiMiuiPcMUK9/bPiHVt5itA3TodJ6atQhVZuQLSduPQfo1hIgA/60ukP4rgfntsdldg7AjBf/Kcj6x+66Z/lzYtR9P/sfQWYXdW59ru2HR3LaDyBQAhBg0uCBSlSoVgpFpzSCy29bSnSW/tLS29L21uhxbVAKYVixRoguAZJCBAjPhk7Y8e2rP/5vrX3mUOCZCQ5I/s8T2Ay2bL2t9ZZ7/7sfU2i41JaGDaHZAwYUkeE2z7y4PgOvYnngE6jBukxe2Tqjzn9YLH9SS/1ZwylPleByB0HL7n/D0/GWpegSqZh2WnoVI9LOsRxE063DYNF3RVbr6NRjoQS7A7jTAFoihmE/XmnHAnRouR0C02oQPlOR/+r6thvniEqd2rrz7PLxY/Vtb0x9zYvWvtm9QFHDPrcU3+edSicGwLIUJilPo6RN4k1/97WnXf/JWtefeLcMjsFy80ganrIZXNMrR44C328hWJ5ZZoLoejF/ZdQrvykrZl+ZZahNRdDw1e/eQEOvvL6UtbtE5hmn7zmx6sf+NMVk0QTdNnOj24LXYVppMbPE+E3bJIdVJZxTRON5niM+cIF54pDv3tdX+01mM6TUuqYf8Mpb93x65sne+tRrmWR6+xGxCTAkAr9mWRTY60QVxDQKp0TM2DqLQCGyqUVqvCYXk3AMTVkrSo0ubXY6mvfOlzsft7j/bUBVWShTYuKUVuryQs/JbNACCAlM/3mvTF/yd586cSF//y/W+qd9Sh3WmHYaaS7HSSSfk8Dla3yRtn3ZVBgKqHH4Ri4n2X18wkEIDmRRKdWjfrjL5mNfS6aW8oQlpTLoi13/Pr+7MsPHD4abdBkl3q7FuR96Fy+SqqK3HVNf6Kq/aNVVKNi56MeNeZc+ZWB6rDevCtg065OgOo98dMr1jx23Y9rnGbmtoroRCHvU54QpQnnyYjKxeEKLSb6DWhsCk2oag2pCq4eRnt6kbDNKNrSFqp2O+ahyFe/f1p/vZBNe7LwqC1hgb7vHFtidOE9+mQBufrRqfln7r9q2YuPfKXWyMPyuqBrLiKGhHDzSnvbduHmSRzpU8gUN/HOQdR7Q46ooMSXQhldXhSZ+CTUHXvRbOxxXmkBZPV/pq6445fvJFbNN6vRwdoXSuvP8JvMKWxVFM63gTaYaC3fDlufcOmhYsbwo86gl43MDZf9PfXWE8fUWi6E3c00Lp5DIEIaieSQKADhj79rBNV7/Fc/DEqeiqrS8hcQ0cPTb4jmpXwb1Hz5ysPEHieHvRub+P0a7IeFADLYZ6gX42Ov44UnT1gy985bjdVvY2KSVAAzvsYD6XBLyHyOww8cmSiEIfq6DIKaTp9gr6AxoZwa8k50KZByIshXTEfdV745W8worQa6fOPG2e/f/ssnxjrrkDRzcH3JWN4mKRHMyWD/Q1QdMJCKjIa245cfqfz674/qxXQMqUPl0numrrzt6kWV7R+iTHaBuANIZZI8MhLRZQAp2EWhSKBCyX8LVBkDWt9iZgNaXg6Q0srh7n76g9WnnH/cYKGyGVKTNAgH29edYxA+ysgekuyYW4PnH75w1dN3/yjavQ41iSiQJXoJJS3LRUVMWuERg3eBLJf3zX6sgh657Y9fhJLS9CEl2HY7hnzdbtna0y7fUYw/omQlvBzzf+aqc5ff+39/Ghfpgu52ssATj1M6ShAqqEASgK1ZyHsmUhXbYuxxVx4mdjx2WL85y+d+e1bLA1ddX5FvhGPGucfHkhkY1FFZHLLy6d5p3Tj8M4X9HN9T6fkech8QNxpRKZ6HrNSwbtRumHTe1dPEmIMWjexv7PB4+n5sHcPDAEP9KXhTXP70Nulnb/1F45uPfGms1gaL6LfTitxObYgkRUqJUMVlJDjGXxSm6Y8RghUU9ACol1Of4kS1GabsOHIN+2TqT/7RWDFxZr+qcPozVGLexTM3XtP4+E2n18bzEA55Z4bPRuvrgPuhF6kJZLQE0kiifNcjH7NOvuHIUuZu+vPcm3ouebD5v1z0Tn7xc9vohPzShkEA4nMnEoi4rAOiwfActhvljuijEQF+Eb0/q+TS8nNNmJQ/IZxxic5mPBoOO+dn4tAfhv0bmzoxg/i4EEAG8eRsytDkwhtnr//3365PfbRwYkPERcxug0l0HJTbCOLQPMtMTuGHHagz3OmpwPo0gt3PG0Dx6lEydnyGosFSsXBKtqbcBDKjZ2VHn3jZmJICyJrXavDoL+9qf/1fh1QkXUjbUflhnwOKua4Kmu4WuqiTWozC+C9/42zsefFNwx1AaO7kh3fus/ivl70wPtoNpJu4zJvm0VcoRl7EeJ4tUqoSpHUfVaFKZNUx/loiSRHm03Qs6K4NjXqOPOLJiiM/Yeay2nN+u4con9byeUss/PfBbYEQQAb3/Hzq6JiW4s35s1Y/+sd7Ix0rK4mOO2kIaE5aSeRRZx/lg9ULop/5JApyRUmhksc+m/vHaHV7YZCPaZ32NCRy/kNTng4NI+XG0TXmoNXjzrl0R1FZQg/ko5cOzd393Tvk8udqo2UapOMqChMer9r8VEOkzvoeXXol0tXTnXHHXjJdbH3UoNAv6cXs9OlQqsrquvPsf7S/es+Xx0S64QjlRQbgYIs4A4gpqQFTMiMxfXTk1AuJHwIkAKHkuYE4PDvLRRz0sT0Da41JmHDeNbPF1seUnBOtT0YKTypYIASQIbgYlKrgn0796D+33mI2zseYBCXLNeSyWcQscj0cSNeBsFQfBgMFq8wFWOLB0ySHIFQPxwAZgejb/VCZ8kAkK/oRgHSMOyQ34azvjS4pgCx+fL/Uzd9+riK1ACKpgcWu/GfPM2kiEHGolJfenjW0GDUwdvry41Unfe9LpW5+HKAZ2qTLyJWPb7P4N2d9MMlqgSdyrMjIHFjcJ0ocWBoEde9TVEqYSi8loDgJPBCqvhI6DM6BuBAkHs+1FjrWymo0HHrez7TDfvLDwUJ9v0mGCQ/ayAIhgAyxRcE5jzdvOPCjh//8pN72HsZVCOSbu2FQU2A8DieTgyddWBEDkijIA3AIkMR3O4Kmr0I9f5/s4DcO+ueSaKoCEBUHYgChsIWbQNu42dlJc340uqRCSwsfmt1200VPVOWWAnEqLvDAjhgJ6hHYQkPU0SC4gc5DszUayUMu/n+xQ75/RZ/MM0RPolxI+q+Xv9u16MkpVZE0DGR79NCLQlQusSxL3ddL93NIhfVFeTedX2RMg9wRokiRkLqBFq8McvLM5bWnXLS7KJ8dhrGG6Drxp3oIj34EDl2+dfMhq5+88Ulr7SuotbJMscFhKkOH9CRcqcEwIxxmsNPdMA16R1Dhg4K4A782cFlWT9C6T7b0qUuCixc8kABASIMb6PCSaB132JpJc360QymbyOQ7DxyauvWixyvtj+BFBaQmWaeE7JKOEPAJJCjs56hgfktkLKpP++1sMfX4ERdqka9cf8jiv1/z5Hh9OSJej1hUEKLKkccmKBciuPGSSc+CNeavLwJklxLxtD4dXfWs6gY6ZQydkTEYf9y3DxM7hnoeffrqDZKTQg9kkEzEpgxDfvjgPkse/N2Dxro3qseilTBDgQJFByhhSUp5nBE2SGxVUYt4tENSQ9gGACIHCECCTcOns+UcC3sg1Dug8KndK0Nq7Oz8xDMuaShpCGv+vWe23/2dGyryH7GUKzVU6twsB3Rbyh6JPJUaqc1wfWQy6v77gVGlBL1NWReb4xjSS1nwu++2TM68irjb1KNc6ec48gYBiA7Tk9AJPArh0WA0CpAFxTBpGToCHnkrEQsZaaDDjqLhsDOvwiFXXTESihM2xxwNhmuGADIYZmETxiDXPlLbcf8fX2hf+vyUGjONiJMHM2wX9S0of0JVQhE3Vc+3OijHKgKRgEBxA4XBTRhKzyFFm4bKn+qq+QyuTwWihpDSKpAef/CaMSdfskMpAcSe//fDuv/5349VZD+CTeYxDJjSoaZ82KYJ4UnEKFavGchlXYgps9dYnItBeAAAIABJREFUFzw+fiRucBTGyj36wO9bnvjNuWMizYCeV0z9fq0ESf7qpqVybYVyv6Kl4e8sjgPmXKPCBJI2NqwobIdotgzEph36BI69/GRRvvuQosTv1XdkmB8cAsgQmGDib0rf8IO7Oz74zxero10wXdJvoJCVB8EhqlJ9eoCJcx/ctKj0tTXP7+iWQKssR0fDXtlJX/3uTmL8YR+WarTynQfObL73whtq8qtUX4yuQyMPTdMgjSi8vAOT+V1MZN04ort85W5x0s0nlWq8pb6vfOPvh6y658on69zlMI1sgSyRQESzSXBLsfT6AiFquBu+kNCbhabcY8/xoBHo2B5cV5Lk7ZrISb88WNTu32+xqVLbaqTev5S7z0i1ea+em6nYn/rVFYufuPbHlV4jKuOAIW042byKLfeoVvfqugNzcE/5FgFHMYDo1NXtD6/NK0dr+XRsffL39xOTvvzCwNy791eRCx84dO0d33i8wVkNaajxSumyJyeFxWW9BpMIWugQlSjf96R7xNG/P7H3dxoeZ8hV87Ztu/2yd62WN82omYZOfR8S4HcWIlmkpMZGALJBSV/gCEulDaPphpIKtl2kyrdF3Rm/2V9MPPL54WGxkfcUIYAM8jmXb9148Hv3/OGp0UYTyrUu2NlOmNQa7Hn8Aqg400s0jRvU/1LhLlXekAfCAEJ7ia6jw02iOTYRW530vdli6iklS0jLD/49e/Vt5z9Rl1sO06TGSiJRVGSznqtBuB50Q4N0Taz3KlC//8l345hrTh6JISz6WpDwlnvf/9zeuejJI8qNTmiazVRhqnfGAih/VEy9+yn14JRjZ7J/rgTUIDQdru1hjT4W44//ydlixhk3DPKvYTi8T7FAiXaecD42xQKy843aVX/6r/XR9veRsDzmJdKdHKTrQZRH4HTnYFB4oJSfQi6FPA5FPsgx8YA/SejoRgJt+miM++p3DhU7ndtvVbq+Pq786D/7Nd91yXPJ1FuImhRW6ZHfpYgbNxEa9IYcQSNGoWHmyf+LI86+YjjRt/fGdtys+uhd/9Py/N8uL9daYYpMoaAPegTStlnzvofyIKjEKvJCqDJPSggSlicvlU1OoS8da70aVB9+8c+tmd+hRPpAdSP15hHDY/tpgRLvPv0c/TA+napgsk/f8ovGZ647Z2Klg2ymC9GIQb6/euszdeTzLqwCm2EpjOHzgASAwcSMSlOj0MFIJBcigU5UovbIC87B3pfeUKrNQja/tl3XPy59GB/N2yqpU72uLHggShRE7WGujKLNakDNgadejQN+cmmpxluKGd3wnvLVX5+57uE/31Bpr0YUGbX2GGhNSJc6+YMt5BPAg90YSpj4xFiUa3KVjYVmoNEbhfK9Trsttv+JF5WyP2gw2HmojiEEkEE6c/L5q8/46NEbbhqjt8K0qQqG9KoFkKH/A3kHHG6hsEvp3t2UbCknzTm2UVTNGbxPaibyiKLbtVB14Gm/FIddc2mpTC47XquR//7t3am3Hjq4UnQooPM1tbiizafisDUTnXodRu190q9x+PmXj1QPhPf/xbftu+rvv36+qnsxEl6XSoBQ7oNIKLk+N+Av8Wd1gx2FolaaIeDmJZigkXpDXPpZR4usgrvNYf+pO/L8b4SJ9FJ9K/p33xBA+me/zXK27Hy2dvnvvr2+LquauHTNJ0fMSYByl7RXUwiG3vapZ6FUzr+gPILaeTXpCzEFfSD+mKQ0YXsmMrZExT4n3YkvX3iGELsXiUtsFhN+4kWlXGDh3zf+eP2Ld19aJZtgUhemRrH8vHqz9ktUpWYh5cQRm/7FZ6In3HLwSM2BMIA0Pbztqtt+8V5V6h0t4aQA6pfh3hnyLIreGAKLb1CFRakwzdTgZD0YJJWrGfBsG5quI4VKtFXtYk8+9uKDxcRjnttyKyG800BZIASQgbLkAF4n89QPf9Qx9y//U6e3q5gztXOzpKjfMOgre7B+t8qiD+DdN/1SqvKKlPxID2KDbvdCj4gFmDHkM3mYUw78UBz3m31KycIq3/j9mR/e9/sbJkdaYbgdAAmXUFMDuXEGha+Uya1EOdqr915WcdZfth9JPFgbhbA6nqxu+ccfFxpL59ZVIKWWGkWkuEBC496Z3q2/ni2nS1RhvbU1tj7qgiPELmc+tukrLzxysFggBJDBMhP+OOSye7dbfM9V702yl8BIpwCDRD0IOCj34fYUXHnUnUVNe9RvUdQouAWfR/V+KABRkqcb3py6j00IoTFHV3rUDqg45X/3E2MPL10p79IHpi6/75pFo7oWoly2+xVsVF+qvBAmCKSwixBoju+AunPuqhYV01u3oFkH1a1k+wujmh74/X3W0scPqJCtfmWdn9PQuXytl+MlI6u3i7RWjvXaBEw6+oJzscv5lBsrzULu5ROEh/dYIASQQbQaqPu3+54f/6PltXuPmlBlApkuehfmcIGnE3uuAyF8ihDPBOmNQ6cvcKm+d6p5sFB1RdtvkFTl2k0KcZgq5u26WK81oO4rPztUzDizdJVYqXlVzQ/dco/93sOzG6wupUJIPgexKhJnuR/iJyr8tfpYjD3r5n3EuENfGkTLZIsOhYo51j949T8jix+cVSF8AKGEkS9Uxj98VhKuQAftbzXM4qkAJKtVYD0aMOGY888Vu37rui36YOHNBsQCIYAMiBkH5iLygwcOXXL7fz2+dbRFcVhRrFkqQQ+XBXoo+eEyfbZOv2CBqCIVpIEZRi+vospymHdrg4/qsTDhORKaJtAhq1G+H6nR/bRkanSybVll/s27vrdm7nU/GGumoHt5aOzF5VSfAlWb+pVGLahF1YGXXKDP+sG1vTTKsDmcWBDW3vmTRdEP759YJduYb436OLhiLQCO3lRxFPUsZUQSrVoDxh554RFit2+FIawhuGpCABkkk0bex+rbf/aasfjhHeojHdyj4GUdaEaUw1aCNjhNwvEl9ExmjKXwM3kmpcmBqAEUc259vDGeRyV1DgdR42OXrITY+rB/J44572ui6qBUqUwv3/vnYase+PljldmliIgcTPI+ZJ5LTPkLQZgtdHSJamRG7/9u7Zx/7DxSwyvkgax9+Df3Rz+4d2YV2olBBxr1dNg9APJZ66+nzPfjs01gndOSSIkxaDjqG6EHUqovQz/vGwJIPw04UKfLd649dOnDf3x8rFgHrasJZsSvdtHNArsttypwn4XmM6D2NoE5UKPd+DrBi2XgiSguR2oio8IbE8jm0eUm0FGxA8ac/P2pYtyxJVP4kx0vV2ce+N+7M0ufPiShpxGhKjcyJTH/BaEZLYoukUSnVY/RJ31vpph42oisEiIPZM2dP1+YWHLv5Aq0sXKjRh4IyQgwgfHnhE8/rU8pABCtAfVHfuM0scu3b9t8qzO88uayQAggm8uyvbgukyXe9b3nneXPzojITmhujsPx3JsQULEXal00xbTLcWT68ir23dJ9ggYyCqeRP+KXFXOFJ42VRkY88y5sUYFGWYtxR5x/ltj7OzeWasxSzjXw0jNnpObecF1EtsISGehUTcTRQBKtMODoCWSFhTwERu169M3i6BvnlGq8pbwveyAP/fa12LK/T65ECo6gVhAdyFMZr0+eyFKFm7gOgzy5BHIigRTqUX/0RUdg54ufEoJitOFnKFkgBJBBMFvyoyf2b/rHt+aVpRfBc1zEy5Kwu20YrCuuqpsCX4MT5xwpKmLCJaYh2vdoA9+C/+eB+Mly0n4oAIjfgKxe5jU4OQ8RqtiJVmJ9l4Hk9kc9Gj/xxqNLGRaSq++Zuuae3yxIZN/X424bTMqlF0qPdeSNBFzNBJwc2pNboeHU300TNQctGgTLZYsOQaberlr/4DWvRpf/c+tyLeVLz+jQbY/LeOkFh+fd8+f/89YftR/SruMRgMSRErVoOOqic7HLJdeP5I7/LTqpA3izEEAG0Jh9vVT64f+5Lb3g+uPLnNURyyQaKQ3prIloNA4hO6AFvFIcoY+obx+VnfIGruCkJB+KZxRiVxTbUEJSNCjK8buC/mbAkgb0fI6qAJARETRHt8P48/5YLSr2LVl5LPE85V969kdt8351WT3WAlk/JENmjQJ5IvwTgj3BZqceiV3n3FBx5E/PLSXolWKOqYx39R1XrStresEs11MMGp5LhRye6krva/qNQlgijnbUoe7wC8/HjONuGcn9NqWY24G4Z4l2noEY+vC4hlz7bO2Kv//i9VHOG+OTch3yHYBVpiGfi1O7OYToho682psZKGKs5Q2NdjxwRVbJ2HhpAAGIUHI/ABAhQXIRHtNLkWqdDstWgEdp6iZrMupm/+BMsds5N5VyFuWaF7Zb9cB33qtIvYEyJ6eUHeOUIHaRo2SxqSg4XLMW65yJ2Prwcw8VM0pHBlkKW8mVD26z5v7fvFOeejeS1FIqckql5By2Ct5dPn0bUUSKH/93xcpLHkgS2dh4lO/wpV9ps68izrFS1aOXwrTD4p4hgJR4Gt25V1/VsfDhSzPNr6EunoZOkqqUoIyVcaGL1NO+wp8PFi71hWiwabMWSvmPQaSvn/5UcHEahhMf8Jhb3h+jcFWDNwGIZ4LY5y3q9uYDgDajHt2jj1g47tQrZpSaZ0q+efXZix+59rop9HadTSk521gEjpODHjEJw9HZYaOsvAqN+mTUz/lzjSjfq6Wv5h5q58kPbjt07UO/f7wqsxRRrQOO60I3KDTpcaW5mva+AUiGGgm9ekw64KxfiP0v/cFQs0043pLFPkLTBxaQr/3l7I/m3nJdxP4QdVYntHRWVbdQIlcTkAbxDnm8CauWD9WB7rAIEjFRub530gebDsQLny+pSwDCJK3kkZDOhqA/hC9RaJ4LzaFSWRUmymhlWGVui21OvLyk1VjsEcm50aZ773hBvP/ErjVaG5DtYAABSdvqJDhlq95IF+iK1qJ94hcfHXvcFceOhHCLlNLAu38+ad2jf7yt0lmJqJGB69hKiJDWX179/zMT6Bs1Eva87VAneqsxAeNOvmyWGPO1eX1YweEpJbZA6IGUeAKoAiv10J/+Yn/4r9MSmeWIE1IQa2nehiekwgvamIOGc/oFhZ4NB65Gwk0qgd6vT18vUEg6Aw7hhhQwPMOPi6tohKcbzJckvLwKERHfFHSs1xtQMeP4mxOzf1vy6ibZ/MS0pbdfubCq+z1UldlAR5rpytnQJOBNot6egy5XR86oRdX2X7hV++Ll540IEHnzqrPXP/bX6yq8dYiYebhM4e57HkoC5nM9ED6iKIwVhLCyWjnarcloOP7S/cTYr5WM3qZf350RfnIIIINgARCI2I9d/Zemtx85rcxuQ0x0w4hokI7NyWja3xVjidKWJpdDGpLDRPR7Luvty6evwLHBvej2CkDIAyGGYL+VmzwQqhATpEdHKoo9hIvdZhJNsR0w6es3lJxrSkqpuy/+/PSVL918Q723HFbOhm4SEFpqc3RdgNiP6RHzOXRY45HYa87PjZmn/3Q4gwiXOz99/0/bXrzr0jItBUPLKRVbFbXs6SHt4/rLiATajTFoOIE80dNL1hfUl69OeI6yQB93ntB8A20BApHO//zxr20v3nXqGDMFw/Jg59PcC0I5DkEJBT88RL9wTEUka5CSXr89kL4/TVA2zADCnpKAoHGSADbhna7BlUS5SCgogBxV71AkTmCV04CxB/3gLGOPi0rWExI8OZWrpt+4/pru+XecXpFvgWlQGIu8Ox1uJg09oWqkiderE1F0mQ2o2+noW60pXz1PTD5IVTQMsw83XD78i//YS57cqTzmQDoZdiJ1eqmh6fVJCPq6/HKIAWXjET3s3Jli6/8ekY2aQ33JhAAyiGaQBI/c52/4zbrXHzo1qbWhIu7AtbN+vxa/zqvXfA3IUbkvNXW5igOwz59+roCNAcTP1QQVOoaATXQrLmBZOmTGhaBKZA3oEJXoGnXg8jGnXTxNiNJvwpQPyf3z9y+3fzh3p7oI4HW1QyO9ENKxyGS4vJc2UNcw4GkWmnJVaNjtlFutHb74XdGw3/o+z8EgPZF0aVpu/e/10ZY3kai04HZ38/NbJGzGXFgbM9ls6qNQasQRJvJmJbya6U+Uf+Gii0XNse9t6vnhcYPDAv3cPgbHQwynUdBbX/6Ff17T+c69p1ZiLfSoi0xXFjGKpmgGkHP4Dd6OGsjbDmJSsCLgp342t+StDxSe7wZxJW9RdRYpKVIxAKGdRvolDHYcd4OtWWgRE9Cw/5nnit0uGxRsrHLNfdM6n7vrXu+9R7eviHYr0SRDwKNcCBcu+CkeqcFGEh1OGSom77YouvMhP8e2s+8WYnqgrDXkl6VsvH/ftTdf8ny9XA2NqRFcRZspJfSgAKMf60vChK3F0Zi1IOp2XDruiAuOEmOOG3HNmkN5oYQAMghnTy6bG8UH/7xuzZv/OiUq2lAezcOwMyoOn1OdvHaU4ggCRp6auvoaRBiAh/fj3wUACYbi/5/I94IEO7kdhmv48rcup3Q6nTjMCQcviB955QGDpTxWLrlrW/f5W57sWDZvfIJ6cvIdSFZYkDkiNvEBUurwbAnNjKMtZyBXPhk102f93Njx8Dsw6guLBrKngcKbaM5UoaYsJcT4zADM2iZdIjf3ip91vnrL5dVynerx0WQBQDThFUJYm3SxTziIaggdzUS3YyBSMRatbsP744685Cwx8UvP9/Wa4Xlb1gIhgGxZe2/y3cgT6Xr14W+3vn3f5TWyEXG9C+jIAHF1CUkbMxVsURShhPgRJPA5PcPsV/7HHxP3g/gJdhqt7ppM/a5xswtAjBidxgSM2vdbZ4u9Lrlhkw20mQ8kYa/Odx+7K7X46Z3GVuREV+MKlFH/Q0A/xg2UBofiXGEi41nIinKY1ZNQsfVuV2PCrg+hZtuF/QFFBo5V8/fOffj8MZ3dK46TZuLt2l1PvELUH/HWZn58Lm9eed1VmarUW0jKZo6T0ruCG3ggNIf9aETn1SIEXGFAaAbyORfdchRk9Z5e3dEXjhYNhw+7kODmnrNSXD8EkFJYfRPvSXQbeGveqWvn3XlDonsJyiNpwPb7RCiJTvIgnwMgn0anvYlD2MTDgmVE+RnqfvRBzt8kyNPgX3IIy/JD5xTpUYn2TieBbPVM1B5+wXZi7Jfe38SbbvbDaBPNv/LUFctevO/yWrSgzG6FaTpAxn9AMwoK0cGlZzEBPYqsraPTi8Oq3hoVE6bflYmOXh4bP/1R1G37vkju2Ph5g5byHh2pxH5YvGJafs2ymV1r3/w6vLXIOGvQpZejbupJD1cdctZXN3cDplx5xzYr//bTD+q1JliSKEw8Dl25/iuCTpwC/dw9mENL0xU1CpcaVmB1ewK104950frKpQcP5wq3z1sHQ+Xf+7kEhspjDu1xysZH9ltz32+ei3YtQpXWAqFlYTsSZsyEpNh8ST8qCULVSkrZT22uFFVT/ogvOBVQX7BAViDFqzQl8raBVmssElsfdlv5MdedVtLH2eDmsvW1CnS8f/SKx6+7vaJzESpy6xgrpKFBmBHIdAbCr/alxjqS+dWsBDyY6MpKmIkqeEYS0ipfapVXv2LVT1qJ2jELYMXXIe/UwRPrAaMBtogitXTr9vWvHZFrXrmjlZFISMDuakW8Koa0YeOjdAxlU05YNu6Qs/YVyenrNqed5FPf/Fnba3+/vMqiArNuZj2gGfWYzFNTGz5Psk+O2IfBqEtICOLUopxYDjCNCqxMV2D8zHN+ipn7/0SIg0q9wPvwZCPnlBBAhshcy85Hajue+NutHcvmHVEbycLuakaUXnoLWetSPIhUTcjkeHADIcXJPf4dhTpIzlbzlOStII1YLvtUpTuKOZje3iVg6ujWy9EqJmL8kd+fJbYaXF3JUkoN6x6tTr9w2yOZZc/vHtc6oUU0ZNJtqIwAMqvCO1SwRU4VOSRU6oooVS7loRNDppmEA51DXTYsOIhyeTPlEqi5QrgGLC2DmNkEC2mIPHFyCSBRjs72LnRacaST22LKrIvOwvZfv3kgcywbrhwp36ht/+s31ydSb8MwiQ2aWAR8uV/fA6EwZFCB19eVx6FXmn9LQ97xuF9TeAYyTjkajYmYdNicQ8X2F5VM/rivzzWSzgsBZAjNNjGjYv1rX1j0+B23b6O1QnSugUYhlc+QUQi6fj/9MfueQCElOs59UAOh63egaw7/jkMd0oLhkgAWVV1lexrP/PJP5oEkzIlEkPN0dKEOsTGz34nvf/zswRgDJ9VIvDdvZvv7c/83s3b+znG3GXqumdkDBNHOuKRZT40SAtKRyOWASFRn4HA8BaNCs5SiH3XoE0WNkYF0PUg7ySSOuuyGRmCrGZCUYPYMdBuV0KqnonavrxyOKd94cnOCB3uPS+7Zv+m+78+rFStUgo1eCnya9iBuxZs/dRVSIqSP7WQqd2dA2nl4SbVCdUl/N9Hi6nBrZsj62T+sFeNmjxjusSG0HfFQQwAZajNGX/Dme7dr/ffdt+pN7+8RRRMMdELj0ljy9mmb8ju+eYY5zb4xXxFngwPwoLfLIiBhL4HVgnzr8G7Rk3DhWlYVmvIoB0D7CJE80odo5qllhUNVBjTWbvcBJLB1YdXRa7vOUrLUd5jXKtApxiMx5eDbE0f+5vTNvVH2deplx9waLHn1y91LX/5Weu0H0023A0JmYYgsdI001nPQBenAK04zz5OQng6NyrA5vEd9MeS1ZBUtCOtpmBAyDo+IMglCpIm0FgXKG1A9aZdfG9sdfKMYfcLCvo55U8+jxH3L49c+H337phkJfb1SNWP252B9+GHJgFWgUDbhdxUWJI434e8BCBkaMtJmr81yFWGBlohhbaYSFTucfnNi9i9KTnezqfYbaceFADJEZ5y+6NkXH/5h7t1//iCeXgbXpaa3buh6HjrX7ANEP0V65BSP5xBT8OXmRDeFJRzGgaCjmPPc/muFIAAgKlreKKhbUZXdUkUVna4rNkfuDfCRw6f3Droa/XospW2rYuhBcyHvopxB9cdGcrI5wIqg09aRqZiKuv3OOlxMu/DxwTw91PiJle/ubC9/64z1axee4uTXgAFdphAVWSQsATtDfGVkeQrl9QCIy8Z2YEQVNndkASNWg6ZuHSIxBpGqrddUT9rhXmPKjPtQU/bylmq0lGv+PnPZPVc9PhkfRUHJc0a4ntwWLwI/r/XxufHpawr/tml/p/Jv9XpCLxoeTL8knbRY0qhFhz4VY4+4eJqYHPaHDMbvQgggg3FWejEmUtbDm49f2fjRW1+nnpG4noLMt7JmOtFusxYVbQLShORmPnI2/DdKbmHfuI2d1V1dYqIVMNmDoXphpwdA+K8BgNAF+9oKTzK4BgTVIxPAEEWLBFJaDSITD2kt2+3YfcXYEwZNVdanTYuUCyw0LZ2IlqUH5de/fWbb2vdr7c61W+l2GnHThMwTDQiF64TyQkjJj0M/DhwnDcOMIK8lUFY7RTrR+mfKJux8Eyp3eBhjD2ndkip9lOtp/ccpj8WaX5sd6V4OTeQ4mcM66IFXW/BOfa+1jzxYZEsiC6UXGK6M9gwVLfPDsfQ7WyTQka/BqGlH36wfcdw5YUK9FxvDFjo0BJAtZOjNeRtO8q68a7/2t578XcfS53etEM0ot7qAbFZVDHlgbRHCETOIWVMDBvOv0xeZUqI6JAlY0S8otyG7OcmtI6KiW1rO19WlN0sCj4AwsT8AElhFNbTQJuvpUaSdCDKiEtXbHnqnvteFF4qqXVOb034DeW2ei6551WhvnoJU03S7q226l83ZOTs7QUihCUOTmqk1abpWKz29qaM9V1tVNXqFVTnqbUyY/DgS9e2lKl+VK/42c9n9v3x2tL4GUdkGODZXm7G2fZGR+AWk8OKxiVron2RkJtTyI6kul7YBGiXtVX26BwNZL4k2YzLGfvHKklP/D+Q6GS7XCgFkuMykr22BDxaekF/03DG5poXHaflGaDIFQ89BaESpDng59bLPwRRiLOeYFWkeklCV/xZIUXhdxeepbJN02AWxIPG+EZTm+pSshRBWHwzJA1LjoGFk80DMjAAihu60g0xsEmr2POMc7PadGwdrPuTTvRIpyHtgQMFCA9jeAZZbBA70u8H2PMr7+PrL0bY3d5edi5GIO5ybUpkPDYIoBSg8RWqEAwkg7IpQlJQWIwEIsYMqDRz+mFGsSZejbp/TfmXstecPhDihKMHXhzUXnjKgFggBZEDNOTguJjvfqMXK976QWvrC0d3r3zretFfBcpoQ07OIUNiKYlSUb6c/vAIolBSBIFfDyypZc/q9nzbh1EWB4yp4RtpMfGr5voaw6B60V5hAnqJqxC7M24MF6DG0pnXky8ahYf85p4ntv33b4LDu8ByFfOGHZ7XM//v11Vor3HwjHEp9UFktl8pRiEkJmQnYPjW//yLBwmF9C2EWNh8GEH+x6RTWcgp08SQQmTYSSCV2xPgvX14ryo9pHp4zMDSfKgSQoTlvmzRq2b5gFFLvHoO1r+/ZuvzVI9JtS7cynBSi1IkgJCJUKeRk1SbBOqV0WUcBC/2O9gxdSdPq9B/VHdiTDOdwWD8+FAP3+9EIN8wYgAzgUEI5GYHj6WjPC3hVO6N21iVhIrUfpv6sU2Xjk/Wpf/90XVnXAiDbTA31sKkUm8qzfT0ajT0E0nXxpYkDpTP2QPsGIGpMfn0wVWdwCTQBkmL6pb/m84BZXoYlqSimHH7xaWL7K8IXic20Dvpy2X7uAH25ZXjOlraAlCtjaFs2A60fTEmvfO3o1OqFx6FrHeKyE0m9CyLfqXLYfr5c7QfEQmuByRDJ0xAeJ1I1P3xBOXT6kMfQHz0SLrrhMtaeymFSv2XNCYsS+XGs6tCQnLCHrNrraweKCWc/u6XtN5zvR3Qtqaf+dZ21+P5T4u5aIJcFIhpg6ch61PKoaq4KLw4FssyEMgsl2j+jD+nzbEdly/TRGEA8eH4javF5wkiiOR1DdPJhr5Yf+aP/nNSHAAAgAElEQVSZm5vG5fPGHP57jwVCABlhq4GbEbuXb4/W5dOQbdyl/aN3Zrmd63bw0m0wXZL4MSE8F5K6j6l0l7QwhMPgQbFvomSnv9sGgQnAfYz9qcShFC15P46El3GhUUOZBdgdHP6m3jqIaDkaOx2Ujd93fvne3/iWGH3sMyNs2jbb48pVN536wb+uuXUbbQWEk1Lhy6gJx/OgGdRtTn1FH28ZYiYBJDi5rgkiB+4b2wgtG2ZxlgI6l5nTjzbXZwRLSugC6TQQs2qxKjcBE0+7tlaU7x6GsTbbiujdhUMA6Z29htXRiiZ89URk1+2BznVRr3P9Trm2ljG5rjW7ZrMrtnLSq5A026HbWZAgH3VQu2kJPRqF66W5R1ExqQzAMuLGQ7+ct6gHzaFSZF2DYxvotJOIjtlzQfluJ1woxp8Zgkg/V6Nc89C0RY//YmGdswSj8k2s+67onYkqUXkEikWg6EZ+tMoTUbhCgyEpJ9JXAJGwFW7AcCLQqMdE5CCpN8QHkawNJBJxyC4Na7sbMOa4q08Rk469o5+PHp4+QBYYgG/+AI0kvEzJLUCyrtAyGjrXTkVuqY6u949a88b936/y2hCjYDSHL2LcXCKNPNPJKx68Pi4jyoEwWFB+xVK5GAqJ+B/WWidY0QGDVBhdC2mtArH6vRYkpp/4TTH51KdLbrQhOgC57rG6xvn3PCJXP7VblbsGEWYUVvEqFaUiCpog31UEIgQg3FBqKgDxHD+s2XtDkPdBLwhMheMo3jQwjYvKgXDPoqXBzXgwXQHbnIz82C/d5rMU9J2Dp/dDDc/4FAv08Zsf2nMkWIDi4/YTf3mqa9lz+1Y5HYCrRK0cmYeIUN+IB81RpHp9+iihQpVH5W55KhmmjYzeQOktmMCJgmc24Qs8QyCdJULCGlSOndkW3/GY/cSk00IZ1F4aX3Y+X9f16i2/71rxnxMr7VWIUuWdn4tSui6BZ0nNOYFnGCTPFciQ50CnGBuw4PRmKKwvEjAbUJFGINnMAyDCTQ0OU72r3kuY1VgtdsbYr/x4lKic2dabe4XHbh4LhACyeew6bK4qV955wNqHf/t0rbMahtkFuO1c3kuMT2bEAvJ+FVcfnpgdD38FcuENbVbBDsb/RvF3xcWUo9g4/agZyORMuF413IrpqDvgzAPEmBPDxPom2p/Clt5rt1697u3b/6tGWwMr381nsrPhU5z5/Ik+3UzUd0kIQPxQlQb2HBhAlDpxnz7B/PPcF1OzMZhR+p4mnKo0qLlQosuJoT06A2OP/N42ou5Li/t00/CkAbVACCADas7hdzFqMMs8cslt9oqHTi631gFup3oDJZYLy+hz/Js3LT9MwR0F/gYiQRuWrspFRZ6pWIRlclNbzvXgUqkvCVNlBWy9Eu0VkzB+z+POEJO/f8vws/7APhELlL3+wOkt7z90XaRzERIyw608zLUpqBdIydQWQleSquAiPAhB3GkEILRj0LzpKsSk97etT9Ia8hRdAt/If2ZJoVIqLVd08jIWQZtXjjX5rTB13zlnmtuffctga8Yc2NkaGlcLAWRozFNJR0nx8uanrm40U6+jwmpXjYhMhkiCJLSx9PEVtEcepLBpuaANS4PO6kxEzapeROFZzDPscDtCHhZVbRkC6/IGRMX2GL3Vcediu8Pu64+EbEmNvJlvzgUT79x7atNbt//V6F6EKjOvGj2C0FVQql00lQQQEjGfP81XkOSuQh90+i2nrHJfPMkEULQb+clzz4tBpwE4ae5oXOdGYVdsC1Tu/s74XY4/DmMPWRwCyGZeNJtw+RBANsFI4SGAnP+TM9e/fd8NifR7SBAvFpECUhmWn7Por42UN6ISIn4OtadhMSjy0cj9IDQhuosst7TpmoYuN4kuvR6Vk/a9N77jcVeKmmMW9Xc8w+l8ymXhzSd/1bbowW8aXe8hqVHllK+AxbTyFDl0oNOLge9RULiQutGJH404kw3X/4eCh+A3An0s9tRbq1E5sM+zxRzuAPUXOUywqMNyPRgko5uPYK05DdEJB91eM/2Yn4mxBw96gs3eWmKoHh8CyFCduS08btqEOp+5+7H00gdm1ZqtEOm8UhTUg5jHx6t5PysuXsh7cBxLPYhLpaN0KaH6Swrn0wolAKFMKuVH8sR3IoGYo3QjuCrIQD4SQYc2CqJy93erd/zKN8X408IyXzJv10v13W8/9J3OD+/9bjK7GEmdwJcMrsHOSc5jMRWJcNR8BqFEfyNnxn4/11EIMTH/us+NRdxVwTwGk8aeix+RKjQeqtZy7jJnJt5gARNDtOJpo38nAMlrpGhDoUwTRl5HRozBqAMvPBVTpt27pWjtt/DXa8jeLgSQITt1W37gVL2z6OH/aqxKL0A9vapmHe5Y9rjx0C/Y8YdlsHiIKscsbDz0A/26uPrGBwvek2iz8kMqwQ70sQUaZHqD8l+6J+2HlgHpkBKigGfWo12ORtmEA66OHLDvZSOZfE92PVnf/OqtDxlt83ePty+G5aXVzk6uG6siUjyQ+P4JQAJ6dj8P4Rc4BHPSU9JblHEXGvKeC1OjnJWpOGjo+hSVMgRcVypeRMYMItYCXN3myqvgJYKZUBzSQu+Rq3FkBJ1uBfLWBNRvNfMZTNr3Soyf/JIQu/ulYFt+7Yd3/GQLhAASroxeWUCu+e0pq57+y231XUthCqrZ9zchKsch3iyKgriARS+mVHtJbHg+cAQx7p63T7W59LWKR735UiZXKDZG3qcMZJ0E8tGJKBu/54tiqwMuw7hxL42kN1dmAF5799S18++53ex4d0Y0swIxm9QSi7WgqAuUaJADLqsA7H2K9WDOildHwZsoonCnnd92gLwALEIBqq5Ql+XNRYuoNwYKj7EwmcPVdBSm4unSTTgZG7phsNfRnTOREaMQq9kJFdsccDqm73zPSJq7Xn0ZB8HBIYAMgkkYakOQr195zZoX//CtMck0qf6oShkfQNjxcAGT9iWiKMnTxkFdzQak7vAbKO9jJHXLtCj9IOPzk64cO3epb8SArptwHYm848DRKuDFxqNq24P+hKlH/EQkZzcONVv3dryc71jx9olNr9x5s+hcgoSbh0lF17oDTXe5y5vkg5k+hLwQQvyPuXs9gL9hf2jBCykeFMv2CtiOhGlY5GIobizPBqICyER87RjbVzb0AUoTrFFjekBORtCFUUjJGkTqdn5z9LRZf9QbdvuXKJvR1NvnD4/fshYIAWTL2ntY3I1CWamnfrLOXv+SqNY8aFqGY0nMREG5daroIcEq1tWlWLnBjYGu5sLTMxymMmwfQIq1H3ppHda08iVKiI6eFBSlpMYzDzp1y0sNtpdAKleJyKgZqNzxsDkYt/8jSO7UtCWV/nr5WH06XAlZPTvVe++hC1e99dCFNWYj4kYeyFOMT+M3f0fkVQGdT89vcLm04rtSlP4KPDgX9Qm1dcWbReA1ch7KUDksx5GwtDg8EqIiRgGaflkBIQwYng3BsowSjjCR1cvgiijnYszy0YhPnPFnjN/1ZSR3fCQEjj4tgZKcFAJIScw+9G8q19+5/8rHfzevIr8E5RoJBtLmEDDqavCkx9RKBkvianA0ze8RJOoLCSOIZhN9d19F7fjl2YQrHXZ2SCKVoilUzEU05Dp1PLI0bwRZ20K3Vo1ow87vJKfO+h0aZjyI5L7Nw6EUlL2Ola99beWL/7gx3rUK1VEBJ9UGI0YeXjc3a5CNiZiSq3C5DNeAdD1VA8FltD15iSDvURxq5GhUITPeE3ak3IfrOtAtDTnbRSSWRCadh2dFkBMmbBGF1OMwWLLWYIVLPVINI7nVK1pszLOR0du8jXj9Kxhz0IfDYS6G/je7d08QAkjv7BUeXWQBufDXp61749ZbyuxlSNBGRd6EL1IlLR2uR6KkftUNTC7ZpLdcgwLklBsJAKfPAML1QSy9ypVZBCKUgyFxKhonhdwpRk9v4eQVGeVos5Po0GpQMX7Ga5VbzboWkQkvoaH+QyGm+2RQQ2eKZcdrNej+YHrb4rm/bF78+F61VicqZQ7IkJRxBZDrgozkwUS3RR3/mrQgPQ+edKETghTpeQT06htbQXknG02VZsHJ5GFETdi2C09LIO2VoWrCjBdQO+k2T2g7alb8HVjxPJAAtPIPEatuRLSmTZTNCkNUQ2e5feJIQwAZ4hNY6uHnX/3uHzqW//vCWOdCxC1XVfjQi27MhA2buzao1JYlUaUOyT0IfrkoHcgrsI/LMCg7DXIhBBK+MJbn2hCuz9MVABUpVskouh0NeUlvxxVIjto+Ex89/TtomLYA5Vu/L5J7D/o8iex4uRrtS3dEatGJy9782/lVVgfimkC+sw0RODCjJPFIIKLcBjYTOSNc5UYZbMIMcjmIDXNDMuVgLjaEClXfu+FMcZ6EEubUVGpH0eYkUT7ugNf0aaecholHLRpuocJSf98G2/37+M0dbI8RjqdUFpDyhVjb3Ovm2ise2qsu0qmSsp4NNyKQdV2q8iWROWhU4E9xFOI1Cvam4h6BPj2A3/jmM7pSiIaxwtCgc9+6YijnQjEKsuVUqbDF1UJK7c7TKviN2Y02oGLMzm9Y42b8GRUTX4Q1ugnJnQZNiItzHK3ztkPHkjq0fHhiavXb53c0vo36sjbIXCd0TYcZiQP5HDw3D41KaQkoyCtjZ49sT+2DboE2himOqZGQE+HBBHwSgPQQVRVvGNyASK1A9JaQ1+DqDWhzJ6Nm5lkHYtKcZ0Pw6NOiHlInhQAypKZrcA5Wrr1/+/a3/vKq1/RyPOp0IJYwkM5mYUUFewHcGMgcJJ4iTyoiUSwo3fXh0YqdlwIWBW0MG/ST0Ltz0PWsqolU34NLb+5CwKHGOi8CYVQhXjnRi9ROuwVVU15EcswSJMcsQOIQApP+Mj/1+inZ27A/qkfb4v2c1W99o3XVW7s4mUaUWQ6SUQmRJ0GnoiS4n90ulEazYdTXnJr4uPCtqD0nyH1sVEpdXILFSROfVqb4CfxmdIeA2zCQcsagdtpZ52LGcbcMxZBgrycnPKGvsYPQcqEFPm4BufbGA3IL7nuw/aOXyipjWViGC8/J9GxWRbS7G7Lw9pVKayM23w0nxS8lCijjWdNbEmV8j84Fb6i+B0OYQiXIjtThohJ5rQoyOhax6m3eiNVMvRZV4yUStUthlC1EojYlxOTsQK4D9jKwKoLutRXobNwOufVbu6vn75Vu++CcbPsS6E4TYloaMQoVeh7yacBirsOeBEdh3/8YKWIQ4yNvQ0FtMQsyX6GIA6vwTP5BktwMuh7XX/v3Yi1i38uJV2BpWxYN23/xhfgO3z5GVOzbOpB2Ca81eC0QeiCDd26G3MjkshsP6HjnH09nm15FtdUNXXYX2FvZ6+B926cs8Tkz+tNEyIJTgkpR/TAZ72nE7SSZEiOo7uIQWqBbQaW+lNpn3i36vZ87J2Us0qDQdO5PoL4G1xXQEIHUY3BlAq5IQkSqkawes8CqHP0yYhVvoKImC6vsZXhJF5GEDlm5FmWjutTkTeGMEFUXSSl18mDo/8BiA52tJN4LlHUCXV316GqvR6Z5CrrW7C1bVuyZbvloh3x3IwxBlDFpGJoLg1hpvRxM2sQp/AQPHjfo0XMEX2VFdsj9OH5oiv5Nd6lpkMJYSq6Yq6uD/NQngUew+uheLgl/CQhN4+S7YMpe+j0dZKAtE4c9dn9Zt+fXp4uak0J9liH3ze37gEMA6bvtwjM/wQJy6R9mdb1x+zPx3CJowmfu9V+AeY8j9lXaQzlHQeEskk31m9d6aVGmIIfBV9K5o10pHEpBDYueokbx367Vvwc0HEQPaPrM5JSzUSXI1DAtdYNZPkimla7u5iWXujIAehZcGYUUCTgihjQiyEXLICJliERHLYhGRwnTqnrVtCo90B8j9ipklDIQAjohUl7Cy2qezO7uujkdXrfM2m16trPplFz7akNkmxBz2xCV3YiJHPOCBWy5nGiggTnUpEcPI7hUmr2nwIMoKrOlpDk9D/+bp0H3SOu+RzZYannlVRT1EX6m+Yn2RHpwbOr70aAZ1LCpwXMiaNcnoubgi2eJMXPm9XIKw8OHuAVCABniEzjYhi+lFO6TJ92rt849Fu76ggfCCVfo0P2aUk7q0tZPXewBBWxvH4YvStliRaLFAFBcrsr6Fa4i7vOlWgOxJFUVRvGrAtVvj6ISjYO5OIiThU70VJqB/9DFCAQpdmTAhsXyrkLT4fglxPT/4C1d0wx4pNwYdO/RpbnJkaqgyKug6+WgizxMIw8dWQhPwqVhuYAR9bmruDrAL6VizXIJx7ZhMr29zzHG4w7CVfSXgN+KvC4F3DqH8OhBSDqYy6eKEGjjCeBGQdZJ1+B5GlzCQp2KszVkHAsZrw61e31tDrY54j4h9u7o7RSGxw9tC4QAMrTnb9CNXrbcv33rvD8tiHe+jKjRrtjXfbVSjTZslzZ8v0mdNlZuQPysGMrnPGIgo+eHbYISL6WvrVhmycshho2gQY5CWur1nDrXPQh2MWhz9g/i2Je/+eaI78tvgPB1MBh4WEvDV1YKNnYKKfleFSEGgQgRCgYfBi8/+uPv2j4gKUr1QNyJ7+eT3fI+z/YiwANcKjUTAjqVt3F9rp/X9z0OVXsmoHuaD1rq3wm8adMnAFGxRK7lVTflXSCotPIz7EERgn9vz3HhSh2GGWUQoZ6PtKhFYuIXXonuc9IBIV/VoPsqbpEBhQCyRcw8cm4iV/z6zBUv/PWGUc4qJGMuXI8oTohaxFPlo3ZUAYqV5Rg9c2ZtSLq0qeYSkvsbuCq4aP9T1/P5OHiFawX6cApeqaS9v7HTxsyhNcmNj4oORW3+upDsWbAHwh6DCpEpj4YS8kwAokbr/09pmvQ8E3siHGJS5xcfy4f519QoFsU5C+KqchkXuOQ4GkHedfg4VomnLn7fPlyirJGLQh6YzZoexaYUUvi5kQ3iVIFNQCATgOWnAAiDpoY8kVVqJkwzijSTH0YRHb3P89j1O18dCRxjm7okR9pxIYCMtBnfjM9L4Svv/Yv/1Pj2XefXiiw0Jw3XoIS1A0MShQkBiOUDSF4R6RbCQn0YGIWtfK+AZC4KIMI7tv8f3sADFyJAmmIBbh9oaO/2N0vJIENhHw/CI6BQYhX88u57U6yTQQBDIR5yBALPImha9ChH0VPdpNM4ij2t4Gddg+tRqbOmwl7+WPmOuqbAg7r3DY05vqTtcL5HqTSS2+WTFbJuOIGIAjmf1grKE/PBy8dVRanPCR/2VNgqfEKh0kAFGH1iTObEJLDSo9C0JFo6BZLVU5CYccr2YsyFYdK8D0t3uJwSAshwmclB8Byy86267jcufViuf3b3pEOhHwodUVgH0HnDpDfioPynSIioH2Nnb4A28yAPX5RIVpf9tCW+0YG80QaqiAGdoFaoAWY3pUgISV19I2oPH0wUqFAVV/H9P6FYoKhPo8cM6pzC0UVNHQU+qsLBxV2ZKvzEXSGFyJka98c+xSFFzo0IeBqV+BJoUvk1ER+qpn4CaAZCauHRy9GejkGv2BUVu805QIw58dl+TF146jCwQAggw2ASB8sjyPWPzWp95bJnol2vI04UrQQahsubkO5RAKZnuQnWoSgOtA+Wp9hgHP3JzwzEIwUhsYG41kbX8JMtnkSeBaV0mOyQ+YjB1O8eN7RbsSQaWzWI2A6o2/20A8SE80Pw2CxzMrQuGgLI0JqvQT1auexvB6565cq5NViCqBkBbKUTogBEgMpug49gUQr/M4xXIVdbfcYnyJGUZmL9sRWHtFgukEJ4fkiLHMZEAk1dOdjR7TBm5wvmiAkX3lya8YZ3HWwWGMZf3cFm6uE9Huqidpde+4d1r119Qb2xAgaR6+VykJYqr1UhFU5h83+DKqm+5s+3lDVLu8GrJPvm/HAux6/4ko6AIKnAwi0luR5ozgBe1VTU7Xb8HNReemtIu745Z2RoXTsEkKE1X4N2tLL9hVHZVY9f3bnoxrNq9HUQhBp2HtJUie4gR9Gjsa0oRQIRo8H6YMMaQIL6Ad8xVPRgVOMVVGYZ6EQS2cQ01M446wBRd0YYthqsC7VE4woBpESGH263lR1Pbtv8zl13aU2P7DpKrieOEZ8uXIWwNgYQKo+lHWyL8xMON9P343n8ng/iAKOpIJl0yoC4JtyciU5Zicj43Vviu3x5f1E+Z1E/bhSeOkwtEALIMJ3YLf1YsvO+uhXP/aWx0p6PMmc9hEvatpREp0a+gEKkqCiK3nQLANI3KpMt/YzD7n5cVq0cDsfSQFOmOR4cLwJpTodbNuPZshnHHy/KDl8/7J49fKABsUAIIANixvAiMvO3mcue+O2z9WIZ4k4zlAwe1YJSf8InCGyHAFL6RUM9IMQ6qeuwIwJp4SJrA2ZsCkZt9dU52OYnYb6j9LM0qEcQAsignp6hMzi5/tpZa1657plKdwmiMgWSTVVc7j6AbPQo5IEEXFShB1KSmSYesZwJRGPIyjTaEIVTNg3jt//qGWg4/G+hpkdJZmVI3TQEkCE1XYN3sHLNb2c1vnbjM+X4CFHZDsGEGxRY9zVuNxp60B0esBQO3mcbtiMjL1BLIpcG0tFqJCft8Yw5duYFoibsLh+2cz7ADxYCyAAbdKReTq695sDml2+am9A+QlS0s3CT6hP8dO9C9YWE3kep1gx/+R0gq9cjuvWpf8b2R10SkiKWajaG5n1DABma8zboRi1X/99ZLa/ccH3SWA5LSxV4qdQC07hc92PiUb7A1KB7kJE2IAk48Wkwp122nRh76vsj7fHD5+2fBUIA6Z/9wrN9C8iV/3dW26s3Xx83lygAIYBgokEVqlL9HkROqE4gTSl2UDZvn1w4P59hAaJ3J2GtXHRnJHb+75mi7oTnQoOFFuiNBUIA6Y21wmM/1QJy5V8PaH/lxqejkfdhaG0q/cFSsqR4RADiQFC4ippCmJmvmDU2XIalWFquMJCzTeSTM1A544pZYtQRoaJgKSZiCN8z/OYO4ckbTEOXK66f1fn6rc9Y5gLoeosSR3KJA4sEpEhzg5LpxQBCbc9F/SGD6WFGyFhczYCjx2DH93g9ueOVJ4mKgxaPkEcPH3OALBACyAAZcqRfRq65flbqlZufiRnvwdBalI44fUivgoX7cooPi/oO6P8GKesFxxQvw2IupuIkvN81zfEvn4OjWCfps1ZyECf7mNxrQOwYJPH9/39STO2zCLs2PL5YU5cfj0gkfbERzgMFolI+rX2R7OxGa0hxvWygZxLYxNc0KfTY+HYtLlwQysvjUbCtKK7Yo0DoaAa6RAyRmkNej824aP8wgT7Sv8W9f/4QQHpvs/CMT7CAXP+X/VPzb5lnOQsQ19q5uoeBQjfh6A5cQ8KkkBZJtJImiOkqAaeC6JK/uXH1ls8IyzsfeSpFYOOvWCmEyqfk/cEQOpnEmaLByzmsOGtGNHiOp1Rbg5Xu6vBcjbT4ABK7knkI7ldRORref+nY4A89B5/rX4DIvAgE6H4+BgX8XkoqNhiPEmRSZqDgnaYUDkmdkexAbd/0nCwEFdDaF4NaADR0PzpWhQI5tyTIdnml9x7QxEgTGjVvkkwha8FTEydg0x9PKT8SVTu8KFPMSJFH1rDQiVrUTPrKX7Vt/++CkCQx/Gr31gIhgPTWYuHxn2gB2XFLdesbtzabmfkoE62AozZAzxCwdcmN6eR0mFm1IUrTZp1y4sgKXuIFZ9aLPZCgR6TI+yisWL+Mi9CBbuX2aIMXNn+TNl4HxBxPe77SJKf+FFNl8ZlSnoSUXKWLziDiKnlb9T/GCQKUjb4o9EsSW2IE9HsmaRyBQ+PjIYkxsa8gSHFQsrAWYxNrshMg+ODICog+gPA4fPWUgucQhALJq1AAwOqDPgjrrqlAKQAQki3UlAAkPQeBlk73dBRDgKc7yOlJdInJqJ160lkYf9nNIYCEX+7eWiAEkN5aLDz+UwDk0ant79z5itbxdHmZaPTlW132PAhA6KN5AlY+xrusY+Z4A+S38Y9VYhUvSQnS9eZPcEwQhvG9k27PI8ZxmOTVkNvB7oPLPzIhMG2cLDdOHovalDVN433bdSUM3YL0PLiu3eM8GOoc0j33CAHU6Jla3SMN8yLVQd3f85VyYaB9TuhBHgN9fBfJ3+hBHfoEKVoRR5iPeApAemRlC5YoPHuxN6RYjgPzGAQM5I4wpS4lnxS4uJ7OoKmRV0KoqNR5GVwyogod2jTU73Tq/qL+gufDpR1aoLcWCAGktxYLj/9kAEnNq0ov+df/2k33nVmGFap8VzhwdZfTHrTTkSqh4dAG6sAx8xziodBK8GF5Wj9UH/zMHkDgCbAgeVGoS3eQidJmDIis8nAM1jXX2QHKw0IeFYgkq6GbyZdy2dweuXS7rnl5RDQqYLWh0x9p+64GZ/1V/TGBBf3IACF8vXK/9JjCZ+yWeIxQBHKB2iKr+bHoeJSfnwEkCIexN0HPT6G9vNI1p1sp6CmSy/UBN8CLYoAt+pnMYWsCBF4G6XgE4CAcxi92hvIWdI3AjIDMZwXw7ZyR9eiO7o2aGWfXivJjmsOlHVqgtxYIAaS3FguP/2QAkW9X5d5/6KrsiuvPi8ulMOltmAI8tJEJQOdkAIWU/OSv75WovEGQ6aUqX5X4DbTO+d3f3zQZSDyhvBJpwdUcOFEHDr105wDybTgU5VjI2+XIamPhJndA+eidz9S32f1vyNnj0bFmtNuy/GS3+aPdnK5lu5vucmiiDVLaEJoHTbiFnAh5HB/PkVNSe4PHL4gs0jP4ykyMgjQY2rD98FvRN82FAVeo3hhD+p5IcE6xOfx7MSYW51eKhpDXNQZrwy9y45ig7gWRKhgO5TyIGTmjPBO+mHJ0Mu4EaGOOuz6y06nfFWLXVLi0Qwv01gIhgPTWYuHxn2oBueLaOW0f/urGhLsEFiEAhX+CSA55GgwqvksRvJV/7GpqOSoAKcp7FB/Dm+pSvBoAACAASURBVCoBiM7HZV2HcuGwyAuRAl7ORMaugBHfHlbtntdqW8/+nw3pyGXq7SqINQLplTuhZf7XkGs07XTqlHy2w3ScNDSZhSYcaMjD1MnDIC+FHoAS3vR/QkM/SRLkv3mM9HxFgkx8nF+uXORduRBwGe486CKrIkp+riR4/uCRgxBe4Imx/QIQI6zUCFB1BdCEzboKX+X9Ii/L8RGcxs4XUdNC1+0W2yG57TfOFJP/66ZwWYcW6IsFQgDpi9XCcz7ZC2m9df/Wt//fvIT9PiKUkyBvI/A0KMRCu1fgTpBrQnkA2vD8N2KVbabzaBOmD72d+//ux+1p8+QoFr+Va9Bcug7lJzLIuBpcbSL0sp1T8TGzv4OJF35uYpikeNH5ShXQXYNMWw3SzVNyXY17Z7vX7Onmmnexuxs1XXbAQhcM2Q1Dy8AQeWiS3uh9zAgwjfZwCm1R82SQA+Hx56EVWvD9R5OUVPez7/TghfJa3/vys/GUF1EeF+UxyD5+op/zKMGxGjQqt2IMI6BQ1Vf0MQPPxB8rnZ73qAAtCTuyK6LTvzdN1BwTikWF3+k+WSAEkD6ZLTzpkywgO+6Z2jL/F4sS+XcR5ZBLkCimDdI/g4qf6EfuD1EAojZG/w2aE8F+NRafwjWvfjmvwqAgP0KbrubUIG9HkKF3/4oJSEza70yM3/0hIU5o6ussSflhBJ2ryiBbquC21yPXtjVyzSYyLXsi06rnc20n2bmuuON0q8S0XwLM46IKM0YWAx4Mzk+Qt6KLDHStGxbaoSMNnUEjKA4go/igyZ6ZAk42BduGfjAVYDKAbACsbDsCLfJAVJ6DQmQ0LsYRcpo4wqYqz7KuCTMyFkjuf52+263nh9VXfV0p4XkhgIRrYMAsIFPzqrzVf/5FvumZc4mR18l1QTdMSDjQuCZW9RFyBSv91c9Zs1NSnGgubJrU5GCq6irKaLPCob/BehKOY6IzOw5l1XvAGL3XHNTu+DzKD12yuTZEKedGgUgcXZ0GPFEBSdkXTn10QGanoCtnwHMmwzKWwUhLN+dtpcvKZYhEHbidutv8+tczqSfP150PERVpFQ3jZhF6Ror1Ua1zAAJp5Wz4/YGqCVBnEBFcaVWUO2F7+RLB5NXRXznvISHhQqO8feCJ0D9GqtHYPhr1u5w1B2O/dYvgRpjwE1qg9xYIAaT3NgvP+BQLSDnXwMqnTl3/zt9urIw1work/SrWHmEpepkOPAjVv2eoHgveLf23cj/Pzpumbqm3ay0GKUzkbYmcK6EZFozoWETH7PdnJHb6EepPbRoKG6Gz6BvXptY8dl4MSxE3JCQVaXGVWpna5G1CVQcw/SotbhxUeQv2uAhEOA+igKIHeCkpz7VcvmejPBqpO4pWJkv4RJVeEl1eFfTEkTKx19nxsPs8/Dr3xwIhgPTHeuG5G1lAtt08q/m1m55Jau/C9Fqga1QFRIfRDlbcz6F4FSnZS012BpWick8I7Zj0hu135FGlrDRh66OQ02uQRwMQHftSbd0O87WtJl0CHJ/bXB7H5pheKe/R3deffr6z+R97VZY38i28vEpdsKtAoSybQnsOEFXAGkT3lP0oLBYAhW8j6vfwv8mcaWIA9svDqCKL8CZPUrVRZGUWKbsBDdteNkdMuOjmzfGM4TVHjgVCABk5c71FnlR2Plvb8e5N/zKy/9nbcFfC8CIqbk8cJn6OgJv9aMfUgRw02MKAzl3UGnSPNkiDQQUiAiNWiW7bQt6ofTVRPW1+pGHHO1A5Z95QAo0NDS8bH6jv/PC6tdn0s6Ii2aFIJwkzGCAiKmTnt8ETi3Fxw2DAaUWlu+RtkDdCmEsAwg5bUOQWFGsRuEidPRctEkebk4cXnYHqaVdUi4ojWrfIoghvMmwtEALIsJ3a0jwYVTV1LfzxH+31fz+/KtYEL5uDgANBjRqU/A04slRIH64w4SLCfzwRhysqYIsKuLIWDka9UD1mh+ujyfHvo27yB0LsPmya3WTzvdutfu/Ohbr9rKhMtMKi0t6My60jBjNRWpA5B8Iy4GquT19CgOE3VgahPzg9fTP+lBdaU/zIoKBaas1CFmXo8EahZsoX5+jjD79diIP8OFhp1kp416FvgRBAhv4cDronkG0PzGpZ8NdntOxiRSNIeQ+DEun0pq3qSz2D+jhM2HlVUmrEKnJWWf1tZnLsC0hO+ADxcesRSa4czjF62faPWW1Lbn/Gy74D4TQiqmcQI7Cl5Dr9ofAfyE7E15WD1JSqo/rjkzEyL1ag9kg/+32ZAT8Xd/pb8ISJDqcWsmx/WbXtSdWi8ui2QbdwwgENOQuEADLkpmzwD5i8EPvDa07van3vD8LTFnpEahiNvK6bURmRcU3XExJmxcsw465ZXrUY0N8HEcCXVTojrSNarruvLr967v1tqef3SUbWIBFpgsy5igXF1BX5IbO3EID4OXOuN/D7ZQr9JQEplwNPc1X3PwENV3qRl6ejW0xD+eSLZokJc0LhqMH/NRoSIwwBZEhM09AbpJQLLGCBz3R1vAQWm0JsQ3Gs8LOBBShvZK986P91ND97ju4tQtJsh0GVy7Zk4kflVZAXok4M2OepydAl+hWmeDG4xJd7RwRR1Ptgwxn4ONJeDdzIXvPK9vn5oeE8hEtwoCwQAshAWTK8TmiBfliAmxc/+ufXu9Y8dYPIfIiY3grNyABE9OgTYQVtIxQSpA/l2h3yNMgZobYQW4MJE5pGiJP1O+U1NLXHEKs9HMntTqoTZX1vsOzH44WnDlMLhAAyTCc2fKyhaQG5/vpZXvOrp3S3vH2Ol1mOhJmGoWcVSzBcSOmpTn5i4TWpRVM1w1OUUEccSFNjItGZ0B8NOa0MOWM7lNefcKaYfEnIeTU0l8WgHXUIIIN2asKBjVQLSPnCqOyal76UXvfGeXp60V5GfhUiaIVBxFYGdRVS74jHnFaWpcFxPVhcm2AAWYpnaUDUgy0TaHfGoWzMEddF6r/yfVE5M0ycj9RFtZmeOwSQzWTY8LKhBfprAdnxYA1SC4+xU/PPy7Uu2kt3GmFpGeiGo4h/ScI3Rz9TwiQLxWtPIisW1yS0u7Vwo7MwauyX6sToMHTV3/kIz9/YAiGAhKsitMAgtwAl2d3294502t/bJ9+x4Dy3ewlMNCFqObBdiWiUute7Fd9JFHBtIEUtN7E9UL/Vtw4QdV9/dpA/Yji8IWqBEECG6MSFwx55FqDQFprmT7fb3jol2/b+aU6+JaprHtPLG3YHLCNnw0qbHRkBN74DqiZ++UzUXkFkiYFS+8gzWvjEm9UCIYBsVvOGFw8tMPAWYA2TrkerYaemtq969xQnu3YP3W7eWddSet5dDwe1qKj94vWxqd87Z+DvHl4xtECPBUIACVdDaIEhbIECmMj2bdDdZGa7Vp4SjY57WYy/+Poh/Fjh0IeIBUIAGSITFQ4ztMCmWIABJWza3BRThccMgAVCABkAI4aXCC0QWiC0wEi0QAggI3HWw2cOLRBaILTAAFggBJABMGJ4idACoQVCC4xEC4QAMhJnPXzm0AKhBUILDIAFQgAZACOGlwgtEFogtMBItEAIIAMw61LKWGdnZzydTpfT5aLRKNLpdGMymYzR76SUMpFIdJaVlaUDcXAhmGI1/IQWCC0QWmDIWiAEkD5MXQAYqVRq8sqVKyc1NzdPXLly5a6rV69uaG1t3T6TyZQ7/7+96wCL6ujaLL0XsYCEgIrGGmvQaBABxa4IWLEl0djALgKKYMOoQRQLRiV2MQR7RGzYFSOKjaJoAEUpKlU6y/5597vH/4ZQFzCSnX0eHmB3770z78yc97Q5U4ySqDKK6urqaZqamu8MDAweGhoa3tfX13+hq6v7Xl1d/Y6BgUGOQCDIl6AJ7BKGAEOAIfCvI8AIpIpDIBKJ5LKzs7VfvXplHBcX1+fu3buDHj9+3D0/P1+tsLBQfBclJSUZeXl5GaFQKFNSgqNcZWXk5ORkiouL//aerq5uTtu2bY+1adMmonXr1pcbN24cr6mpmc6skioOBvsaQ4Ah8EkgwAikCsOQlJRknJCQ0PXatWs2t2/fts/OzlYGWSgqKop/QBj4wQukIRAIxD94gUjoMwUFBfF7BQUFYlLBy8DA4MU333yzr3379tebN28eDmulCk1iX/mXEBCJcD6gjAo9Hq5LzjUpw/2dIyMjI8rKylLV1NTMZRbmvzRQ7LEfBQFGIBXALBKJlK9evTrowoULsyIjI80KCwsVQAKwKvCCtQEiINIAWRCJ4DeIA0SD7+CHiAW/RaL/hUBgveTm5sro6+tnmpmZBfTp02eniYlJFBM8H2X+V+khcFmmpKTo5eTkNExLS2uUkpLSAb8LCgoaKigopJWUlOjKysq+y83N1dXW1n6blZXVACSir68fM2zYMF82llWCmX2pHiLACKSMQYOW+eLFiy6BgYGz//jjjzF5eXmKIAKyIEAARAggAhAIXvibSAJkQtYHrgPZ4HNcx/8e/sb3cF12djYskvShQ4cu7969+/GmTZsm1MM59Z9pclZWlm5KSorRvXv37MLCwoYkJia2KSkpkZXjNAiMGyzQoqIi8e+8vDwZdXV18TjivbFjx3qNGzduKXNN/memBOtIKQQYgZQCRCQSNQgLC+uzc+fODRAeEAyQFyQoYFXgbxL8/BgH38IAqeAHFgZZKEQc+J+uR8YWBA/ug/fz8/PFP507d/7ju+++m96yZcsINms/LgJQIB4+fNj54cOHNoGBgXNlZGQ0MD6kQGAO0JyAQgALEsSB90EcUBZkZGRyfH192+vr68d/3NazpzEEPh4CjEB4WGdmZjY4dOjQyt9//32asrKyHAQ6LA8IeHJNQYiAKEAMECJlfSYUCpG5C0IogTCC1grhgvdIEFGMBNerqKiI30dshIgHgklOTi7zhx9+cLSysjoiEAj+1wj2qlME4K66fv36gEOHDq2Pi4troaOj8zerkW9toiE0jmSBgjzevn0rM2TIkK1OTk4LmfuqToeL3fxfRoARCDcAGRkZOvv27VsTEhIyDUIAgkFVVVVMFJRdBU2TXFfQNPEdFRWVIh0dnbQmTZo80dXVfa2hoZEAQuDu8S4/P18nOzu7YUpKiklqamrrjIwMXbjEyG2loaEhk5ODuKuMmEhwX448xIQiEomKRo0atXLo0KFbtLW12ZnWdbhgRCKRfGho6NgNGzb8jOHA2NBYYKzJJYm/Qfj4DcUASgWsRigIsCjfv39f5O3tbdqqVav7ddhcdmuGwL+OACMQGRkZWB6bN28+cPny5YFaWlpigUAuJhABBDkJDAh4hDv09PRed+jQIaRdu3bXGjdu/BgkoqqqmqWhoQE2EMBigDaL72ZnZ6thQyHIIzExsV10dLTZo0eP+r5+/doI92vYsKH4GeRTpxRgPAjvZ2VlyUydOtVj9OjRK5k/ve7WzP37961XrFhxVCAQqGEMoDiAIMjqoL8xFzA/yF1FSgYIJS0tTaZXr14h7u7uI5j1UXdjxe78aSAg9QQCy+PAgQMbjh07NhnuCmiQRBgQEOT3hiYKS6Fp06ZxVlZWh7766quj2L+hpaWVVt2hBGG9fv262Z9//tn75MmTTvHx8c1AXHBnwerhkxesHjk5uSwXF5dJCKxX91ns+1VDAGOyaNGim4mJiV80aNBAPNYU/wJB8GNemZmZYoUC73MuzZLCwsKSkpISeWVl5WJPT0/7Hj16nKjak9m3GAL1FwGpJhCk6W7ZssUnODh4OogDwhuCg6wNuJQgwN+/f4/Piuzt7VdbWFjs0dfXT6kN7RKbE58/f94pLCzMJigoaKacnFwDCtaTy6SoqChv1qxZU62trQ8x66NuFhriVIcPH14eGBjoTtlyIAz8TUoEFIiioiLRF198cbd79+7BQqHwnaamppj0yUIpLi7WlZOTe2tjY7OzNuZH3fSW3ZUhUHsISC2BQGgcOXJktr+//0YQBvzdEBb4G4IDpAFhjpTMrl27RtjY2Czu1q3bVYFAUFB78P/vTmjLs2fPOv/6669e169ft1RWVlZAVk9KSoqMjY2N78yZMxczgVTbqP///dLT040XLlx4CRtGYYUinkFxMLiyQB46OjrPJ02atNDExCRCRUUlU1tbW+yqLNUquC5rfX7UXc/ZnRkCNUNAagkkNja2s4uLy42CggIVSsGkTChYI5ROO2jQoL0DBgzY9DHSaRETCQ0N/e7w4cMLCwoKVM3NzX93cnKaJImbrGbTQrquDg0Ntd2yZUuQrKwsCODDRlFyW2lpaT1fvHjxyI8xB6QLedbb+o6AVBKISCTSWbZs2cE//vhjoK6u7od9GPBnQ9ukWMTXX3+9Z/To0R5NmzZ98bEGGjGZhw8fDj569OgUZ2fnSWwzYd0iDzfitm3btoSGhk6H1YG4BmXDcZUEMhcsWDCqW7du5+q2JezuDIH6h4BUEsixY8cm/Pzzz/u0tbU/CAwICwTPIUQQ9+jTp8/e77//flmDBg0+GnnQ9EH2VlZWlgorsFj3C4rLwAsKDw+3QCyD9vlQAUwzM7O98+bN+5bFn+p+LNgT6h8CUkcgcBO5uLiEZWRk6MFVBUHBT9tFymzv3r3PYBf4x7Q86t/U+W+0ODY2tsuOHTsOxsbGtoYLE6m7iIWBTIqLi4tnzJgxpW/fvnv/G71lvWAI1C4CUkcgJ0+enOvn5+eDoDn83ZygEOf7439lZeXk9evXd2fkUbsT7VO924MHDwZs3bp1f3p6ekMkTcAKxYsrUSP88ccfTVu2bHnvU20/axdD4N9EQKoIBO6KmTNnPsvLy9OhMuwAHxYIsq1KSkpEK1assOvateuxf3NQ2LM/HgL37t0b+PPPP4NAdPFUSp+GYlFSUlLg5eXVkxHIxxsP9qT6hYBUEciFCxcmbdq0aQ9cV1RFl8pRIF2zU6dOZ+fMmTPuv5T1hBThrKwsnbKmpaamZpZAIPjfwSS8F8VgqjKVkbYkyRkmaFdycrIRducnJyebJSYmNnj79q1hYWGhQE1NTdSoUaOXDRo0eGZgYPDYwMAAB25lCgSC/x26UsYLlXPxtrgIGVcKAL81NDTyBAIBjhIu81UFAvnaxMQkmkvZregYYlFmZqZqTcvNYG8SzhKJjY3t9vr167Zv377VKSgoQMUCgaKiYr6WllaKnp7e888+++wRdxBZmWPIYSHIzs5Gafl/vICLjIwMsCmzTxgfXAs8sd8Frl16lRWbw/czMjI+f/78+ReotpCWltby/fv3anAHwppv2rTps5YtW17W19dP/TfrumFuJycnN3nx4sUXKSkpbRMTE1sVFxerwQOhrKz8HhUl0FZDQ8PLxsbG2TIyMmkVYCSOVfLBxXqAd4PDttx5V5W1VR++IzUEgjpHzs7OYc+ePevKuao+HOrEZd4UOjs7D+ncufP5+jBwVW1jenq60cqVKw8nJCR8qaamlqegoCB6//69koaGxquZM2c6denS5QLuhe9FRUV98eLFi2/i4+O/+vPPP9sUFBRoQYBwVYRFwInqgxUUFChBS7e3t182atSoDVVpDzKeMjIyDBMSElpdunRp3J07d4YVFxerCIVCBXxGVYrpREcsXCUlJaGGhkaWqanpIUtLy18aN26cUJrgQR6+vr6/xsTEmAuFwjw5OTkB7ouNfzY2Nv7jx493EggE4ho0pV8RERGDtm/fDgtELGhLWSDY//EUzysuLhZASMrLy2PNiNcNimTif6FQWCIQCFJycnI6DRs2zG3AgAG/VnffDvB//Phxl/Pnz0+NjY39pri4WEkoFOKcADmhUIhnfzgqQF5eXqiiolKsoqKSbGFhsb9bt25HQXKln4m5vm7dusNZWVmGqIojEAhki4qKlNXU1PIHDBiwecyYMavKI9e4uDjjgICAHeHh4Zbq6uo5BQUFKAyqpqKikrZ06dJBsMpIOYmLi+t26dIlB4xnfn6+hoKCghzmCtUR4zbmCouLi4WGhoaRVlZW+01NTY9+LDIBKWdkZDSJiIgwP3/+vNPz589NRCKRKioHyKLiKXf0Ap3RIycnJ1RTUytSU1N7ijT+Fi1aXMbpoaWJ5O7du/39/Py2ZWdnfyYnJ5cPfPPz81VkZWULLC0tD8+YMeP7qqyL+vwdqSEQbBJzdHSMUlRUVIGfG4KQ/N2Y7J06dbrg6ek57N/UjupiIqHfq1evPpaUlNQJ96fsIgMDg5eurq7DjY2NIy5cuDD+0qVLcx88eNAVQhxprNA4qUowrqGDsah4IDDT1tZ+9eOPP5rp6enFVdZ2CMjbt2+b//777x5xcXHN8Rzsv+EvXip7T4KcKt1iTw5Sq+F27Nix4+lBgwZt7NGjR7hAIMjgNG0Vd3f34MePH/fB/2grnb1ibm7+y+zZs0EgZWqDHIEcSE9PF1tppQkE79ExxVRNmdrMP7IYn6Wnp8vMmTNn/tChQ7dXdR69fv368xs3bgw/ffr0kqSkpCbABAKXzhih2ByV+6eNjVSME+MA1+vAgQP3DhkyxNfIyAiHkYkDOXfv3h2wffv2Pbgv3LR0DAHGc+jQoWsnT568ojxcMG/WrFkTHB8f3wbzAM/jzjvJWblyZW8QSHx8fJc9e/asiomJGQgXMI0n7o9n0WZM9IVO5UQ/sEm3YcOG7wcOHLjU1NT0ePPmzevk3BtYG7GxsV/cunXL5uLFi7OSk5MbwppC26iaNv+IBfJG0GmhaCvmHshh1KhR683Nzf35pAd8N23adDwrK0uJlFKKqZqamv66YMGCMZWti/r+uVQQiEgkUjpy5Mis3377bT20OkwMWoBc4cIiR0fHsb179z5S3we0dPvT0tI+X7ly5Yn4+PhOJAiwoOEisrOzW5qfn6/p5+fnC9fRZ599JpORkSEWYGpqamIhjAVEwgyLhHbrYwFCk3RycvqhIm0b2t/9+/fNTp06Nff69euDQNz4ISKDkMEYkPZHpzXS/+gPnQKJZ0JQwQXZt2/fX2xtbZfDPYJnrFixIvjRo0cWEFS4P1XHHThwoP+UKVNmVGKBlEsgVKaEIyoxwfDrYhEeaOObN29k5s+fP3/AgAGVEgj2+4SHhw8OCgpakpiY2Br3pGoI+BskSEU16SgAEnY0xmSx4TcIH+Mwbty4tRYWFruxfwgZh25ubg8yMjK0qEQOV2mhZMSIEetHjRpVLoGA2Hbt2uUfERHRF2MFcoDg19bWznB2dh6dn58v2rhx45G3b99qUEIKkTfGCfijD3T4GmU8UokYqmxtYmLyfPTo0Yu+/vrrkxW5KKu7LvPy8j6/du2aeUBAgHdKSkojqjZBB7phvChtnz//SImgYxWoaCbqn2lra2ePHj16Y69evfyBb2Rk5IC1a9ceKy4uVsY9qEI37t2zZ8+9Tk5Ok6vb7vr2fWkhEBVPT8/fnz59aknuERIMmOgtWrR4tGzZsmE6Ojr/ucN/IAg2bNhwMioqqiMWMRUI5Mp1FGVlZSngPRAGWWRY+Pzy5JjUfEEJIa6goFDo6uo6rGvXrmfLm/RIWggODp598uTJpampqXIoUkgJC3heaeLgWyA8d4KYbNA2XIu2QZDhf3V19UxPT0+Ltm3bRi9fvjz47t27FkROEBgYayz2efPmzZbUAuEXtsTfFDsj4U7KCN7HOSCzZ8+eP3z48AoJBOSxf//+9SEhId+jjWTpof9k7aDP9HdpoUZkRm1B/TbgiTECNm3btr27dOlSW/jjFyxYcDMrK6spxp5vCdjY2Pzo4OCA6s5lWmaYN9u3b//l8ePHVpgfdDiasrKyUFVV9eWbN2+McnNzBU2aNBGTF52dg2egXWTtYB5RWXyQBvqKF94HKQEzJSWlwnnz5k3p06fP/poKULhCk5KSDNauXXs4MjLya8wXzAkifsKUDgWj9/mHwdGYY4wxz1DeBv2ChYl+9uvXb+/kyZPnJiUlNff19Q1++/ZtE5AmWV247uuvv943b968STXtz6d+vVQQSHR0dFekar5+/boNlSmhBYWJPHjw4N3Tpk1zrCjY+qkPZHntgyDw9fU9FRMT8yXFL0hQY3HQpKeFD1ywGPAZFj6dqEifY0FCG+vQocN9Nzc3q/ISDrgqx8tPnTrlRBYNWRu0WIkUSCDy+0Dkguei3STASHCTxqeqqpo5evToFdeuXZv8+vXr9srKygjmftDgBw8e7D958uSp5QVCIyIiBm/fvh0WiHZZLix+QUVyw4DIuLL+4nbhffxAkM+aNatCFxZK6MBv/vDhwx7Al9w85CKkKsBE4lQNmvAgYiUFCO/jHvgeyIMOQNPS0koYMGDAofDw8KEvX75sT4REmvXgwYMrIxAjHx+f4KioqLa4J5EI+kmHqKGCNLDGb7xAEESC5OajgqT4H3OLXHBoL1+BePfuncjd3X2ChYXFQUnXGmIy9+/f77tjx44tr169akXEQRjRGKEvVG2A8CTlAM+m9YF5StUJ0DeMF+6FMercuXPIl19+ee/o0aNzEISnIpz0rJ49ewY6OjqOlrQv9eU6qSCQGzdu2Pv7++9FlgyZ2aSNYbJMmDBh4fDhw73ry6BVp51wY6xfv/5kbGzsl9h5T4ucXBrkUiCti/4HLvRd0ijJlYLf48ePn29vb+9TVltgefj4+OwLCwsbjIXKP1eDLBkSKCSI+QuYYh94jw5rIiFJ38f/EIpclVyhtra2oKCgQBakhH5CmKIPlpaW/jNmzKjIAqmQQMiNxycN8qHzrRB8D4J1ypQpK0eNGrWmrBhIZGRk5y1btgTGx8eboIQOuVDIrULCi0sh/uAS4btT+ARCLiy8h3uQcoT2cYK6QElJST4vL08On+FFmvKQIUPWODg4lBtER4FJHx+fPZGRkeYQxJgLeAF3OsaZ/qdy96Qg0KFrGEcoaHREAZ2jwpWI+RCHAA74bkZGRom3t3d/SuyozjzHd+/cudPvxx9/PJmfn49EgQ+HfZHyQ20nvIAR37qjOUj7g1W/WAAAIABJREFUwygehv7BesacIpxx7ou6unqhoqKiIo0j7kXxn969e++fOXPmxOr2ob59XyoIBCcNnj17dkFRUZECabu0CDBJli5dOrBjx44hNR08xFqQSVrqPh8L4+KyfMggEG9v71PPnj3rACFCi4LaWNqnT5oqBAZnnYjU1NSK8/PzS4qLi0tUVFQEKioqrz08PKzKOu8b5LF3795Vp0+fngHBQcFfCgxTqXwsXjyDfP2KiorItnqrpKQkQMpqbm6uOsYrLy8PmTLidpM2zrcUKC5Q2hVBGnDfvn13TZ8+HTGQf6Qr4z6cBXIwPT1drEaXDqJ36NDhvLGx8e2SkhJkdjVQUlJ6W1hYqCsrK/uupKSkgby8fFp+fn4DFRWVd1lZWZ9179798FdfffWPTD7g4u7uHvL8+fOvSKMvLbAgWIE/aeYQeMiYUlRUzFJQUMA8EkFY5ebmNiwsLBQfk0wuSSIHSiAg3z13Prv4nuS+QR+HDRtWoQWCIPqmTZuCY2Ji2uDeUATonvifxgLvUaCf28GPw9beNGzYMJpLMhC9evWqzcuXLxuqqamJs7MooE/EQTXocD028np7e/eobg04zHNnZ+c7WVlZjTDPyYVJGJMlRHE89EFOTk6kq6ubLhAI5LjMPRz+pg7CpbmA67hAuvieNDbAndYIzT3+mjIzM9vv6OjICKSmQvVTuH7z5s2/3Lp161vSXmlyYOI3atQoZdGiRUNatGgRXpO2xsfHd3706FFvThsRcZMNbmhK+ZSISDCx+e1CTi1pTqSx4n9DQ8OoLl26oNz8385OhyBADCQ2NrYDJj0JSNLy+b5htJ3TDou6dOlyvXnz5sGampppWOBc9hWRY4a5ufmp0kIZLoSAgADPAwcOLMMiJr84lUcnzZQsB21t7cL27dtfadas2ZlmzZolKCoqIl0Ugkqd0+ZEMTExfR89etT99evXnXJycmTJLUECgsaSFAO+9QJcOAKZU0EMBBZIeQRSuG7duu7NmjW7j4yeyjKr0P+yXGW41tvb2+/GjRuTaA8SBClpuuQCI3dY48aNX5iamgYbGBg81dbWfoH9CQKBAIT6vqCgQB97QyIjI7s8e/ZsKBEfkRKwJSuDTkwENtUhEMQRUlJS4PrcgzkNbZ4ICiSEPiDuQSWA0I+8vDyRqanpxR49ehzU1dVNQttp3pI76eDBg/OfPn1qlZOTI4drKROSLBe0F23v378/MudmVTUVGuS8ZMmSGy9evGhN2X2YcxRfAib4n9xrOjo6ry0sLPbq6+sjRTulqKhIPN9kZWVzioqK9JOTk3WioqIGxcTE9MjJyUFa7oe+kuJJ2YjAlRFITSRnPbjW09PzwpMnT6woS4Kf6WNkZBS5aNGioVVJRS2vq9hjcubMmXH+/v7+aWlp8lgQ5EYgv7mkMJFA5AtK/r2oblOfPn0u/pWmPKp0TAIEAgvk+fPn7fn+dPKhkwaPhcEdxxoKP7ShoeElY2PjStNz+W2Bf3/u3LlhxcXFigg8kkZN/mY8kxMSxdbW1gE9e/Y8AEGjp6eXVN45GsiwevToUbv09PT2x44dmx0dHd0F94M/mjut8cMCJvcO36riCASZYmVumOMskEPp6emaZVggJV5eXt1qWsY9ODh47ubNm30giMk9RZYZafB4tqamZqKlpeUeCwuL4/r6+pEVCVC4mN69e6d7/fr1KUePHp0sEAiUKbOoUaNG4mw10uyrSyD4fnJycjNfX98z2BsEvMnNRm4oUl7g1tHS0sqws7NbYWFhcVRHR6fclFwI+qioqGF79uxZ8eLFC0Ok1EIAk2aPdQM3IEhk69atXZBiXtm6AWkfOHDAY+/evR5wC1JtOxLwlJKLdrZs2fJl3759N5qYmFzByaIVbRjGuklISOiGVN3Tp0+L93NgzqF9hAc/VkJzj+ZQ7969f5s1a9aoytpf3z+XSCuub52eN29eRHJycieaTBQYhaBp2rRp9Pz58ycYGRndlbRfmMRXr16duG3btm04x4PSTilILel9cR0RUHlEgsWHBWdmZrZzzpw58PXn858HQeDt7X3y2bNnYgLhZxLRPdFOCPahQ4fuHD58uFdZrqnK+oCg+caNG/ddu3ZtiL6+/of4BJ5J2jaXe/9+ypQpSzp37nyium6KqKioLlevXnUKDg6eDMFDmjG1je/TJuyqaIGURyDFXl5e3WtSygRCc/HixX+8ePGiBfzo5LbjbZakzKmIyZMnu7Rv3/5aZZYOfyywiTI2Nrb3jh071iYkJLREQJsyjPC7dLCd3E2VubA4Atn35MmTb8jao8A35gv68urVK2QoYWPh2A4dOlS53P39+/f7b9u27efU1FQjCs5TrAR9e/36tcyQIUP2LliwAK7Hv1nUpefhq1evOk+dOvUPVVXVD65OIiXMdeCN//v06bPPxsZmk4mJycPy3JllzXGM3507d4YGBQWtfPnypSH6DQzJuiM8SxMIc2FVJjHq0edz5879QCCcX/ZDgLJx48bJ8+bNG2JiYiIxgQAKbAbz9vY+IBQK1bEoSFgTaUkKFxYv/8WfqJTGiQViaWm5Y+zYsa6ltSqOQBADaVc6hkD3gkDAAvv222/nQpuUpHR5WFhYPw8Pj3OkBdK5GuQ3x//q6uoZ8+fPH1VWjKCq+ICoAgMDVxw5csSRsn/4FmU5LqzKYiDlEYjQy8urRsUUg4KClu/atWsZpYKifXA3Eam+e/dOxtra+vyECRN+kIS4CTfEAP5qa3BcXFxbuIa4eIJYeJZlgQwfPnztuHHjyt0HwhFISHR0dCvKFEPbKYiMOQMrZ8WKFSNMTU1PVHfOYBe3u7v7aVVVVTlS6Eij5zwFRVu3bm1VESaca3BbSEjIZJoLZHVhDcJawL369++/197e3rMm+N66dct2/fr1h4RCoRJZTHgGWRyMQKq6guvh95YsWXIP7hXKmsFCIM3ewMAgCgRSXXdNKaGudPPmTVR1PVRUVKRKC42yiGoCWWmtmh+7wH2hYcnLy4vs7Ox+HDZsmHfpulR8AuELAtLQ4cvu3LnzPRcXF9uK3A8V9QFuJhwJ++zZsx70DHyfYidIe0R5h1WrVg3u2LHjxZrggWtBIocPH95w6tSpyXAnkJZN96U4TzViIOW6sP7ajW0qqXIB7dXR0RGB3ea0/4G/yxkk0rx58/tOTk7fGxkZ/aNURnVxQsr2woULw+DHR98pNbgGBLI/JiamFyld+M3tRpdJTEyUsbOz2+7o6DivqrGKUmtG7vDhwx6HDh1yx33hHsKaBDGh3SCn+fPnT7KwsPitPCsEO+Fnzpx5R1tbWxa4UlYarW3cy9zcfO/UqVPn10Z9u/DwcOvVq1efUFRUVCYiJbc4I5DqztZ69H1vb+9Dt27dGosmk/ZAi0pPTy8ZNbBq4sLCvS5fvjxhy5Ytu3JychSxAPAizaomUFEWDZ848Df9j/5goYwZM8bL2trauzwLJDY2th3uRVoeBAxXBkNmwYIFtubm5sc5baqigoFldoWLfdxFBhXdH+4lkBO5P2xtbWc7ODjslETYlPVQkMjq1avPIquJ74smjRD9gyDp168fsrAqioGgFlZAeTGQmhDIlStXJm3evHm3oqKiAC4a/t4DYK+pqZmxbNkyq5q4yEpjg1TWNWvWnKN00vJcWFWxQDZv3hwSExPTihQh3Avt5tK5hZs2bfqqKnGK8uY/CM/Nze1eUlKSLlKvcX/MZcrY69Wr14GFCxdi7P7hxoLScvz48enbt28XH82AF19hw9xr2bLl3cWLF9tV11Va0XrFmK5atWpPw4YNP5TXKSuIzmIgNZF6n9i1u3bt2oFdvyicRlkUmKxYZJqamqkLFy6c1K5dO4nTeDGZb9y4Yb1jxw6/7OxsTTU1tRykfXIBxw/F97giseKifFSQrxRU4lRN7j2k9CDjigrMqpSUlKhSDIM0HpACNvZ9//33C21tbbeVXmxkgTx9+lTswiKBQtpeq1at7rm7u9fE+pANCAjwOHjw4DIISHIhUPsgcBo1avR0/fr1/Wr7dEdOIwzBWealSaQUgVSUhVURgYjWrFnzlSQWCNwrPj4+P1+9enUC4U6xCYwvNOzx48evGDt2rGd13T8VLS9YPTt37txw9erVSXBlSerCSklJab558+b9jx8/7kntp5I2aHurVq0eLl++3FKSSszUfqybzZs3+16+fHkq5gu5hEi5admy5YP169d/XRaBwGW3cePG41FRUZ0oFkbxQK6Qo9DDw2Nk9+7da/VoBiguvr6+gWFhYX1BepRZWEYQ/cCsWbMmfGKisNabIxVB9OPHjy88cuTISmwwIjcWz90hmjNnzqhevXoF1QRdqvhJu3T596JU3qrcX5wHypuN+FtZWVkUFBTk+ttvv01Hhg3lolMGDwSTi4sLFsuR0sIIBLJ+/fpT8fHx7UjIkiYJgWBtbX1g0qRJcyUVBNj74ujoeD0pKakbpUliAdPOXJSqWL9+/Yhu3bqJLZzafEFYbtq0KeD27dvW8IFDe0UbKNMJz7K0tKxsHwgIBC6sf+wDAfZeXl4SEQiyeP4qs3IFWjayjWgzG9oEa8TQ0DDB3d29T0388uVhiWQDd3f3cCgxfPKiNGH8HjFixNoxY8ZUGAPZuHHj2ZiYmJawqCkWh7Zz5LdzxIgRrpLOG85ikDt9+rTT1q1bfRAjogKHRCD6+vqJHh4eZmVhlJCQ0HXWrFnhVG+LPAuwBtA+U1PTc3Pnzp1WF+WJLl26NHnr1q27KdOLpfHW5qr+BO91584du127dm179+5dY35VWRr4cePGedna2i75BJtOprnyli1bfC9cuDAVWj4WGl4QDiAsbPRbtWrV12XtZSECiYuLa0eb+PiuiKFDh64eOXLkBkl9xBCQrq6u0WlpaeLsMyqaB2whbJo0afJ28eLFXVu0aFEnZ8ufPXt2kr+//x5K36T4B/DBAq9CFlZFBCKDNF5JLJCHDx8O/PHHH3/Ly8tTo534aBPah/Hr16/f9pkzZ86sTeuD5i9X3j7g5s2b/VBvigiVYn9VIRBYID4+Pvujo6PFFgjtWQERgqgnTZq0YOTIkX6VZUlVtqauXLliu27duiNUSJKICuPZuHHjJFdX16Gl3cuw4G/fvm27bNmyIAqek0eBLPRx48bNs7e331QX+JZOjWcEUtko1/PPMeA//fTT7wkJCWIhSho81Q/65ptvDs6YMWNOTbSpuoQoMTFR19PT80lycrIumesQjtDy4ett1qzZyzVr1nTW0ND4x+E3fAIh7Zz2YwCHkSNHrh47duxqSQVBWFiYtbe392mcrUAEhcWPv0EgVlZWe2fPnj29tmIfpXHG2C5btux+SkqKFt9lQ3sK+vfvv3PatGnTKtgHUicEEhwc/N2OHTv8SfjSfhu0H7jPmTPnOzMzs911NW9CQkK+9fHx+QXWD815skAg8Kpigfj6+opjILTRj64HiYwZM6ZG84b6DTekh4fHWSp3QvE9YKStrZ3s4uKCTb73+OMH92BgYODSX375xY2fiUcbVLW0tLJcXV0t27RpU6PMyvLGBgS2bdu2Xy5evDiZkkbYPpC6msmfwH3hBdq4ceOusLAwB6rFRBoVspj09PQSlyxZYlPTQHpddfXRo0f9Fi1adA7WB5UjIXcNMpzghvruu+/KdENxBHLyzz//bE+b10gTxSK1t7eXWBDAfRUSEjJz586dPykqKuLwI7HWT3n4wPb777+fa2Nj83NdEQjOGVm1apV/XFycFZXqQD/JOuOC6OXGQLgTCRFEL8uFJbEFsmfPHq8TJ0640t4Jij1xvv48FxeX3h06dKhR9YOK5hssIJyRwq//RAkNaIuNjU2FLixYIJs2bcI+kF7UB5o3sKBsbGyQGrugpkpXREREv8WLF5+jwpIkiDGPNDQ0cpYuXWpe2gKEhbV7926vS5cu/UAEzbnExK5CIyOj+56eniPqwn1FmAcFBS0KDAxcx1cM6DPgxPaB1JU0/JfuGxoaart169YgZApRmh9ttMKCmDhx4nxbW9syiwP+S03+4L7auXOn96lTp2bSGR1kQZG/19XVdTKyPsoq18EnEH4aL2FgY2Oz2sHBQSILBARy7ty5MX5+fv7iYkJc9VLKEMMeBxcXl0mWlpb76gpDrnDjr5GRkX35C5g0fSsrqwpjIByBIAbyj2q8NYmBbNmyZc/ly5cnlU67Bu66urpv5syZM7EmiRuV4fn8+fNuS5cuDSsoKMDQiL/OjxNURiC0DyQqKqoVVVWg69GHAQMG+I8ZM2ZxbRDIwoULzyEgjedQmjMEs5qaWoq7u/vg0hYICGTjxo2BDx8+tOQTM1nW7dq1uzBz5sypdRFfItyvXLky6ueffw4oKiqSJRcWf6wZgVQ2Q+vZ53B1zJ49+568vLwO5YxTfSBkMeEoW2dn5zGSxgLqCg5kmzg5OT3CUcuk7VBePlc3SrR169Zm5aUqcu67U3FxcWILhCY57aC1sbFZxRHI33awV6U/IJCLFy+O2bp1qz8S3EhIkRsCuHp4ePTv0aNHlXcpV+W5/O8gK2b79u1Bd+7cEQsTqpQLpQCxBwsLCxBIZRZIrRIIXBx+fn6Hzp8/P4a/eZOSHpo2bfrG0dFxUOvWrevMAomPj2/m5ub2JD8/X4HKj5ArCuNTGYFwFsje6Ojob4ApKVuU1WVtbV1rBOLs7HwOriiqsExzVENDI9fNza13aQLhkicC79y5Y0WuL7JcsLY7dep0cdKkSYtqkmJc2Tz8448/Rnt7e+/Hccy0/4RPIN98880+Jycndh5IZUDWl8+xqNeuXXvmxo0b/flZJVgQMHvV1NSEP/zwwyhzc/Ojn0qf4Ho7cuSI6/bt25ch+4qIjyYsBHTPnj3PLV261Ka8GAafQGhPCQkyzpVRYwLx8/P7RU5OTuzContTDAKH6tSlBQIC8fPz23T79m1xuiy/sivawGVhlbsPhLNAUEzxH0fa1sQCOXDggNdvv/3mSnuCgA3w5hILUv+qHAvNus4IBBaIi4tLWElJidgCwbiQC6uqMZDNmzefiY6O/oIST/hBeAsLC5w1X2MLBPtW3N3dxS4sSoCgoL+GhkbK0qVLhzRv3vwuPwYCAtmzZ8+mkJCQ8biOKjJQiZH27dtfcHR0rFML5NKlS1O2bdu2gyugKRYZ/P1ZZmZm7DyQT0WQ1lY7OH/rWV1dXaTK/u2cZqT+ffnllxGzZ8+2rUvTtzp9wXG0U6ZMeVxcXKwBwUgaJAlqxBhcXV1tzczMys115wjkZFxcXAd+MUXSKGtqgeDMD29v718RRCd/O+XGo4DdtGnT5g4bNqzOYiDIAvvll1/8w8PD+1LqMBEl2lFZFlYlBIJiihLtRD927NiCPXv2IDb0QXgDf8wzTU3NfE9PT7O6JBCKgVBdNkpfJ8tz+PDhFZZz5/aB7Hn48KEZHYXMTwPu06fPrvHjx7vU1IUFAlm2bNk5ZIvxNXhOqcv18PDoXToGAgI5ceLE/MOHDy8hCwQkRzXdsH8ESlVdxkCOHTvmHBAQsJZfb4xPIMwCqY6kqyffhbbq4uJy8+XLl62RncKv3Mm5g2Rmzpw52drael9dpP9VByZYHz4+PlvOnDnzPfzDRB6YsAiko3LuZ5999mz9+vXdK6sqigOl4uPjO5BgRTtIyI8YMUJiCwT3iY2N7eLp6XmjoKBAmdqG3/iBtm1tbY3jP2ullERZ+CGIPmvWrAcFBQVatA+FhCRXI6wqMZDyLBCJCeTq1av2fn5+AYWFheLsNLSJ7wqaNm3atxYWFnuqMyeq+l1Uhw4NDR3v7e29G4IZL3LXEjaVFVPk0nhPP3nypDUpHhCQVESwNgnEzc1NHAOhWALtRNfW1k5xdXWFpRbFt7CRhXXixInpu3bt2kDH5dK1aJ+6unq2m5tbn7Zt296rKmbV+R7notx5+fJlcZXestJ4GYFUB9F69N2QkJAJvr6+++gccOyjoOAyXEJ6enrv5syZMxYxkX+zW0eOHHHatWuXLzZYUXkHag/8+2i3s7PzREtLy4CKqovCAqlLAoE2uGjRojupqaniek+0iZCy3XDGgo+PT7vaLCfBH5fQ0FA7Pz+/IL72yveHw1c/bdq0ck8krCsLBC6kNWvWnExLS9MH4cNapCNd8ffgwYP9pk+fjjMvql06prJ5CQG7fPnyY+Hh4f2hoUtKIJs2bdodHR3duywCsbCw2Ong4FCjjYRoF7wCiIFgnpNlTQSipaUljoGUtQ+HK8YYAssDJMnVWxOvZeALy3fQoEF1YvkiiL969epLjx496kCWU+k0XkYglc3Sevo5BN6MGTMelJSUfEan75Fvl06Da9CgQay3t3c/SYsL1hQa1JaaN2/eTRRtg1aNRYIFAgEE4ktPT0cZ+th169b1qCzozxEIdqK3rwsLRCQS6axbt84HpTPoDHVKowXxod2urq6TzM3Naz0TSyQSKaxcufL3iIgIazqJj1w1WNDc4UQV1sKqKwKBkPHy8roYFRXVkWJudL48rIAGDRokrFq1qk52oiPx4rvvvovR1NT83zm2ElggXBZWcHR0dJkWSG0SCNJ4YYEQgVA2lba2dqqbm9ug0kF0fA/zes6cOZEoXkrzmjKy4Cbs1KnTGWdnZwdtbe30mq7H0tdjj83Bgwd/zs3NFScolLORkMVAahv4T+V+Z86cGe/r67sfmR/8IneYCNC2kpOTkb0TMmvWrGm1Xb+pMgwQ9/jhhx9uCoVCA9JYSbumsySweXDp0qUVxj7oOVW0QLwk3UiI56CQ5KpVq/Yh0E/7QIAjsIUgh6tt5cqVfWubkKGFrl27NoRO4KMgLLn7YAVVcR9IrbuwgMu+fftWBQQELKHNfLR3B+0ENvb29ismTJhQ67WwDh06tB4bGWnPkCQEwmVh1bkFcu/evb4uLi7nyyGQPDc3N8SK/raRkCMawcqVK4Pv3LkzgPqJcac5B0ViwYIFE3r37n2gsjVXnc+hGPj4+Px6+/Ztq4pqYTELpDqo1rPvwgrZsGHD3lu3bg1BVU2uuqjYT4y/seCTkpJkBg4cuGfIkCGba7NaakVQQXNcvHhxcGZmZlvyl9OZzHQcbWpqKkpUB7u7u9tXRehXwQKReB8I9YXOo87NzW1EewYg1OnIUhDfmDFjPCdOnPhjeScPVncK4ZkbNmwIiomJ6UbndZMGSlk8GM8a7gOROAaC/iA+5OrqelNOTk6JzuegIpbcmTEZS5YssapNX31UVFQ/JyenMzo6OnKER1kEYmNjs2bs2LGryjvql04kRBZWXcZAQCCLFy8WEwhp8lWxQNCna9eujfD09Dyqp6cntjb5NdBAJCjiuWHDBljpEp1xU3pOIvaB0yV37969gZ9SX44FstfR0XFyded1ffu+VBRTLGtQIIDmzZt37/379w0ggPjlGvB9TEZshOvSpct9GxsbFxRnqwt/NadNqdy6dWvAjh07fk5LS2tELiC0AVorNCw6HOfzzz+PR4lqY2PjKgUIPwaBYD/I4cOHXbZu3eqJxUwWE21gw2LLyclBddSBNTlMisYRCkBAQID3yZMnxeeB0AY0yoLhVyzmCETSfSA1IhDEIlauXHnyxo0bfeErRzvplEpKMmjRosVdDw8Pu9qwzjCnV61adS4xMbEV3GaU7i0JgXxMC6QCAslzdXX9pjwFDkkxc+bMiU5NTW2CGApIgz8XMjIysN/lFwcHh4W14crCSYpeXl4n8/PzxUc2UOUDRiD1jfZqqb1nz5512LBhwx5FRUV5LHDafAZhjQUOrQiWSKtWreKHDRvmaWpqerk2Fjo1HxpNRkbG56dPn/7u119/XSwvL6/Er50EDRqTE5MVKbFFRUUlII/evXtXubItRyC/oxpvOTGQGlsg6M+rV68MFy5c+Bjl7KmsO7lsyMJTVVVNdXJyGt+9e3cc21rtjYt4DoTGr7/+uuLkyZOOwIUKFfJ3A/NLmFd2JnolO9FLVq9e/VVNLFCcZPfTTz8F0kZLxNngOkUcCzhhrrVo0eLOX9jZN23aVOKCk7B2du7c6Xf37l1T3J+UENrZXToLqyoWCPaB4Ez0j2GBUBCdyuDAYtPS0kpdsmQJYiB/y8LiL/+jR4/O3r59+yYcNcs/VArfwXzHsbsTJkzYbG9vj1MhMyQRHVinz54964yaXUVFRQ0xZlRhma+00L3xHtsHIgnS9ewapMoGBAQ47927dzkmBJn8mMRYNHQ62ps3b8SZHm3btj2Lc5UNDQ1jmjRpEl8TiyQuLs44Pj6+z+XLl8fev3+/H7IB6XxofkYHf7f8hAkTPMaOHbuyOs+FVvrTTz+dLo9AbG1tvcaNG4d7SiTQeWSodPDgwcW7d+9ejjPRQXgQkHRyG7RBLCxVVdV8e3t7l549ex6vbmYWhOSVK1d+OHLkyDSUdSELh4ifCJe/56Fv375VycIqrxZWjQkEKbXLly8/efv27YFU+I9SqEn4QHPu3LlzyODBgzd069btelVck4Q7dyZ6t507d+5ISEj4HG5D4ELxAFIaJCEQlGOJjIys0yys0jEQGjuOQPKWLFlSrgVCCsWiRYvEqfkgETohkKrzov9IeR8wYMDuoUOHbjYxMYmpLr5hYWFD9+3bt/Ht27daSBSBbMBz8CqPQFgMpJ6RgaTNpf0W58+f/540WtKC+HnvmDDw5Tdp0iQXG8BMTU33mpiYPFRTU3tXFTIRiURyycnJhrm5uQ3//PPPL2/duuWAWj7ku6VzDSgIjTZASEK44Kd///5bJkyYsKy6pjhHIOKzsvnWDe0HGDFiRK0QCPB/9+6d4YoVKwKioqJ6kUZI9ZPoeFv0RUFBQWRubr6/V69eh/T19WP09fVTyiMwuIGSk5ObREZGmgcEBHimpKQYQyhQ2XiqMEz7LEBcVFYe4wUCmTFjBqoBF5c1R6iYYlpamriYIvnROfePcPXq1TU6Ex33xF6V6dPp7n3zAAAR/klEQVSnR+Tn5+tQvIZfGgQYwV1qYGCQaWdn59mmTZurmFcVESyIIz093fjatWs2J0+edMF+E37NKnJb4Tf/kC/8jTlnZ2e3ZsyYMRXGQLy9vc88f/78gwWCe9E+EJSIcXBwqPFGQhCIs7PzeVggtGOe1l2DBg1SFy9ePKiycvp37twZ7uzsfLRhw4aytHb5AXWsLaToN27cON3BwWF+s2bNHjZq1CiuvLUEiwPzLDU1tfW1a9fsLl68+D2yCREvpRMZcU9KVcdY0iZWIuqePXuyUiaSCuX6dh3cIvv3718PEiFzHYsRwg6TGsKK9mIgA4oE1GefffYEZ1obGhpGaGlpxaurq+ei78XFxTgECseYIscfJwuqpaWlGSM9NyYmxur169eNcD/auU3BZvyPCUpFEyFUUE7D3t5+q52d3U+SuM/IAsF5IPy6THVBIOj7n3/+2XH69OnX1dXV1dEvPIeOzqV0VmDIFcsr6Nix49XmzZuHGBsbv1BVVc0hlwvuJRQK1eLj4ztfu3ZtaGJiYgdyHZDmR4sV72OcMGa0hwCLG88eNGiQ/9SpU53K0zpBINyRtmUSiJeXV/fKBFhV5jsy1Xx8fHarqKjIgdioLD/tWyDi4kqdvOrWrVuoiYlJqK6ubjIOhsIz0Dc5OTnR27dv9R8/fmwVHR1tlZKSosdtnvvgwiEMSFMmEieCBMZ2dnY/ctaseM6WfiGIvnHjxt1Pnjwxp31SfAKxtLSslX0gRCB0pC0Fp9EnHR2dCmMgPOtXEBAQ4O7v77+8cePG4nFHKm+TJk3Eaxj9xX25Y35L1NXVk7t3736pRYsWF4GvUCj8EAsuKSlRe/PmjREO5YqNjbWE8oL1j3sSjpjHZPXifX5tPcxJzMNevXoxAqnKwvivfAckcvz4cSdouQoKCgI6Z5kmCCYgFiQmDwQWJhBpSpxZK0SJCkVFxVwcPSsnJ5eTn5+vJi8vX5KWlqaWmZkpS1oyBeDI5cJ3wUCDxmICeairqxfY29uv6dGjh6+RkZFE+excKZPTsEBIEFAZF64mUq1ZIDQXrly5Mm716tW75eTkFEEipK3R4sJzgSH+p/eUlJSKFRUVs1AtGQu1oKBAlJOTo4FcezrulAiDH+8gdxAWLe5JWjiNl6WlJQhkalXPA+FbICUlJcLaIhAkGhw4cMB13759Hk2bNhXvjyGhhvmDvqH9fDeqvLy8SE1NrUBVVfWlqqpqg8LCwrTMzEyDrKwslaKiInE5HowplfOgc1g4/MRCj/bH0NjQnidbW9tKCcTX17fcfSC1tROdn4XFxx5rQkdHR7wPpCoEjmrKu3fv/gmVG5BOjnvB6gA2uBel+mJ94TO4rDMyMkoMDAzeKSgoZMnJyYnxff/+fdPc3FzlgoICAfCE6xpkhjGC0gf8cD9Ykrg/FAGqaEFWH8akZ8+ebB/If4UcqtoPTMIrV644+Pv7r4UmQq4SEkbQZjARabc1CS8sVCx+KuZHhevITwrhgIVM7gN+8Te+tkgaIjRUFRWVjGnTpk2ysLBA9pfE8QkuiC4mEL4FQlpTbbqweBqh4m+//fYDMqWEQqEinstP76XYBZ0zQTEfvj8Z7QN+VIeJfONY/LTfgwRlSUlJCc67p30z5FIAjgMHDqwwBhIREfG3M9H59Z5EIlGNsrBKzzsoKYGBgSuCgoIcEQ+hvqCvpOFS2RMiS/wmawrfp9pW5LoDFrgehAQhh/fRb+67RYqKigqYt/Si/o0YMaIqBLKn9E50IqnaJBDaB0LjykvjLXBzc+tVFQJB/5DIERQU5BkUFPQdSJrmE+FH8SB+jJFiJpQ5SBYQzVnyPJDViPHAd7i0bKFAIJCjo3hLEQizQKoqeP9L38Pu5vDwcPjbveLj478iLY+sBxAF+d+x2PkCjRYACTDy6ZKwJu2Pc0V8sGLIRQbXDj7r3Lnz2YkTJ7qamJhE14Q8MC4cgZyJi4trXY4FssbBwQFB9LzaHMe/jhNXvHjx4sgtW7b45eXlaUDjw/Ox8EAmeJE/Ge/zCyASWRDBYBFTZhe0PsIPVlr79u0jRo4cuery5cszb968aQUsQdZUOgSCbvr06TPKi4GAQFCzKiMjQ5PvGuOsnJI1a9ZIVEyxPCxBImfOnJmzf/9+d4RcSOjj+3wixRwCVhS3ImFIe5XwP3AgbZjSg/E/3DddunQ5Z2lpeTgwMHBtenp6IxKQlNpbWS0s2gdSOguLCKS2qvGSBVJOKZN3bm5u/SvKwiqNM0jk+PHjnseOHfsO1gf6CysC2JLbGHONat8RYdM6JzcV+kmWBTDH/EXmHGUU9u3bd5uJicmfQUFBzrm5uY3JqieL2szMjBFIbQqU+nQvSq89cuTId6GhoY45OTkNOJ+9eCJSmihZDyR4+FoMvUd7Enja+YfsIQgITHAsevw0b948zt7e3gNB1OpmKJWHLwK4q1evBoG04afxUgxk+PDhIJAVNSWqsp4PEomNjW27e/funx88eGAK3CAoSKsGXiAG4IAfstz4+0dwX7QbQhHEA4GbkJAgJomuXbveRfqrtrZ2wvLly88+fvy4H/DE9eT35vaBoBZWmQTJWSCHMjIyPsRAeAHuWrVACCNYutHR0X1QDhzCnawK/n4CyqQiNxfNOVJY+BYFuUCRbYR72NnZ7bazs5uXlZXVfN26dWdSUlKa4H40P/F7yJAhFVbj5QhkH84DKW25YjxqK4hOJxJiXtBaIUVDU1OzaNmyZT2quueJMAFJh4aGTkC1XLij0Hcqs0NJAFQlma/cEQnQPCQFhtzYsPIUFRWLxo8fv9ra2nrT27dvm/1VYeF6fn6+Kn/tY4x69eq118nJiW0krE+Cv7bbCr81zlE/d+7cVJQtf/nypSEVT6PNfWSNkGlLgXFyS0DQkdbIF27k3oIm1Lx584SBAwdubNas2ZW2bdsi572gtvrCBdFDyAKh+/KC6CCQ5bX5zNJtR/LA48ePex87dszj3bt3OsABvmP8pmKWJOD4mwBxH3LtAFdYaMC1adOmGTY2Nss7dOhw3NjYOEFGRkZl2bJlwQ8fPjSnbDYiEOwDmTFjRrnngdy5c2fQjh07Plgg5OLhrEnR2rVrv6qqC6W6YxYfH98lKCho9q1bt8ZnZmbKwXdPbhDgASuK5hPFRvj4UMYRiAP9btasWcLIkSPnmpmZhUAhePbsWdd169YFJycnNyZcyLqrzAKB5bpx48ZzT58+bclXPMgqwjkr48aNW1xZLbbKMEE5d6rGWwaBpC1ZsqSfpPtwcO/r16+Pu379+sT379/LYs7BdQhcKVmDLDJqJ81DWrPADaWNoOh07Ngx3N7eHp6BCJSxx8bCdevWnSgoKFAiq5hcYD179sRO9G+rk3JfGVaf4udSuxO9OoOBVN8XL160e/jw4TcXL16cEB8f36mwsFCODgsibZFIhMxgslagyZAmCW0Rk1dHRyffyMjocv/+/Q81btw4sk2bNiAOiWMd5fUHBOLl5XUzLi6uaVkbCceOHVvrQfRyrBHl27dvmz1//rzXhQsXZiQkJDTGgubXayIXDl9YkoYIC6RRo0Ypo0eP9mrduvV1zr0ntiqQ0urr63v8xo0b4tPzSAgDdwsLiwBHR8fvy7NAbt68OXL79u2HMzIyxEeTkhuSfvv4+HSrKwJBO7GrPjU11ejixYtTQkNDHXJycrSobA1tksT3aC7x/foUHNbW1o61s7Pb0qVLl5N6enoJJLTu3r07YNOmTSdSUlLEyQwULwG+tra2ayZMmFBhGu9PP/10/smTJy0oRRXtwHjgfysrq0MTJ050qimBYKOlm5vbESSOUFIFzwJBIc7+HTp0kPhES+D74MGD3vfv3x9x5cqV0bm5uWJhD0Ig8iDLj5JaaOxBllDwOnToEDZo0CDge4bfX8ydbdu2HXr//r08WYjACPPOzMwsYO7cueOqI2fq43cZgVRz1GAev3nzpll0dLR5QkJCt7t37w55//69en5+viwmJi1+Wgw0sRQUFIp1dXVTvvjii8vt27c/Z2xs/EhdXT29rg+vAoEcP3585f379/soKSllqaqqCpBdJBQKC/Py8hqg1tegQYP86oK8ynNrJSUl6WNnb3R09MB79+71y8zMNMrNzRULcPJJ42/sF1FUVMzs1q3byZ49ex5DurS+vn5yaWtJJBKp7ty50/f+/fsDVFVVs4RCYYmSkpKwsLBQ9quvvjo5ZsyYpeVpgticGBgY6JOamtpYWVlZlJ+fjyywEhSwlZWVzXd0dJxWXRdKNaeU+OukpMTGxraPjIy0ioyMHPbq1SstOg2Q4m2c27PQ2Nj4tYmJyWlsyMSJfVpaWnkYQ+6EPHGJeFg4+/bt805KSkJF3beysrLoW3Fubq5Ov379No4YMWJ7ecSKI3GDg4PX3rt3z0xTUzMdR94jqaCwsBBzR8PU1HS/jY3NxpoSSHh4uPXWrVsPaGlpvZaVlZVHUBqCHftyjIyMnkycOHF+bRxNyxG18aNHj8wfPXo0OC4urkdGRoYaZX6RCwoEqaKiImzZsmVk69atT7Ru3fqqiYlJuLa2NvD9m2fgwYMHA44fP+6empr6RUlJSaqmpqagoKBAiNgWDnmztbUtd95JMkc+xWsYgUg4Kljw2dnZarm5uZo5OTkNMzMzP09NTdVMTEzsmZWVpQ4i0dTUjDMwMHiqrq6epKWl9U5bW/sdBJyGhkbOxxLYpOXiNwKBmZmZ2JciHnf8zszMzDU0NKzVAHpVIcWiRhtSU1ONX716ZZSdna0hFApbKCsrP9fU1MxGbAOYqampZWtoaKAgHhZnmS9YIfwPsH8G99bQ0MDCL3OvAwnurKws8aEZuIbuQRjVVEBWFQv6HuYV2pOWloZ59UVqairm2OeFhYUCNTW1tIYNG2ZraWklKCsrx2M8KzsREBsxs7OzVREDyMrK+tA/TU1N4FLhuBOmwIWwgQsoKytLoKmpmVsbcxjDlJ2d3YDw548BMusq61918cX30S/C9927d0ixN+J2vqdpa2sncev0rZ6eHja4VoZRQ14bxDhx8w74/CvrShJMJL2GEYikyLHrGAIMAYaAlCPACETKJwDrPkOAIcAQkBQBRiCSIseuYwgwBBgCUo4AIxApnwCs+wwBhgBDQFIEGIFIihy7jiHAEGAISDkCjECkfAKw7jMEGAIMAUkRYAQiKXLsOoYAQ4AhIOUIMAKR8gnAus8QYAgwBCRFgBGIpMix6xgCDAGGgJQjwAhEyicA6z5DgCHAEJAUAUYgkiLHrmMIMAQYAlKOACMQKZ8ArPsMAYYAQ0BSBBiBSIocu44hwBBgCEg5AoxApHwCsO4zBBgCDAFJEWAEIily7DqGAEOAISDlCDACkfIJwLrPEGAIMAQkRYARiKTIsesYAgwBhoCUI8AIRMonAOs+Q4AhwBCQFAFGIJIix65jCDAEGAJSjgAjECmfAKz7DAGGAENAUgQYgUiKHLuOIcAQYAhIOQKMQKR8ArDuMwQYAgwBSRFgBCIpcuw6hgBDgCEg5QgwApHyCcC6zxBgCDAEJEWAEYikyLHrGAIMAYaAlCPACETKJwDrPkOAIcAQkBQBRiCSIseuYwgwBBgCUo4AIxApnwCs+wwBhgBDQFIEGIFIihy7jiHAEGAISDkCjECkfAKw7jMEGAIMAUkRYAQiKXLsOoYAQ4AhIOUIMAKR8gnAus8QYAgwBCRFgBGIpMix6xgCDAGGgJQjwAhEyicA6z5DgCHAEJAUAUYgkiLHrmMIMAQYAlKOACMQKZ8ArPsMAYYAQ0BSBBiBSIocu44hwBBgCEg5AoxApHwCsO4zBBgCDAFJEWAEIily7DqGAEOAISDlCDACkfIJwLrPEGAIMAQkRYARiKTIsesYAgwBhoCUI8AIRMonAOs+Q4AhwBCQFAFGIJIix65jCDAEGAJSjgAjECmfAKz7DAGGAENAUgQYgUiKHLuOIcAQYAhIOQKMQKR8ArDuMwQYAgwBSRFgBCIpcuw6hgBDgCEg5QgwApHyCcC6zxBgCDAEJEWAEYikyLHrGAIMAYaAlCPACETKJwDrPkOAIcAQkBQBRiCSIseuYwgwBBgCUo4AIxApnwCs+wwBhgBDQFIEGIFIihy7jiHAEGAISDkCjECkfAKw7jMEGAIMAUkR+D+roHFOSGAXvwAAAABJRU5ErkJggg==;imageBackground=#006666;imageBorder=default;dashed=1;fillOpacity=100;" vertex="1" parent="1">
                    <mxGeometry x="560" y="30" width="110" height="110" as="geometry"/>
                </mxCell>
                <mxCell id="59" value="Grafana&lt;br&gt;Dashboard" style="text;html=1;align=center;verticalAlign=middle;resizable=0;points=[];autosize=1;strokeColor=none;fillColor=none;fontSize=12;fontColor=#FFFFFF;" vertex="1" parent="1">
                    <mxGeometry x="580" y="140" width="80" height="40" as="geometry"/>
                </mxCell>
                <mxCell id="62" value="&lt;font style=&quot;font-size: 16px;&quot;&gt;&lt;b&gt;Fleetman &lt;br style=&quot;&quot;&gt;Workload&lt;/b&gt;&lt;/font&gt;" style="text;html=1;align=center;verticalAlign=middle;resizable=0;points=[];autosize=1;strokeColor=none;fillColor=none;fontSize=12;fontColor=#FFFFFF;" vertex="1" parent="1">
                    <mxGeometry x="265" y="245" width="100" height="50" as="geometry"/>
                </mxCell>
                <mxCell id="63" value="&lt;span style=&quot;font-size: 12px; text-align: left;&quot;&gt;ISTIO SERVICE MESH WITH SPIRE&lt;/span&gt;" style="text;html=1;align=center;verticalAlign=middle;resizable=0;points=[];autosize=1;strokeColor=none;fillColor=none;fontSize=16;fontColor=#FFFFFF;" vertex="1" parent="1">
                    <mxGeometry x="-26" y="194" width="220" height="30" as="geometry"/>
                </mxCell>
            </root>
        </mxGraphModel>
    </diagram>
</mxfile>